<svg width="318" height="318" viewBox="0 0 318 318" fill="none" xmlns="http://www.w3.org/2000/svg">
<path d="M159.36 317.193C246.885 317.193 317.837 246.241 317.837 158.717C317.837 71.1925 246.885 0.240051 159.36 0.240051C71.836 0.240051 0.883568 71.1925 0.883568 158.717C0.883568 246.241 71.836 317.193 159.36 317.193Z" fill="url(#paint0_linear_6278_16493)"/>
<path d="M159.36 301.515C238.226 301.515 302.159 237.582 302.159 158.717C302.159 79.8514 238.226 15.9184 159.36 15.9184C80.4949 15.9184 16.562 79.8514 16.562 158.717C16.562 237.582 80.4949 301.515 159.36 301.515Z" fill="url(#paint1_linear_6278_16493)"/>
<path d="M299.056 158.717C299.058 186.346 290.868 213.355 275.521 236.33C260.173 259.304 238.358 277.212 212.833 287.788C187.308 298.363 159.22 301.133 132.122 295.746C105.023 290.358 80.1301 277.056 60.5913 257.522C41.0525 237.987 27.7452 213.097 22.3521 185.999C16.959 158.902 19.7225 130.813 30.293 105.286C40.8635 79.7592 58.7663 57.9399 81.7374 42.5875C104.709 27.2352 131.716 19.0393 159.345 19.0364C196.394 19.0364 231.925 33.7517 258.125 59.946C284.325 86.1403 299.048 121.669 299.056 158.717Z" fill="url(#paint2_radial_6278_16493)"/>
<path d="M57.7179 254.524L159.36 158.717L25.5296 198.804C31.7721 219.631 42.7945 238.712 57.7179 254.524Z" fill="url(#paint3_linear_6278_16493)"/>
<path d="M159.36 298.412C170.188 298.413 180.979 297.163 191.519 294.685L159.36 158.717L127.291 294.685C137.801 297.163 148.562 298.413 159.36 298.412Z" fill="url(#paint4_linear_6278_16493)"/>
<path d="M293.191 198.863L159.36 158.776L261.018 254.584C275.929 238.764 286.945 219.686 293.191 198.863Z" fill="url(#paint5_linear_6278_16493)"/>
<path d="M261.018 62.9241L159.36 158.717L293.191 118.63C286.941 97.8135 275.925 78.7403 261.018 62.9241Z" fill="url(#paint6_linear_6278_16493)"/>
<path d="M25.5296 118.585L159.36 158.672L57.7179 62.9241C42.8024 78.7197 31.7805 97.7793 25.5296 118.585Z" fill="url(#paint7_linear_6278_16493)"/>
<path d="M159.36 19.0364C148.562 19.035 137.801 20.2855 127.291 22.763L159.435 158.717L191.593 22.763C181.029 20.2773 170.213 19.0267 159.36 19.0364Z" fill="url(#paint8_linear_6278_16493)"/>
<path opacity="0.7" d="M172.99 161.924C172.99 164.998 172.078 168.004 170.37 170.56C168.662 173.116 166.234 175.109 163.394 176.285C160.553 177.462 157.428 177.77 154.412 177.17C151.397 176.57 148.627 175.09 146.453 172.916C144.279 170.742 142.799 167.972 142.199 164.956C141.599 161.941 141.907 158.815 143.084 155.975C144.26 153.135 146.252 150.707 148.809 148.999C151.365 147.291 154.371 146.379 157.445 146.379C161.568 146.379 165.522 148.017 168.437 150.932C171.352 153.847 172.99 157.801 172.99 161.924Z" fill="url(#paint9_radial_6278_16493)"/>
<path d="M168.862 158.717C168.865 160.581 168.315 162.405 167.282 163.957C166.248 165.509 164.778 166.72 163.056 167.436C161.335 168.152 159.439 168.342 157.61 167.981C155.78 167.62 154.099 166.725 152.779 165.409C151.458 164.092 150.557 162.414 150.191 160.585C149.824 158.757 150.008 156.861 150.719 155.138C151.43 153.414 152.636 151.939 154.184 150.901C155.733 149.863 157.555 149.307 159.42 149.304C161.919 149.304 164.316 150.295 166.086 152.059C167.856 153.823 168.854 156.218 168.862 158.717Z" fill="url(#paint10_linear_6278_16493)"/>
<path d="M154.461 105.357H164.186V107.406H156.421L157.816 109.633H155.99L154.505 107.227L154.461 105.357Z" fill="white"/>
<path d="M164.408 99.225C164.43 99.9718 164.222 100.707 163.814 101.333C163.384 101.948 162.779 102.418 162.077 102.684C161.206 103.02 160.278 103.181 159.345 103.159C158.422 103.181 157.504 103.02 156.643 102.684C155.951 102.417 155.355 101.946 154.936 101.333C154.534 100.705 154.327 99.971 154.342 99.225C154.327 98.4836 154.534 97.7547 154.936 97.1316C155.354 96.5181 155.95 96.0468 156.643 95.7805C157.502 95.4381 158.422 95.2764 159.345 95.3054C160.278 95.2837 161.206 95.4451 162.077 95.7805C162.779 96.0465 163.384 96.5172 163.814 97.1316C164.225 97.7508 164.432 98.4824 164.408 99.225ZM162.716 99.225C162.715 98.9451 162.635 98.6712 162.485 98.4348C162.336 98.1984 162.122 98.0091 161.869 97.8888C161.083 97.5135 160.215 97.3449 159.345 97.3988C158.724 97.3847 158.104 97.4597 157.504 97.6215C157.089 97.7359 156.711 97.9558 156.406 98.2599C156.162 98.5214 156.029 98.8674 156.035 99.225C156.034 99.5032 156.112 99.7761 156.259 100.012C156.406 100.249 156.616 100.439 156.866 100.561C157.637 100.934 158.49 101.108 159.345 101.066C159.977 101.083 160.608 101.003 161.216 100.828C161.642 100.73 162.029 100.508 162.33 100.19C162.575 99.9294 162.708 99.5829 162.701 99.225H162.716Z" fill="white"/>
<path d="M157.267 85.4172C157.091 85.4246 156.919 85.4727 156.764 85.5577C156.609 85.6427 156.477 85.7623 156.376 85.9072C156.139 86.2508 156.024 86.6636 156.049 87.0801C156.04 87.3694 156.091 87.6575 156.198 87.9264C156.275 88.1366 156.409 88.3216 156.584 88.4609C156.743 88.5786 156.936 88.6412 157.133 88.639C157.295 88.6478 157.456 88.6063 157.594 88.5202C157.727 88.4389 157.839 88.327 157.92 88.1936C158.022 88.0399 158.106 87.8757 158.173 87.7037C158.173 87.5107 158.291 87.3176 158.351 87.0949L158.559 86.2338C158.637 85.83 158.762 85.4366 158.93 85.0609C159.077 84.7275 159.272 84.4174 159.509 84.1404C159.736 83.8838 160.014 83.6766 160.325 83.5317C160.749 83.3515 161.211 83.2788 161.669 83.3203C162.128 83.3617 162.569 83.516 162.953 83.7692C163.408 84.0929 163.759 84.5416 163.963 85.0609C164.215 85.7034 164.336 86.39 164.319 87.0801C164.341 87.7946 164.22 88.5063 163.963 89.1735C163.75 89.7251 163.378 90.2007 162.894 90.5394C162.368 90.878 161.753 91.0537 161.127 91.0442V89.0102C161.413 88.9949 161.689 88.897 161.921 88.7283C162.153 88.5597 162.331 88.3276 162.434 88.06C162.642 87.4589 162.642 86.8052 162.434 86.2041C162.351 85.9645 162.201 85.7533 162.003 85.5954C161.828 85.4616 161.614 85.3886 161.394 85.3875C161.193 85.3777 160.996 85.447 160.845 85.5805C160.67 85.7324 160.537 85.9267 160.459 86.1447C160.341 86.4336 160.247 86.7315 160.177 87.0355L159.91 88.0897C159.757 88.8033 159.437 89.4702 158.974 90.0346C158.759 90.2712 158.495 90.4577 158.2 90.5808C157.905 90.704 157.586 90.7608 157.267 90.7473C156.735 90.7456 156.216 90.5797 155.782 90.2722C155.325 89.9376 154.966 89.4864 154.743 88.9657C154.492 88.3638 154.366 87.7173 154.372 87.0652C154.363 86.4129 154.489 85.7659 154.743 85.1648C154.967 84.6606 155.327 84.2288 155.782 83.9177C156.219 83.6153 156.736 83.4499 157.267 83.4426V85.4172Z" fill="white"/>
<path d="M164.186 81.9431H154.461V78.0977C154.443 77.4477 154.591 76.8039 154.891 76.227C155.154 75.7236 155.556 75.3062 156.049 75.0244C156.576 74.7494 157.163 74.6115 157.757 74.6235C158.353 74.6072 158.942 74.7508 159.464 75.0392C159.957 75.3211 160.359 75.7385 160.622 76.2418C160.909 76.8389 161.051 77.4949 161.038 78.1571V80.6068H159.39V78.4837C159.398 78.1453 159.327 77.8097 159.182 77.5038C159.053 77.2561 158.851 77.054 158.603 76.9248C158.339 76.7973 158.05 76.731 157.757 76.731C157.464 76.731 157.174 76.7973 156.911 76.9248C156.673 77.0619 156.477 77.2623 156.346 77.5038C156.205 77.8158 156.139 78.1565 156.153 78.4986V79.8793H164.186V81.9431Z" fill="white"/>
<path d="M154.461 71.2235H164.186V73.2872H154.461V71.2235Z" fill="white"/>
<path d="M154.461 61.4097H164.186V63.1765L158.069 67.4078H164.186V69.4567H154.461V67.7345L160.578 63.5328V63.4437H154.461V61.4097Z" fill="white"/>
<path d="M153.525 56.0648L151.373 55.0255V53.1845L153.525 54.6692V56.0648ZM159.331 50.7792C160.268 50.7538 161.197 50.9631 162.033 51.388C162.748 51.7501 163.338 52.3192 163.725 53.0211C164.115 53.7309 164.32 54.5275 164.32 55.3373C164.32 56.147 164.115 56.9437 163.725 57.6534C163.327 58.3525 162.734 58.9202 162.018 59.2866C161.186 59.7063 160.262 59.9105 159.331 59.8804C158.39 59.9117 157.456 59.7075 156.614 59.2866C155.904 58.9158 155.317 58.3488 154.921 57.6534C154.531 56.9437 154.327 56.147 154.327 55.3373C154.327 54.5275 154.531 53.7309 154.921 53.0211C155.309 52.3192 155.898 51.7501 156.614 51.388C157.454 50.9619 158.388 50.7526 159.331 50.7792ZM159.331 52.8578C158.736 52.8385 158.144 52.9447 157.594 53.1696C157.157 53.3465 156.781 53.6455 156.51 54.0307C156.277 54.4242 156.155 54.8728 156.155 55.3298C156.155 55.7869 156.277 56.2355 156.51 56.629C156.781 57.0142 157.157 57.3132 157.594 57.4901C158.144 57.7149 158.736 57.8212 159.331 57.8019C159.925 57.8186 160.516 57.7124 161.068 57.4901C161.498 57.3094 161.868 57.0109 162.137 56.629C162.369 56.2355 162.492 55.7869 162.492 55.3298C162.492 54.8728 162.369 54.4242 162.137 54.0307C161.868 53.6488 161.498 53.3503 161.068 53.1696C160.516 52.9473 159.925 52.8411 159.331 52.8578Z" fill="white"/>
<path d="M164.186 47.4386L154.461 50.215V47.9731L161.216 46.3696V46.2805L154.461 44.5137V42.5836L161.231 40.8168V40.7426L154.461 39.1243V36.8824L164.186 39.6588V41.6631L157.831 43.519L164.186 45.36V47.4386Z" fill="white"/>
<path d="M134.313 106.114C134.648 106.673 134.865 107.294 134.952 107.94C135.02 108.496 134.938 109.06 134.714 109.573C134.503 110.07 134.132 110.483 133.66 110.746L132.636 108.965C132.825 108.839 132.971 108.657 133.051 108.445C133.134 108.217 133.159 107.972 133.126 107.732C133.083 107.459 132.987 107.197 132.844 106.96C132.709 106.71 132.522 106.492 132.294 106.322C132.093 106.178 131.857 106.091 131.611 106.069C131.366 106.052 131.121 106.11 130.909 106.234C130.697 106.359 130.528 106.544 130.424 106.767C130.317 107.005 130.286 107.269 130.334 107.524C130.374 107.852 130.485 108.166 130.661 108.445L131.106 109.232L129.8 109.974L129.355 109.187C129.215 108.945 129.028 108.732 128.805 108.564C128.606 108.425 128.377 108.333 128.137 108.296C127.896 108.283 127.658 108.346 127.454 108.475C127.255 108.58 127.091 108.74 126.979 108.935C126.874 109.13 126.828 109.352 126.845 109.573C126.865 109.825 126.941 110.068 127.068 110.286C127.201 110.512 127.378 110.709 127.588 110.865C127.773 111.009 127.994 111.101 128.226 111.132C128.456 111.161 128.689 111.12 128.894 111.013L129.889 112.706C129.442 112.97 128.921 113.085 128.404 113.033C127.868 112.971 127.356 112.771 126.92 112.454C126.427 112.088 126.017 111.623 125.717 111.088C125.402 110.569 125.209 109.985 125.153 109.38C125.105 108.87 125.198 108.357 125.42 107.896C125.637 107.451 125.984 107.084 126.415 106.841C126.633 106.703 126.877 106.61 127.133 106.57C127.388 106.529 127.649 106.54 127.9 106.604C128.4 106.717 128.847 107 129.162 107.406C128.889 106.853 128.826 106.22 128.983 105.624C129.152 105.096 129.519 104.654 130.008 104.392C130.453 104.121 130.975 104.006 131.492 104.065C132.034 104.146 132.546 104.366 132.977 104.703C133.516 105.075 133.972 105.555 134.313 106.114Z" fill="#0E5DF8"/>
<path d="M121.352 97.8294C121.205 97.9238 121.082 98.0505 120.992 98.1997C120.902 98.349 120.848 98.5169 120.832 98.6905C120.803 99.1099 120.913 99.5273 121.144 99.8783C121.279 100.128 121.46 100.35 121.679 100.532C121.849 100.681 122.062 100.775 122.287 100.799C122.484 100.826 122.683 100.784 122.852 100.68C122.999 100.612 123.119 100.497 123.193 100.353C123.27 100.211 123.316 100.054 123.327 99.8931C123.34 99.7102 123.34 99.5267 123.327 99.3438C123.289 99.1429 123.24 98.9446 123.178 98.7499L122.926 97.8888C122.795 97.4991 122.71 97.0955 122.673 96.6862C122.613 96.3274 122.613 95.9611 122.673 95.6023C122.731 95.2633 122.869 94.9428 123.074 94.667C123.288 94.3657 123.567 94.1169 123.891 93.9395C124.363 93.651 124.913 93.5161 125.465 93.5534C126.006 93.6163 126.52 93.8269 126.949 94.1622C128.014 95.0704 128.733 96.3187 128.983 97.6958C129.076 98.2773 128.988 98.8732 128.731 99.4032C128.455 99.9619 128.014 100.423 127.469 100.725L126.474 99.0023C126.723 98.8452 126.919 98.6179 127.038 98.349C127.144 98.0906 127.175 97.8076 127.127 97.5324C127.076 97.2128 126.966 96.9055 126.801 96.6268C126.647 96.3557 126.446 96.1144 126.207 95.9141C126.02 95.746 125.788 95.6374 125.539 95.6023C125.317 95.5714 125.091 95.6187 124.9 95.736C124.724 95.8287 124.587 95.9814 124.514 96.1665C124.468 96.3918 124.468 96.6242 124.514 96.8495C124.558 97.1616 124.627 97.4696 124.722 97.77L125.019 98.8241C125.247 99.5129 125.303 100.247 125.183 100.962C125.113 101.279 124.975 101.576 124.777 101.832C124.579 102.089 124.328 102.299 124.039 102.447C123.593 102.718 123.076 102.847 122.555 102.818C122.015 102.74 121.504 102.525 121.07 102.194C120.038 101.388 119.362 100.211 119.184 98.9132C119.118 98.3657 119.205 97.8104 119.437 97.3097C119.675 96.8159 120.058 96.4066 120.535 96.1368L121.352 97.8294Z" fill="#0E5DF8"/>
<path d="M125.643 91.356L117.225 96.211L115.309 92.8852C114.964 92.3359 114.764 91.7072 114.73 91.059C114.711 90.4909 114.855 89.9293 115.146 89.4407C115.456 88.9287 115.897 88.5085 116.423 88.2233C116.933 87.9238 117.509 87.7555 118.101 87.7333C118.671 87.726 119.23 87.8916 119.704 88.2084C120.261 88.5855 120.716 89.0959 121.025 89.6931L122.243 91.8162L120.758 92.6328L119.704 90.8067C119.55 90.5053 119.319 90.2494 119.036 90.0643C118.8 89.9184 118.526 89.846 118.249 89.8564C117.954 89.864 117.667 89.9512 117.418 90.1088C117.159 90.2504 116.939 90.4545 116.779 90.7027C116.631 90.9371 116.563 91.2133 116.586 91.4896C116.617 91.8259 116.723 92.1508 116.898 92.4398L117.596 93.6424L124.559 89.6189L125.643 91.356Z" fill="#0E5DF8"/>
<path d="M111.865 86.9316L120.283 82.0766L121.307 83.8582L112.904 88.7132L111.865 86.9316Z" fill="#0E5DF8"/>
<path d="M106.965 78.4244L115.413 73.5694L116.304 75.0541L113.127 81.7649L118.383 78.7807L119.407 80.5475L110.959 85.4767L110.068 83.9029L113.26 77.2218L107.99 80.2654L106.965 78.4244Z" fill="#0E5DF8"/>
<path d="M103.536 74.3266L101.16 74.5345L100.165 72.8419L102.764 73.0201L103.536 74.3266ZM105.911 66.9031C106.709 66.4107 107.618 66.1249 108.554 66.0717C109.355 66.0337 110.149 66.2298 110.84 66.6359C111.499 67.0293 112.05 67.5803 112.444 68.2394C112.855 68.9433 113.08 69.7405 113.097 70.5555C113.104 71.3646 112.877 72.1586 112.444 72.8419C111.926 73.6198 111.228 74.2614 110.41 74.7127C109.615 75.2116 108.705 75.4979 107.767 75.5441C106.968 75.5799 106.176 75.3894 105.481 74.9947C104.788 74.5706 104.213 73.9806 103.806 73.2781C103.399 72.5756 103.173 71.7828 103.15 70.9712C103.152 70.166 103.384 69.3782 103.818 68.6996C104.328 67.9074 105.027 67.2544 105.852 66.7992L105.911 66.9031ZM106.95 68.7145C106.428 68.9949 105.968 69.3789 105.599 69.8428C105.32 70.2145 105.151 70.6567 105.109 71.1197C105.087 71.5779 105.2 72.0327 105.436 72.4262C105.659 72.8299 105.994 73.16 106.401 73.3764C106.827 73.5753 107.301 73.6475 107.767 73.5843C108.351 73.4997 108.912 73.2977 109.415 72.9904C109.941 72.7085 110.401 72.3189 110.766 71.8472C111.061 71.4889 111.237 71.0473 111.269 70.5841C111.301 70.1209 111.188 69.6592 110.944 69.2638C110.716 68.8591 110.376 68.5291 109.964 68.3136C109.544 68.1134 109.074 68.0412 108.613 68.1057C108.011 68.1554 107.425 68.3272 106.891 68.6105L106.95 68.7145Z" fill="#0E5DF8"/>
<path d="M108.391 61.4839L101.368 68.7441L100.24 66.7991L105.288 62.0333L98.5619 63.8743L97.5968 62.1372L102.571 57.2228L95.9043 59.2123L94.7907 57.2674L104.59 54.8176L105.599 56.5547L101.012 61.3355L107.44 59.7617L108.391 61.4839Z" fill="#0E5DF8"/>
<path d="M119.214 129.973L118.472 131.25L113.929 132.23L112.889 132.527C112.634 132.619 112.39 132.738 112.162 132.883C111.962 133.03 111.795 133.217 111.672 133.432C111.535 133.65 111.463 133.903 111.464 134.16C111.477 134.403 111.553 134.639 111.687 134.843C111.842 135.058 112.039 135.239 112.266 135.377C112.502 135.51 112.767 135.587 113.038 135.6C113.285 135.61 113.529 135.542 113.736 135.407C113.97 135.264 114.16 135.058 114.285 134.813L115.977 135.778C115.705 136.293 115.286 136.717 114.775 136.996C114.289 137.26 113.738 137.378 113.186 137.337C112.57 137.293 111.974 137.099 111.449 136.773C110.895 136.476 110.417 136.054 110.053 135.541C109.738 135.107 109.552 134.592 109.519 134.056C109.484 133.534 109.614 133.015 109.89 132.571C110.07 132.245 110.318 131.961 110.618 131.74C110.999 131.454 111.426 131.233 111.88 131.087C112.574 130.848 113.283 130.655 114.003 130.508L115.918 130.018L112.444 127.954L113.275 126.469L119.214 129.973Z" fill="white"/>
<path d="M108.732 123.678C109.376 124.039 109.894 124.588 110.217 125.252C110.523 125.93 110.626 126.683 110.514 127.419C110.368 128.341 110.04 129.224 109.549 130.018C109.112 130.831 108.516 131.548 107.797 132.126C107.222 132.6 106.512 132.88 105.769 132.928C105.025 132.976 104.285 132.789 103.654 132.393C103.035 132.041 102.522 131.528 102.17 130.908C101.86 130.236 101.752 129.488 101.858 128.756C101.998 127.839 102.321 126.961 102.808 126.172C103.254 125.352 103.854 124.626 104.575 124.034C105.158 123.568 105.865 123.284 106.609 123.218C107.347 123.143 108.091 123.304 108.732 123.678ZM107.886 125.163C107.65 125.015 107.377 124.937 107.099 124.937C106.821 124.937 106.548 125.015 106.312 125.163C105.592 125.65 105.009 126.315 104.619 127.093C104.297 127.625 104.053 128.199 103.892 128.8C103.772 129.217 103.772 129.66 103.892 130.077C103.943 130.247 104.027 130.405 104.139 130.543C104.251 130.68 104.389 130.795 104.545 130.879C104.771 131.009 105.027 131.078 105.288 131.078C105.548 131.078 105.804 131.009 106.03 130.879C106.745 130.402 107.324 129.747 107.708 128.978C108.041 128.44 108.291 127.854 108.45 127.241C108.561 126.818 108.561 126.373 108.45 125.949C108.358 125.626 108.159 125.343 107.886 125.148V125.163Z" fill="white"/>
<path d="M93.1428 122.95C93.0655 123.107 93.0253 123.28 93.0253 123.455C93.0253 123.63 93.0655 123.803 93.1428 123.96C93.3181 124.335 93.6168 124.639 93.989 124.821C94.2383 124.966 94.5089 125.071 94.7908 125.133C95.005 125.188 95.2298 125.188 95.444 125.133C95.6337 125.054 95.7908 124.912 95.8894 124.732C95.974 124.599 96.0202 124.445 96.0231 124.287C96.0115 124.125 95.966 123.969 95.8894 123.826C95.8062 123.668 95.7066 123.519 95.5925 123.381C95.4608 123.217 95.3169 123.063 95.1619 122.921L94.5087 122.312C94.201 122.039 93.9269 121.73 93.6921 121.391C93.4707 121.098 93.2955 120.773 93.1724 120.426C93.0714 120.1 93.0361 119.757 93.0685 119.417C93.1095 119.051 93.2257 118.697 93.41 118.377C93.675 117.893 94.0852 117.503 94.5829 117.264C95.0909 117.04 95.6516 116.963 96.2012 117.041C96.8858 117.138 97.5429 117.376 98.1313 117.739C98.7443 118.081 99.2881 118.534 99.7348 119.075C100.109 119.552 100.327 120.132 100.362 120.738C100.396 121.343 100.245 121.944 99.9278 122.46L98.2056 121.466C98.3489 121.208 98.4061 120.912 98.3689 120.619C98.3337 120.341 98.2205 120.079 98.0423 119.862C97.8329 119.613 97.5817 119.402 97.2999 119.239C97.0341 119.083 96.7424 118.978 96.4388 118.927C96.1961 118.858 95.9391 118.858 95.6964 118.927C95.4923 119.016 95.321 119.166 95.2065 119.357C95.1011 119.531 95.0641 119.737 95.1026 119.936C95.1522 120.157 95.2484 120.365 95.3846 120.545C95.5799 120.793 95.7933 121.027 96.0231 121.243L96.81 122C97.3557 122.485 97.7738 123.097 98.0274 123.782C98.1242 124.086 98.1518 124.408 98.1082 124.723C98.0645 125.039 97.9507 125.342 97.775 125.608C97.5178 126.095 97.1048 126.482 96.6021 126.707C96.0855 126.937 95.5148 127.02 94.9541 126.944C94.3099 126.861 93.6917 126.638 93.1428 126.291C92.5608 125.985 92.0537 125.554 91.6581 125.029C91.3385 124.593 91.1388 124.081 91.079 123.544C91.0517 123.025 91.1755 122.51 91.4353 122.06L93.1428 122.95Z" fill="white"/>
<path d="M93.6475 115.215L88.7925 123.633L85.4668 121.718C84.868 121.417 84.3567 120.967 83.9821 120.412C83.6786 119.932 83.5189 119.376 83.5219 118.808C83.5441 118.21 83.7178 117.628 84.0267 117.116C84.3201 116.595 84.7385 116.157 85.2441 115.839C85.7338 115.554 86.2968 115.419 86.8624 115.453C87.524 115.501 88.165 115.704 88.7332 116.047L90.8414 117.264L90.0248 118.749L88.1838 117.695C87.8957 117.518 87.5703 117.411 87.2336 117.383C86.9571 117.377 86.6845 117.449 86.4467 117.591C86.2063 117.755 86.0079 117.974 85.8677 118.229C85.7148 118.481 85.6232 118.766 85.6004 119.06C85.5995 119.338 85.6767 119.611 85.8231 119.847C86.0261 120.121 86.284 120.348 86.5803 120.515L87.7829 121.198L91.7916 114.25L93.6475 115.215Z" fill="white"/>
<path d="M79.5132 118.274L84.383 109.855L86.1498 110.88L81.2652 119.298L79.5132 118.274Z" fill="white"/>
<path d="M71.0059 113.359L75.8757 104.941L77.3604 105.832L77.9691 113.255L81.0276 107.955L82.8092 108.979L78.0434 117.383L76.5587 116.477L75.9796 109.054L73.0102 114.339L71.0059 113.359Z" fill="white"/>
<path d="M65.9134 111.444L63.9536 112.81L62.3352 111.875L64.6811 110.731L65.9134 111.444ZM64.2357 103.783C64.6825 102.958 65.3248 102.254 66.1064 101.734C66.7909 101.316 67.5758 101.09 68.378 101.081C69.1895 101.09 69.984 101.315 70.6793 101.734C71.3809 102.156 71.9594 102.755 72.357 103.471C72.7517 104.166 72.9421 104.959 72.9063 105.758C72.8271 106.688 72.5439 107.589 72.0769 108.397C71.6098 109.206 70.9704 109.901 70.2041 110.434C69.5325 110.869 68.7475 111.097 67.9474 111.088C67.1378 111.063 66.3469 110.839 65.6449 110.435C64.9429 110.031 64.3517 109.459 63.9239 108.772C63.5247 108.078 63.3292 107.285 63.3597 106.485C63.433 105.546 63.7336 104.639 64.2357 103.842V103.783ZM66.047 104.822C65.7348 105.33 65.5278 105.896 65.4383 106.485C65.3737 106.946 65.446 107.416 65.6461 107.836C65.8581 108.247 66.1894 108.583 66.5963 108.801C66.9893 109.04 67.4434 109.159 67.9029 109.143C68.3699 109.108 68.8154 108.932 69.1797 108.638C69.6518 108.273 70.0413 107.813 70.3229 107.287C70.6302 106.783 70.8322 106.223 70.9168 105.639C70.9891 105.173 70.9165 104.696 70.7089 104.273C70.5535 103.963 70.3315 103.692 70.0587 103.478C69.786 103.265 69.4693 103.114 69.1315 103.038C68.7936 102.961 68.443 102.96 68.1048 103.035C67.7666 103.11 67.4492 103.259 67.1754 103.471C66.705 103.858 66.3207 104.338 66.047 104.882V104.822Z" fill="white"/>
<path d="M63.7754 97.963L61.3256 107.777L59.3807 106.648L61.3702 99.997L56.4558 104.956L54.7187 104.021L56.5746 97.2651H56.5003L51.7196 102.328L49.7747 101.051L57.0348 94.0285L58.7719 95.0381L57.1982 101.452L61.964 96.8791L63.7754 97.963Z" fill="white"/>
<path d="M105.985 163.616V153.891H107.99V161.656L110.217 160.261V162.087L107.812 163.572L105.985 163.616Z" fill="#8233C1"/>
<path d="M100.136 153.758C100.749 153.751 101.357 153.878 101.917 154.129C102.417 154.353 102.848 154.707 103.164 155.154C103.477 155.586 103.648 156.105 103.654 156.638H101.65C101.645 156.461 101.6 156.287 101.518 156.13C101.436 155.973 101.318 155.837 101.175 155.733C100.883 155.493 100.514 155.366 100.136 155.376C99.8358 155.373 99.5397 155.444 99.2745 155.584C99.027 155.727 98.8259 155.938 98.6955 156.193C98.5472 156.466 98.4754 156.773 98.4877 157.084C98.477 157.398 98.5487 157.711 98.6955 157.989C98.8374 158.24 99.042 158.45 99.2894 158.598C99.5613 158.736 99.8605 158.812 100.165 158.821C100.452 158.819 100.735 158.758 100.997 158.643C101.245 158.539 101.461 158.369 101.62 158.153L103.447 158.494L102.986 163.616H97.0475V161.924H101.294L101.546 159.489C101.339 159.751 101.068 159.955 100.759 160.083C100.396 160.248 100 160.33 99.6012 160.32C99.0679 160.333 98.5411 160.202 98.0761 159.941C97.611 159.679 97.225 159.298 96.9584 158.836C96.6834 158.325 96.5453 157.752 96.5576 157.173C96.5387 156.565 96.6917 155.963 96.9989 155.438C97.3062 154.913 97.7553 154.485 98.2946 154.203C98.8649 153.913 99.4956 153.76 100.136 153.758Z" fill="#8233C1"/>
<path d="M86.6397 160.81C86.6549 160.987 86.7063 161.158 86.7906 161.314C86.8749 161.47 86.9903 161.607 87.1297 161.716C87.4778 161.941 87.8885 162.05 88.3026 162.028C88.5906 162.036 88.8776 161.991 89.1489 161.894C89.3626 161.816 89.5485 161.676 89.6834 161.493C89.8011 161.334 89.8637 161.141 89.8615 160.944C89.8748 160.783 89.8385 160.623 89.7576 160.484C89.6708 160.35 89.5539 160.238 89.4161 160.157C89.2642 160.052 89.0996 159.967 88.9262 159.905L88.3323 159.741L87.4563 159.533C87.0538 159.443 86.661 159.314 86.2834 159.147C85.952 158.997 85.6423 158.802 85.3629 158.568C85.1106 158.337 84.9041 158.06 84.7542 157.752C84.6127 157.408 84.542 157.039 84.5463 156.668C84.544 156.14 84.699 155.623 84.9917 155.183C85.3154 154.729 85.7641 154.378 86.2834 154.174C86.9308 153.92 87.6224 153.799 88.3175 153.817C89.0169 153.805 89.7123 153.925 90.3663 154.174C90.9124 154.389 91.3826 154.761 91.7174 155.243C92.056 155.769 92.2316 156.384 92.2222 157.009H90.1733C90.1734 156.713 90.0741 156.426 89.8912 156.193C89.7195 155.969 89.4878 155.799 89.2231 155.703C88.9187 155.592 88.5969 155.537 88.2729 155.54C87.9643 155.531 87.6569 155.581 87.3672 155.688C87.1318 155.771 86.9256 155.921 86.7734 156.119C86.6289 156.288 86.55 156.504 86.5507 156.727C86.5483 156.932 86.6164 157.131 86.7437 157.291C86.9007 157.457 87.0938 157.584 87.3079 157.663C87.595 157.785 87.8934 157.88 88.1987 157.945L89.2677 158.212C89.9776 158.362 90.6402 158.683 91.1978 159.147C91.4355 159.365 91.6226 159.632 91.7458 159.929C91.8689 160.227 91.9251 160.548 91.9104 160.87C91.9169 161.403 91.7501 161.924 91.4353 162.354C91.1008 162.811 90.6495 163.17 90.1288 163.394C89.5269 163.644 88.8804 163.771 88.2284 163.765C87.5807 163.776 86.9381 163.649 86.3428 163.394C85.8332 163.172 85.3959 162.812 85.0808 162.354C84.7829 161.916 84.6226 161.399 84.6206 160.87L86.6397 160.81Z" fill="#8233C1"/>
<path d="M83.1656 153.891V163.616H79.335C78.6803 163.634 78.0317 163.486 77.4495 163.186C76.9453 162.929 76.5311 162.525 76.2617 162.028C75.9753 161.505 75.8319 160.916 75.846 160.32C75.8297 159.724 75.9733 159.135 76.2617 158.613C76.5476 158.118 76.9703 157.715 77.4792 157.455C78.0705 157.167 78.722 157.024 79.3796 157.039H81.8293V158.687H79.7805C79.4418 158.675 79.1054 158.747 78.8006 158.895C78.5465 159.015 78.3419 159.22 78.2215 159.474C78.094 159.738 78.0278 160.027 78.0278 160.32C78.0278 160.613 78.094 160.903 78.2215 161.166C78.3474 161.413 78.5509 161.611 78.8006 161.731C79.1066 161.874 79.443 161.94 79.7805 161.924H81.1761V153.877L83.1656 153.891Z" fill="#8233C1"/>
<path d="M72.4609 163.616V153.891H74.5098V163.616H72.4609Z" fill="#8233C1"/>
<path d="M62.6322 163.616V153.891H64.4138L68.6304 160.008H68.7046V153.891H70.7535V163.616H68.957L64.7553 157.47V163.587L62.6322 163.616Z" fill="#8233C1"/>
<path d="M52.0017 158.746C51.9663 157.789 52.1758 156.839 52.6105 155.985C52.977 155.273 53.545 154.684 54.2436 154.292C54.9471 153.887 55.748 153.682 56.5598 153.699C57.3758 153.685 58.1807 153.89 58.8907 154.292C59.5798 154.716 60.1315 155.329 60.4794 156.059C60.8991 156.891 61.1033 157.815 61.0732 158.746C61.1045 159.687 60.9003 160.621 60.4794 161.463C60.1139 162.172 59.5521 162.759 58.861 163.156C58.151 163.558 57.3461 163.764 56.5301 163.75C55.7183 163.767 54.9174 163.561 54.2139 163.156C53.5153 162.764 52.9474 162.176 52.5808 161.463C52.1649 160.62 51.9659 159.686 52.0017 158.746ZM54.0952 158.746C54.0775 159.34 54.1784 159.93 54.3921 160.484C54.569 160.92 54.868 161.296 55.2532 161.567C55.6446 161.811 56.0988 161.935 56.5598 161.924C57.016 161.935 57.4654 161.811 57.8515 161.567C58.241 161.301 58.5411 160.923 58.7126 160.484C58.9374 159.933 59.0437 159.341 59.0244 158.746C59.0411 158.152 58.9349 157.561 58.7126 157.009C58.537 156.576 58.2374 156.204 57.8515 155.94C57.4654 155.697 57.016 155.573 56.5598 155.584C56.0988 155.573 55.6446 155.697 55.2532 155.94C54.8713 156.209 54.5728 156.579 54.3921 157.009C54.1825 157.564 54.0817 158.154 54.0952 158.746ZM57.2873 164.552L56.2777 166.704H54.407L55.8917 164.552H57.2873Z" fill="#8233C1"/>
<path d="M48.6018 153.891L51.393 163.616H49.2105L47.5922 156.861L45.8106 163.616H43.8211L42.0543 156.846H41.9652L40.3469 163.616H38.105L40.8962 153.891H42.8857L44.7416 160.246L46.5974 153.891H48.6018Z" fill="#8233C1"/>
<path d="M106.757 183.764C107.314 183.427 107.937 183.215 108.584 183.14C109.138 183.059 109.704 183.136 110.217 183.363C110.714 183.574 111.126 183.945 111.39 184.417L109.608 185.441C109.483 185.252 109.301 185.106 109.088 185.026C108.86 184.943 108.616 184.918 108.376 184.951C108.102 184.994 107.84 185.09 107.604 185.233C107.353 185.368 107.135 185.555 106.965 185.783C106.822 185.984 106.734 186.22 106.713 186.466C106.696 186.711 106.753 186.956 106.878 187.168C107.002 187.38 107.188 187.549 107.411 187.654C107.648 187.76 107.912 187.791 108.168 187.743C108.495 187.703 108.81 187.592 109.088 187.416L109.875 186.971L110.618 188.277L109.831 188.723C109.584 188.862 109.371 189.055 109.207 189.287C109.065 189.484 108.973 189.714 108.94 189.955C108.93 190.189 108.987 190.42 109.103 190.623C109.214 190.823 109.379 190.987 109.578 191.098C109.774 191.203 109.996 191.249 110.217 191.232C110.468 191.212 110.712 191.136 110.929 191.009C111.155 190.876 111.352 190.699 111.508 190.489C111.652 190.304 111.744 190.083 111.776 189.851C111.805 189.62 111.758 189.385 111.642 189.183L113.349 188.188C113.612 188.636 113.726 189.156 113.676 189.673C113.607 190.208 113.409 190.717 113.097 191.157C112.736 191.654 112.27 192.065 111.731 192.36C111.212 192.675 110.628 192.868 110.024 192.924C109.514 192.972 109.001 192.879 108.539 192.657C108.091 192.445 107.722 192.097 107.485 191.662C107.346 191.444 107.253 191.2 107.212 190.945C107.171 190.689 107.183 190.428 107.247 190.178C107.36 189.677 107.644 189.23 108.049 188.916C107.496 189.188 106.863 189.251 106.267 189.094C105.739 188.925 105.298 188.558 105.035 188.069C104.765 187.624 104.65 187.102 104.709 186.585C104.787 186.042 105.007 185.53 105.347 185.1C105.715 184.558 106.196 184.102 106.757 183.764Z" fill="white"/>
<path d="M98.4728 196.695C98.5688 196.842 98.6956 196.966 98.8443 197.058C98.993 197.15 99.1601 197.209 99.3339 197.23C99.7474 197.247 100.156 197.138 100.507 196.918C100.761 196.778 100.988 196.592 101.175 196.369C101.326 196.199 101.42 195.986 101.442 195.76C101.47 195.564 101.428 195.364 101.323 195.196C101.256 195.049 101.141 194.929 100.997 194.854C100.856 194.775 100.698 194.734 100.537 194.736C100.354 194.715 100.17 194.715 99.9872 194.736C99.7864 194.773 99.588 194.822 99.3933 194.884L98.5322 195.137C98.141 195.265 97.7382 195.354 97.3296 195.404C96.9647 195.449 96.5957 195.449 96.2309 195.404C95.8851 195.326 95.5595 195.176 95.2756 194.963C94.9916 194.751 94.7556 194.481 94.5829 194.171C94.2965 193.704 94.1617 193.16 94.1969 192.613C94.2597 192.071 94.4703 191.558 94.8056 191.128C95.7138 190.063 96.9621 189.344 98.3392 189.094C98.9207 189.001 99.5166 189.09 100.047 189.346C100.605 189.622 101.066 190.063 101.368 190.608L99.6457 191.603C99.4886 191.354 99.2613 191.158 98.9924 191.039C98.734 190.933 98.451 190.902 98.1758 190.95C97.8554 191.006 97.5483 191.122 97.2702 191.291C96.9968 191.435 96.7546 191.632 96.5575 191.87C96.3916 192.058 96.2834 192.29 96.2457 192.538C96.2148 192.76 96.2621 192.986 96.3794 193.177C96.4675 193.356 96.6218 193.495 96.8099 193.563C97.0352 193.61 97.2676 193.61 97.4929 193.563C97.8035 193.518 98.111 193.453 98.4134 193.37L99.4675 193.058C100.156 192.83 100.892 192.779 101.605 192.909C101.922 192.973 102.22 193.108 102.477 193.303C102.735 193.499 102.944 193.75 103.09 194.038C103.361 194.484 103.49 195.002 103.461 195.523C103.396 196.088 103.18 196.626 102.838 197.081C102.437 197.601 101.931 198.031 101.353 198.343C100.8 198.689 100.175 198.902 99.5269 198.967C98.9794 199.033 98.4241 198.946 97.9235 198.715C97.4296 198.477 97.0203 198.093 96.7505 197.616L98.4728 196.695Z" fill="white"/>
<path d="M91.9996 192.434L96.8545 200.853L93.5288 202.768C92.9787 203.112 92.3505 203.311 91.7026 203.347C91.1345 203.366 90.5728 203.222 90.0843 202.931C89.5723 202.621 89.1521 202.18 88.8669 201.654C88.5674 201.144 88.399 200.568 88.3769 199.977C88.3732 199.407 88.5385 198.849 88.852 198.373C89.2332 197.819 89.7426 197.366 90.3367 197.052L92.4598 195.834L93.2764 197.319L91.4502 198.373C91.1518 198.532 90.8969 198.761 90.7079 199.041C90.562 199.277 90.4896 199.551 90.5 199.828C90.5053 200.123 90.5927 200.411 90.7524 200.66C90.8939 200.919 91.0981 201.138 91.3463 201.298C91.5807 201.446 91.8569 201.514 92.1332 201.491C92.4709 201.468 92.7975 201.361 93.0834 201.179L94.286 200.481L90.1734 193.459L91.9996 192.434Z" fill="white"/>
<path d="M87.5751 206.212L82.7499 197.794L84.5315 196.77L89.3865 205.188L87.5751 206.212Z" fill="white"/>
<path d="M79.0678 211.127L74.2128 202.708L75.6975 201.818L82.4677 204.98L79.4093 199.68L81.1909 198.655L86.0607 207.073L84.4869 207.979L77.8058 204.772L80.8643 210.073L79.0678 211.127Z" fill="white"/>
<path d="M67.4426 212.225C66.9502 211.427 66.6644 210.519 66.6112 209.583C66.5732 208.782 66.7693 207.987 67.1754 207.296C67.5829 206.597 68.1732 206.022 68.8828 205.633C69.5829 205.211 70.3817 204.981 71.1989 204.965C71.9995 204.968 72.7824 205.2 73.4557 205.633C74.2335 206.151 74.8752 206.849 75.3264 207.667C75.8172 208.466 76.1028 209.374 76.1578 210.31C76.1936 211.109 76.0032 211.901 75.6085 212.597C75.1844 213.289 74.5944 213.865 73.8919 214.272C73.1894 214.679 72.3965 214.904 71.585 214.928C70.7797 214.925 69.9919 214.693 69.3134 214.259C68.5288 213.749 67.8854 213.05 67.4426 212.225ZM69.254 211.186C69.5345 211.708 69.9184 212.168 70.3823 212.537C70.7503 212.823 71.1946 212.993 71.6592 213.027C72.118 213.056 72.5744 212.942 72.9657 212.7C73.3694 212.478 73.6996 212.143 73.9159 211.735C74.1165 211.31 74.1887 210.835 74.1238 210.37C74.0392 209.786 73.8372 209.225 73.5299 208.721C73.243 208.199 72.8543 207.74 72.3867 207.37C72.0209 207.079 71.5763 206.903 71.1099 206.866C70.6496 206.842 70.1934 206.962 69.8033 207.207C69.3964 207.425 69.0651 207.762 68.8531 208.172C68.6529 208.592 68.5807 209.062 68.6452 209.523C68.7348 210.113 68.9418 210.678 69.254 211.186ZM74.9107 214.601L75.1185 216.976L73.5002 217.912L73.6784 215.314L74.9107 214.601Z" fill="white"/>
<path d="M62.1274 209.686L69.3875 216.709L67.4426 217.837L62.6767 212.789L64.5177 219.515L62.8549 220.48L57.9405 215.506L59.93 222.173L57.9851 223.286L55.5353 213.487L57.2724 212.493L61.9641 217.154L60.3903 210.726L62.1274 209.686Z" fill="white"/>
<path d="M130.617 198.863L131.893 199.605L132.933 204.193C133.037 204.594 133.141 204.935 133.23 205.232C133.321 205.487 133.441 205.731 133.586 205.96C133.733 206.16 133.92 206.327 134.135 206.45C134.353 206.586 134.606 206.658 134.863 206.658C135.106 206.645 135.342 206.568 135.546 206.435C135.76 206.279 135.942 206.082 136.08 205.856C136.215 205.62 136.292 205.355 136.303 205.084C136.313 204.837 136.245 204.593 136.11 204.386C135.961 204.157 135.757 203.968 135.516 203.837L136.481 202.144C136.996 202.417 137.42 202.835 137.699 203.347C137.962 203.833 138.081 204.384 138.04 204.935C137.989 205.55 137.796 206.145 137.476 206.673C137.174 207.223 136.753 207.7 136.244 208.068C135.808 208.382 135.294 208.567 134.759 208.603C134.237 208.638 133.718 208.508 133.274 208.231C132.948 208.052 132.664 207.804 132.443 207.504C132.157 207.122 131.936 206.696 131.789 206.242C131.551 205.548 131.357 204.838 131.21 204.119L130.72 202.204L128.672 205.737L127.187 204.891L130.617 198.863Z" fill="#C628B3"/>
<path d="M124.321 209.345C124.676 208.696 125.227 208.177 125.895 207.86C126.57 207.542 127.325 207.434 128.063 207.548C128.985 207.694 129.868 208.022 130.661 208.514C131.474 208.95 132.191 209.546 132.769 210.265C133.243 210.84 133.524 211.55 133.572 212.293C133.62 213.037 133.433 213.777 133.037 214.408C132.664 215.037 132.125 215.551 131.478 215.892C130.807 216.209 130.057 216.318 129.325 216.204C128.409 216.064 127.53 215.741 126.741 215.254C125.918 214.813 125.191 214.213 124.604 213.487C124.137 212.904 123.853 212.197 123.787 211.453C123.74 210.712 123.927 209.974 124.321 209.345ZM125.806 210.191C125.659 210.427 125.58 210.7 125.58 210.978C125.58 211.256 125.659 211.529 125.806 211.765C126.294 212.485 126.958 213.068 127.736 213.458C128.268 213.78 128.843 214.024 129.444 214.185C129.861 214.305 130.303 214.305 130.72 214.185C130.89 214.134 131.049 214.05 131.186 213.938C131.324 213.826 131.438 213.688 131.522 213.532C131.653 213.306 131.721 213.05 131.721 212.789C131.721 212.529 131.653 212.273 131.522 212.047C131.046 211.332 130.391 210.753 129.622 210.369C129.083 210.036 128.498 209.786 127.885 209.627C127.461 209.516 127.016 209.516 126.593 209.627C126.275 209.722 125.998 209.921 125.806 210.191Z" fill="#C628B3"/>
<path d="M123.594 224.875C123.752 224.948 123.924 224.986 124.099 224.986C124.273 224.986 124.445 224.948 124.603 224.875C124.977 224.689 125.279 224.387 125.465 224.014C125.61 223.764 125.715 223.494 125.776 223.212C125.832 222.998 125.832 222.773 125.776 222.559C125.697 222.369 125.556 222.212 125.376 222.113C125.242 222.029 125.088 221.983 124.93 221.98C124.769 221.991 124.612 222.037 124.47 222.113C124.312 222.197 124.162 222.296 124.024 222.41C123.861 222.544 123.713 222.692 123.564 222.841L122.955 223.494C122.679 223.798 122.37 224.072 122.035 224.311C121.742 224.532 121.416 224.707 121.07 224.83C120.745 224.939 120.4 224.974 120.06 224.934C119.608 224.88 119.175 224.717 118.8 224.458C118.425 224.199 118.119 223.853 117.907 223.45C117.681 222.937 117.603 222.371 117.685 221.816C117.782 221.132 118.02 220.475 118.383 219.886C118.72 219.27 119.174 218.726 119.719 218.283C120.196 217.909 120.776 217.69 121.381 217.656C121.986 217.621 122.587 217.773 123.104 218.09L122.109 219.812C121.852 219.669 121.555 219.612 121.263 219.649C120.985 219.684 120.722 219.797 120.506 219.975C120.256 220.185 120.045 220.436 119.882 220.718C119.724 220.988 119.618 221.285 119.57 221.594C119.502 221.831 119.502 222.084 119.57 222.321C119.659 222.525 119.81 222.697 120.001 222.811C120.174 222.917 120.381 222.954 120.58 222.915C120.801 222.865 121.008 222.769 121.189 222.633C121.437 222.438 121.67 222.224 121.886 221.995L122.644 221.208C123.129 220.662 123.741 220.244 124.425 219.99C124.729 219.893 125.051 219.866 125.367 219.91C125.683 219.953 125.985 220.067 126.252 220.243C126.738 220.5 127.125 220.913 127.35 221.416C127.579 221.933 127.662 222.503 127.588 223.064C127.513 223.715 127.301 224.342 126.964 224.905C126.658 225.487 126.227 225.994 125.702 226.389C125.266 226.709 124.754 226.909 124.217 226.968C123.699 226.996 123.183 226.872 122.733 226.612L123.594 224.875Z" fill="#C628B3"/>
<path d="M115.859 224.429L124.277 229.284L122.347 232.61C122.044 233.188 121.593 233.675 121.04 234.021C120.565 234.321 120.014 234.481 119.452 234.481C118.854 234.459 118.271 234.285 117.759 233.976C117.239 233.683 116.8 233.264 116.482 232.759C116.197 232.269 116.063 231.706 116.096 231.14C116.144 230.479 116.348 229.838 116.69 229.27L117.907 227.161L119.392 227.978L118.338 229.819C118.161 230.107 118.055 230.432 118.026 230.769C118.021 231.046 118.093 231.318 118.234 231.556C118.399 231.796 118.617 231.995 118.873 232.135C119.125 232.288 119.41 232.379 119.704 232.402C119.982 232.403 120.255 232.326 120.491 232.18C120.764 231.977 120.992 231.719 121.159 231.422L121.842 230.22L114.894 226.211L115.859 224.429Z" fill="#C628B3"/>
<path d="M118.917 238.564L110.499 233.694L111.523 231.927L119.942 236.782L118.917 238.564Z" fill="#C628B3"/>
<path d="M114.003 247.071L105.585 242.201L106.475 240.717L113.899 240.108L108.598 237.049L109.623 235.268L118.041 240.138L117.135 241.622L109.712 242.201L114.997 245.245L114.003 247.071Z" fill="#C628B3"/>
<path d="M104.486 253.841C103.66 253.394 102.957 252.752 102.437 251.971C102.01 251.29 101.784 250.503 101.784 249.699C101.793 248.887 102.018 248.093 102.437 247.398C102.837 246.687 103.415 246.094 104.115 245.675C104.81 245.281 105.602 245.09 106.401 245.126C107.337 245.179 108.246 245.465 109.044 245.958C109.862 246.409 110.56 247.05 111.078 247.828C111.513 248.5 111.74 249.285 111.731 250.085C111.722 250.897 111.497 251.691 111.078 252.386C110.684 253.096 110.111 253.69 109.415 254.109C108.724 254.515 107.929 254.711 107.129 254.673C106.194 254.613 105.287 254.328 104.486 253.841ZM105.525 252.03C106.033 252.342 106.599 252.549 107.188 252.639C107.649 252.703 108.119 252.631 108.539 252.431C108.949 252.219 109.286 251.888 109.504 251.481C109.754 251.088 109.873 250.627 109.843 250.162C109.814 249.698 109.638 249.255 109.341 248.897C108.976 248.425 108.516 248.036 107.99 247.754C107.486 247.447 106.926 247.245 106.342 247.16C105.876 247.095 105.401 247.168 104.976 247.368C104.566 247.574 104.229 247.9 104.011 248.303C103.768 248.701 103.654 249.164 103.683 249.628C103.713 250.093 103.884 250.537 104.174 250.902C104.543 251.366 105.003 251.75 105.525 252.03ZM112.147 252.164L113.513 254.123L112.577 255.742L111.434 253.411L112.147 252.164Z" fill="#C628B3"/>
<path d="M98.6064 254.302L108.42 256.751L107.292 258.696L100.64 256.707L105.599 261.621L104.634 263.284L97.8938 261.428V261.502L102.957 266.283L101.828 268.228L94.8056 260.968L95.8152 259.231L102.229 260.805V260.73L97.5968 256.039L98.6064 254.302Z" fill="#C628B3"/>
<path d="M154.401 215.863C154.395 215.244 154.521 214.631 154.773 214.066C155.004 213.571 155.357 213.143 155.797 212.819C156.234 212.517 156.751 212.351 157.282 212.344V214.333C157.105 214.341 156.932 214.388 156.776 214.47C156.619 214.552 156.483 214.668 156.376 214.809C156.139 215.108 156.013 215.481 156.02 215.863C156.016 216.163 156.088 216.459 156.228 216.724C156.381 216.963 156.589 217.162 156.836 217.303C157.112 217.444 157.418 217.516 157.727 217.511C158.043 217.516 158.355 217.439 158.633 217.288C158.887 217.15 159.098 216.945 159.242 216.694C159.38 216.428 159.456 216.133 159.464 215.833C159.464 215.546 159.403 215.263 159.286 215.002C159.182 214.753 159.013 214.538 158.796 214.378L159.138 212.552L164.26 213.012V218.951H162.582V214.705L160.147 214.452C160.405 214.657 160.609 214.922 160.741 215.224C160.899 215.59 160.98 215.984 160.979 216.382C160.989 216.935 160.845 217.481 160.563 217.956C160.277 218.431 159.868 218.82 159.379 219.081C158.891 219.342 158.34 219.467 157.787 219.441C157.172 219.462 156.564 219.307 156.035 218.995C155.527 218.685 155.111 218.244 154.832 217.719C154.545 217.142 154.398 216.507 154.401 215.863Z" fill="white"/>
<path d="M161.439 229.344C161.617 229.335 161.791 229.287 161.948 229.202C162.104 229.117 162.24 228.998 162.345 228.854C162.57 228.511 162.679 228.105 162.656 227.696C162.664 227.403 162.619 227.111 162.523 226.835C162.44 226.628 162.301 226.448 162.122 226.315C161.964 226.193 161.772 226.125 161.572 226.122C161.41 226.113 161.25 226.155 161.112 226.241C160.979 226.322 160.867 226.434 160.786 226.567C160.681 226.725 160.596 226.894 160.533 227.072C160.468 227.267 160.414 227.465 160.37 227.666L160.147 228.542C160.068 228.941 159.944 229.33 159.776 229.7C159.629 230.034 159.434 230.344 159.197 230.621C158.96 230.89 158.667 231.104 158.339 231.248C158.011 231.391 157.655 231.461 157.297 231.452C156.768 231.455 156.252 231.299 155.812 231.007C155.364 230.676 155.015 230.229 154.802 229.715C154.55 229.067 154.429 228.376 154.446 227.681C154.43 226.981 154.551 226.285 154.802 225.632C155.012 225.083 155.385 224.612 155.871 224.281C156.396 223.937 157.011 223.756 157.638 223.761V225.766C157.344 225.777 157.06 225.875 156.821 226.048C156.598 226.22 156.428 226.451 156.331 226.716C156.222 227.021 156.167 227.342 156.168 227.666C156.159 227.98 156.21 228.292 156.317 228.587C156.403 228.82 156.552 229.026 156.747 229.181C156.919 229.321 157.135 229.395 157.356 229.388C157.562 229.397 157.763 229.329 157.92 229.195C158.084 229.043 158.211 228.855 158.291 228.646C158.407 228.351 158.501 228.049 158.573 227.74L158.841 226.686C158.996 225.974 159.316 225.308 159.776 224.741C159.99 224.504 160.254 224.318 160.55 224.197C160.846 224.076 161.165 224.024 161.483 224.043C162.015 224.033 162.536 224.194 162.968 224.504C163.426 224.844 163.785 225.3 164.007 225.825C164.26 226.427 164.386 227.073 164.379 227.726C164.388 228.373 164.261 229.015 164.007 229.611C163.779 230.117 163.421 230.552 162.968 230.873C162.527 231.165 162.012 231.324 161.483 231.333L161.439 229.344Z" fill="white"/>
<path d="M154.535 232.833H164.26V236.664C164.277 237.318 164.129 237.967 163.829 238.549C163.568 239.05 163.165 239.463 162.671 239.737C162.146 240.016 161.559 240.159 160.964 240.153C160.366 240.164 159.777 240.015 159.256 239.722C158.758 239.446 158.355 239.027 158.098 238.519C157.809 237.923 157.667 237.267 157.683 236.604V234.169H159.331V236.278C159.319 236.616 159.39 236.953 159.538 237.257C159.668 237.505 159.87 237.707 160.117 237.836C160.381 237.964 160.671 238.03 160.964 238.03C161.257 238.03 161.546 237.964 161.81 237.836C162.048 237.699 162.243 237.499 162.374 237.257C162.52 236.947 162.591 236.606 162.582 236.263V234.882H154.535V232.833Z" fill="white"/>
<path d="M164.26 243.582H154.535V241.533H164.26V243.582Z" fill="white"/>
<path d="M164.26 253.366H154.535V251.585L160.652 247.353H154.535V245.289H164.26V247.101L158.143 251.288V251.377H164.26V253.366Z" fill="white"/>
<path d="M159.39 263.982C158.454 264.012 157.525 263.808 156.688 263.388C155.979 263.017 155.391 262.45 154.995 261.755C154.595 261.05 154.39 260.25 154.401 259.439C154.382 258.622 154.587 257.816 154.995 257.108C155.397 256.412 155.99 255.845 156.703 255.475C157.537 255.062 158.459 254.858 159.39 254.881C160.33 254.857 161.262 255.061 162.107 255.475C162.816 255.845 163.404 256.412 163.8 257.108C164.208 257.816 164.413 258.622 164.393 259.439C164.405 260.25 164.2 261.05 163.8 261.755C163.404 262.45 162.816 263.017 162.107 263.388C161.265 263.809 160.331 264.013 159.39 263.982ZM159.39 261.903C159.985 261.923 160.576 261.817 161.127 261.592C161.442 261.454 161.723 261.25 161.952 260.994C162.181 260.738 162.353 260.436 162.456 260.108C162.558 259.781 162.59 259.435 162.547 259.094C162.505 258.753 162.39 258.425 162.211 258.132C161.94 257.747 161.564 257.448 161.127 257.271C160.011 256.856 158.784 256.856 157.668 257.271C157.231 257.448 156.855 257.747 156.584 258.132C156.389 258.421 156.261 258.75 156.21 259.094C156.16 259.439 156.187 259.791 156.292 260.123C156.396 260.456 156.574 260.761 156.812 261.015C157.05 261.269 157.343 261.466 157.668 261.592C158.214 261.815 158.8 261.922 159.39 261.903ZM165.195 258.711L167.348 259.721V261.577L165.195 260.092V258.711Z" fill="white"/>
<path d="M154.535 267.337L164.26 264.561V266.803L157.504 268.406V268.495L164.26 270.307V272.237L157.49 274.004V274.093L164.26 275.696V277.938L154.535 275.162V273.157L160.89 271.301L154.535 269.46V267.337Z" fill="white"/>
<path d="M190.287 202.486L181.868 207.341L180.844 205.559L187.57 201.684L185.253 200.452L186.827 199.531L189.351 200.853L190.287 202.486Z" fill="#0E5DF8"/>
<path d="M184.749 212.76C184.351 212.121 184.164 211.373 184.214 210.622C184.281 209.878 184.565 209.171 185.031 208.588C185.623 207.866 186.349 207.266 187.169 206.821C187.958 206.336 188.836 206.013 189.752 205.871C190.486 205.769 191.234 205.883 191.905 206.197C192.531 206.541 193.046 207.056 193.39 207.682C193.784 208.311 193.971 209.048 193.923 209.789C193.875 210.53 193.595 211.237 193.122 211.81C192.545 212.534 191.828 213.135 191.014 213.576C190.219 214.061 189.336 214.384 188.416 214.527C187.681 214.663 186.921 214.562 186.247 214.236C185.574 213.91 185.023 213.377 184.674 212.715L184.749 212.76ZM186.233 211.899C186.372 212.141 186.577 212.34 186.824 212.471C187.071 212.602 187.35 212.661 187.629 212.641C188.492 212.57 189.324 212.284 190.049 211.81C190.599 211.513 191.1 211.132 191.534 210.681C191.845 210.382 192.067 210.001 192.172 209.582C192.215 209.41 192.223 209.23 192.195 209.054C192.167 208.878 192.104 208.709 192.009 208.558C191.869 208.321 191.666 208.127 191.422 207.998C191.178 207.87 190.903 207.812 190.628 207.831C189.77 207.884 188.941 208.161 188.223 208.632C187.679 208.94 187.18 209.319 186.738 209.761C186.425 210.067 186.199 210.451 186.085 210.874C185.994 211.22 186.042 211.588 186.218 211.899H186.233Z" fill="#0E5DF8"/>
<path d="M197.829 221.148C197.976 221.049 198.099 220.92 198.192 220.769C198.284 220.618 198.342 220.448 198.363 220.272C198.378 219.859 198.27 219.451 198.052 219.1C197.903 218.85 197.718 218.625 197.502 218.431C197.333 218.292 197.126 218.204 196.908 218.179C196.707 218.15 196.503 218.192 196.329 218.298C196.182 218.366 196.062 218.481 195.988 218.624C195.91 218.76 195.87 218.914 195.869 219.07C195.847 219.252 195.847 219.437 195.869 219.619C195.904 219.825 195.954 220.029 196.017 220.228L196.27 221.089C196.398 221.48 196.488 221.883 196.537 222.292C196.582 222.651 196.582 223.016 196.537 223.375C196.467 223.713 196.325 224.032 196.121 224.311C195.908 224.612 195.628 224.86 195.305 225.038C194.835 225.319 194.292 225.453 193.746 225.424C193.205 225.362 192.691 225.151 192.261 224.816C191.722 224.377 191.273 223.837 190.94 223.227C190.583 222.629 190.341 221.969 190.227 221.282C190.137 220.696 190.225 220.096 190.48 219.56C190.761 219.009 191.201 218.554 191.742 218.253L192.736 219.961C192.495 220.118 192.305 220.342 192.189 220.606C192.073 220.869 192.036 221.161 192.083 221.445C192.14 221.766 192.256 222.073 192.425 222.351C192.569 222.624 192.765 222.867 193.004 223.064C193.201 223.215 193.429 223.322 193.672 223.375C193.894 223.406 194.119 223.359 194.31 223.242C194.401 223.197 194.482 223.135 194.548 223.058C194.615 222.982 194.665 222.893 194.696 222.796C194.751 222.577 194.751 222.348 194.696 222.128C194.66 221.816 194.596 221.508 194.503 221.208L194.191 220.154C193.97 219.458 193.919 218.72 194.043 218.001C194.107 217.684 194.241 217.386 194.437 217.129C194.632 216.872 194.883 216.662 195.171 216.516C195.64 216.222 196.194 216.092 196.745 216.145C197.285 216.224 197.796 216.438 198.23 216.769C198.75 217.17 199.18 217.675 199.492 218.253C199.839 218.805 200.052 219.43 200.115 220.079C200.182 220.627 200.094 221.182 199.863 221.683C199.625 222.177 199.241 222.586 198.764 222.856L197.829 221.148Z" fill="#0E5DF8"/>
<path d="M193.568 227.622L201.986 222.767L203.901 226.077C204.245 226.633 204.444 227.266 204.48 227.919C204.5 228.487 204.355 229.048 204.065 229.537C203.756 230.041 203.321 230.455 202.803 230.739C202.29 231.048 201.708 231.222 201.11 231.244C200.541 231.243 199.985 231.078 199.507 230.769C198.954 230.386 198.502 229.877 198.185 229.284L196.968 227.176L198.452 226.345L199.507 228.186C199.674 228.478 199.902 228.731 200.175 228.928C200.411 229.074 200.684 229.146 200.962 229.136C201.257 229.131 201.545 229.043 201.793 228.884C202.052 228.742 202.272 228.538 202.431 228.29C202.578 228.054 202.651 227.78 202.639 227.503C202.603 227.166 202.491 226.841 202.313 226.553L201.615 225.35L194.666 229.374L193.568 227.622Z" fill="#0E5DF8"/>
<path d="M207.346 232.031L198.928 236.901L197.903 235.119L206.321 230.264L207.346 232.031Z" fill="#0E5DF8"/>
<path d="M212.26 240.613L203.842 245.483L202.951 243.998L206.128 237.272L200.828 240.331L199.803 238.549L208.222 233.694L209.127 235.179L205.92 241.875L211.221 238.816L212.26 240.613Z" fill="#0E5DF8"/>
<path d="M213.403 252.179C212.602 252.665 211.696 252.95 210.761 253.01C209.96 253.041 209.168 252.845 208.474 252.446C207.786 252.018 207.215 251.427 206.811 250.725C206.407 250.023 206.183 249.232 206.158 248.422C206.149 247.622 206.376 246.837 206.811 246.166C207.323 245.377 208.028 244.733 208.86 244.295C209.65 243.796 210.555 243.509 211.488 243.463C212.288 243.418 213.083 243.609 213.774 244.013C214.474 244.431 215.053 245.025 215.452 245.735C215.871 246.43 216.096 247.225 216.105 248.036C216.096 248.839 215.871 249.623 215.452 250.308C214.932 251.089 214.229 251.732 213.403 252.179ZM212.364 250.367C212.886 250.087 213.346 249.703 213.715 249.239C214.004 248.867 214.174 248.417 214.205 247.947C214.22 247.49 214.108 247.038 213.879 246.642C213.651 246.246 213.316 245.921 212.913 245.705C212.49 245.498 212.013 245.425 211.547 245.497C210.964 245.582 210.403 245.784 209.899 246.091C209.373 246.373 208.913 246.763 208.548 247.235C208.254 247.599 208.078 248.044 208.044 248.511C208.02 248.972 208.14 249.428 208.385 249.818C208.603 250.225 208.94 250.556 209.35 250.768C209.77 250.968 210.24 251.041 210.701 250.976C211.275 250.881 211.825 250.674 212.319 250.367H212.364ZM215.794 244.711L218.154 244.503L219.09 246.121L216.506 245.943L215.794 244.711Z" fill="#0E5DF8"/>
<path d="M210.82 257.494L217.843 250.234L218.971 252.178L213.923 256.944L220.664 255.118L221.614 256.781L216.64 261.695L223.306 259.706L224.435 261.651L214.621 264.101L213.626 262.364L218.199 257.583L211.785 259.157L210.82 257.494Z" fill="#0E5DF8"/>
<path d="M208.029 181.225L203.174 189.643L201.392 188.604L205.267 181.878L202.639 181.982L203.545 180.408L206.396 180.289L208.029 181.225Z" fill="white"/>
<path d="M208.177 192.627C207.638 192.326 207.172 191.911 206.811 191.41C206.499 190.97 206.3 190.46 206.232 189.925C206.2 189.408 206.319 188.892 206.574 188.44L208.296 189.435C208.219 189.598 208.179 189.775 208.179 189.955C208.179 190.134 208.219 190.312 208.296 190.474C208.44 190.825 208.696 191.117 209.023 191.306C209.282 191.453 209.573 191.534 209.87 191.543C210.159 191.546 210.443 191.463 210.686 191.306C210.951 191.144 211.167 190.913 211.31 190.638C211.468 190.371 211.56 190.071 211.577 189.762C211.582 189.459 211.505 189.161 211.353 188.9C211.201 188.638 210.981 188.423 210.716 188.277C210.473 188.127 210.199 188.036 209.914 188.01C209.652 187.975 209.386 188.011 209.142 188.114L207.658 186.926L210.627 182.709L215.779 185.679L214.947 187.164L211.265 185.04L209.781 187.03C210.087 186.891 210.428 186.844 210.761 186.896C211.154 186.938 211.534 187.065 211.874 187.268C212.356 187.537 212.756 187.932 213.032 188.411C213.283 188.865 213.411 189.377 213.403 189.895C213.376 190.496 213.202 191.08 212.896 191.598C212.591 192.115 212.164 192.55 211.651 192.865C211.13 193.151 210.538 193.285 209.944 193.251C209.314 193.188 208.708 192.974 208.177 192.627Z" fill="white"/>
<path d="M223.38 193.251C223.457 193.094 223.496 192.921 223.496 192.746C223.496 192.571 223.457 192.399 223.38 192.241C223.19 191.871 222.889 191.57 222.519 191.38C222.272 191.23 222.001 191.125 221.718 191.068C221.497 191.038 221.272 191.063 221.064 191.143C220.881 191.226 220.73 191.367 220.634 191.543C220.536 191.671 220.489 191.829 220.5 191.989C220.504 192.149 220.545 192.307 220.619 192.449C220.706 192.614 220.81 192.768 220.931 192.909C221.062 193.069 221.206 193.218 221.361 193.355L222.015 193.964C222.311 194.248 222.584 194.556 222.831 194.884C223.048 195.178 223.218 195.503 223.336 195.849C223.442 196.174 223.482 196.518 223.455 196.859C223.415 197.227 223.293 197.583 223.098 197.898C222.839 198.382 222.434 198.771 221.94 199.012C221.432 199.236 220.872 199.313 220.322 199.234C219.633 199.137 218.971 198.9 218.377 198.536C217.762 198.204 217.221 197.749 216.788 197.2C216.422 196.741 216.199 196.183 216.15 195.597C216.12 194.974 216.269 194.355 216.581 193.815L218.303 194.81C218.166 195.07 218.109 195.364 218.139 195.656C218.184 195.934 218.302 196.196 218.481 196.413C218.684 196.669 218.936 196.882 219.223 197.037C219.487 197.197 219.78 197.303 220.084 197.349C220.322 197.418 220.574 197.418 220.812 197.349C221.026 197.269 221.205 197.117 221.317 196.918C221.415 196.742 221.451 196.538 221.421 196.339C221.365 196.118 221.264 195.91 221.124 195.73C220.932 195.484 220.718 195.255 220.485 195.047L219.698 194.275C219.157 193.795 218.744 193.188 218.496 192.509C218.397 192.203 218.366 191.88 218.408 191.561C218.449 191.243 218.56 190.938 218.733 190.668C218.996 190.179 219.414 189.793 219.921 189.569C220.44 189.345 221.008 189.263 221.569 189.331C222.216 189.403 222.839 189.616 223.395 189.955C223.976 190.263 224.482 190.694 224.88 191.217C225.2 191.653 225.399 192.164 225.459 192.702C225.489 193.246 225.36 193.788 225.088 194.26L223.38 193.251Z" fill="white"/>
<path d="M222.935 200.986L227.79 192.583L231.116 194.498C231.716 194.796 232.228 195.247 232.6 195.805C232.906 196.277 233.062 196.831 233.046 197.393C233.024 197.991 232.85 198.573 232.541 199.086C232.252 199.609 231.833 200.049 231.324 200.363C230.835 200.649 230.271 200.784 229.705 200.749C229.048 200.702 228.412 200.499 227.849 200.155L225.726 198.937L226.558 197.453L228.384 198.507C228.672 198.683 228.997 198.79 229.334 198.819C229.611 198.824 229.883 198.752 230.121 198.611C230.366 198.447 230.569 198.228 230.715 197.972C230.864 197.719 230.951 197.434 230.967 197.141C230.981 196.861 230.903 196.585 230.745 196.354C230.549 196.074 230.29 195.845 229.987 195.686L228.8 195.003L224.717 202.011L222.935 200.986Z" fill="white"/>
<path d="M237.069 197.928L232.214 206.346L230.433 205.321L235.288 196.903L237.069 197.928Z" fill="white"/>
<path d="M245.577 202.842L240.722 211.26L239.237 210.369L238.643 202.946H238.569L235.51 208.232L233.744 207.207L238.599 198.789L240.083 199.694L240.662 207.118L243.721 201.818L245.577 202.842Z" fill="white"/>
<path d="M252.347 212.403C251.9 213.229 251.258 213.932 250.476 214.452C249.797 214.883 249.009 215.11 248.205 215.106C247.398 215.077 246.61 214.851 245.912 214.447C245.213 214.044 244.623 213.474 244.196 212.789C243.792 212.092 243.596 211.293 243.632 210.488C243.716 209.559 244.001 208.66 244.468 207.852C244.934 207.045 245.571 206.348 246.334 205.811C247.006 205.376 247.791 205.149 248.591 205.158C249.401 205.179 250.194 205.401 250.896 205.806C251.599 206.21 252.189 206.784 252.614 207.474C253.02 208.165 253.216 208.96 253.178 209.761C253.125 210.697 252.839 211.605 252.347 212.403ZM250.551 211.364C250.86 210.856 251.063 210.29 251.144 209.701C251.215 209.24 251.143 208.769 250.937 208.35C250.735 207.938 250.407 207.6 250.001 207.385C249.606 207.134 249.142 207.015 248.675 207.044C248.209 207.073 247.763 207.25 247.403 207.548C246.939 207.918 246.555 208.377 246.275 208.9C245.964 209.403 245.757 209.963 245.666 210.548C245.601 211.013 245.673 211.488 245.874 211.913C246.098 212.314 246.426 212.647 246.823 212.877C247.22 213.106 247.672 213.225 248.13 213.22C248.597 213.183 249.042 213.007 249.407 212.715C249.869 212.33 250.248 211.855 250.521 211.32L250.551 211.364ZM250.684 204.742L252.629 203.376L254.247 204.312L251.916 205.455L250.684 204.742Z" fill="white"/>
<path d="M252.807 218.238L255.257 208.439L257.202 209.553L255.227 216.204L260.142 211.245L261.804 212.21L259.963 218.951L264.744 213.888L266.674 215.017L259.414 222.039L257.677 221.044L259.251 214.616L254.47 219.203L252.807 218.238Z" fill="white"/>
<path d="M217.412 163.676C216.764 163.691 216.12 163.564 215.526 163.304C215.008 163.092 214.556 162.743 214.22 162.295C213.91 161.861 213.739 161.343 213.73 160.81H215.794C215.802 161.038 215.886 161.258 216.031 161.434C216.188 161.617 216.386 161.76 216.61 161.849C216.871 161.948 217.148 161.999 217.427 161.998C217.709 162.004 217.989 161.943 218.243 161.82C218.474 161.727 218.674 161.573 218.822 161.374C218.953 161.171 219.02 160.933 219.015 160.691C219.017 160.443 218.945 160.2 218.808 159.994C218.644 159.788 218.429 159.629 218.184 159.533C217.883 159.408 217.56 159.347 217.234 159.355H216.373V157.87H217.278C217.564 157.88 217.849 157.824 218.11 157.707C218.332 157.614 218.522 157.46 218.659 157.262C218.758 157.122 218.825 156.962 218.855 156.793C218.885 156.625 218.878 156.451 218.834 156.286C218.79 156.12 218.711 155.966 218.601 155.835C218.491 155.703 218.354 155.597 218.199 155.525C217.979 155.412 217.734 155.356 217.486 155.361C217.221 155.356 216.958 155.407 216.714 155.51C216.493 155.597 216.303 155.747 216.165 155.94C216.017 156.12 215.938 156.346 215.942 156.579H213.968C213.968 156.047 214.134 155.528 214.443 155.094C214.77 154.659 215.205 154.316 215.705 154.099C216.265 153.848 216.873 153.722 217.486 153.728C218.095 153.72 218.699 153.847 219.253 154.099C219.726 154.312 220.132 154.651 220.426 155.079C220.705 155.49 220.851 155.978 220.842 156.475C220.859 156.974 220.678 157.46 220.337 157.826C219.985 158.205 219.513 158.451 219.001 158.524C219.62 158.569 220.204 158.832 220.649 159.266C221.015 159.672 221.212 160.204 221.198 160.751C221.21 161.285 221.043 161.808 220.723 162.235C220.372 162.676 219.918 163.023 219.401 163.245C218.775 163.524 218.098 163.67 217.412 163.676Z" fill="#3B92E0"/>
<path d="M231.056 156.623C231.048 156.447 231.001 156.275 230.919 156.118C230.837 155.962 230.721 155.825 230.581 155.718C230.232 155.494 229.822 155.385 229.408 155.406C229.116 155.398 228.824 155.444 228.547 155.54C228.34 155.622 228.16 155.761 228.028 155.94C227.927 156.09 227.874 156.265 227.874 156.445C227.874 156.625 227.927 156.801 228.028 156.95C228.109 157.083 228.221 157.195 228.354 157.277C228.511 157.381 228.681 157.466 228.859 157.529L229.453 157.692L230.329 157.9C230.727 157.991 231.114 158.12 231.487 158.286C231.82 158.433 232.13 158.628 232.407 158.865C232.677 159.102 232.891 159.395 233.034 159.723C233.178 160.052 233.248 160.407 233.239 160.766C233.242 161.296 233.082 161.815 232.779 162.25C232.455 162.699 232.013 163.049 231.502 163.26C230.854 163.512 230.163 163.634 229.468 163.616C228.768 163.632 228.072 163.511 227.419 163.26C226.87 163.05 226.399 162.677 226.068 162.191C225.724 161.666 225.543 161.052 225.548 160.424H227.538C227.549 160.718 227.647 161.003 227.82 161.241C227.991 161.464 228.223 161.634 228.488 161.731C228.792 161.841 229.114 161.897 229.438 161.894C229.752 161.903 230.064 161.853 230.359 161.746C230.592 161.659 230.797 161.51 230.952 161.315C231.093 161.144 231.166 160.928 231.16 160.706C231.169 160.501 231.1 160.299 230.967 160.142C230.815 159.979 230.627 159.852 230.418 159.771C230.123 159.655 229.821 159.561 229.512 159.489L228.458 159.222C227.746 159.066 227.079 158.746 226.513 158.286C226.276 158.072 226.09 157.808 225.969 157.512C225.848 157.217 225.796 156.898 225.815 156.579C225.805 156.047 225.966 155.526 226.276 155.094C226.616 154.636 227.072 154.278 227.597 154.055C228.198 153.802 228.845 153.676 229.497 153.684C230.145 153.675 230.787 153.801 231.383 154.055C231.893 154.276 232.33 154.636 232.645 155.094C232.937 155.535 233.096 156.05 233.105 156.579L231.056 156.623Z" fill="#3B92E0"/>
<path d="M234.545 163.542V153.817H238.376C239.031 153.8 239.679 153.948 240.261 154.248C240.762 154.509 241.175 154.912 241.449 155.406C241.729 155.931 241.872 156.518 241.865 157.113C241.876 157.711 241.727 158.3 241.434 158.821C241.153 159.314 240.735 159.716 240.232 159.979C239.636 160.268 238.979 160.411 238.317 160.394H235.882V158.746H237.99C238.329 158.758 238.665 158.687 238.97 158.539C239.217 158.409 239.42 158.207 239.549 157.96C239.676 157.696 239.743 157.406 239.743 157.113C239.743 156.82 239.676 156.531 239.549 156.267C239.412 156.029 239.211 155.834 238.97 155.703C238.659 155.557 238.318 155.486 237.975 155.495H236.594V163.542H234.545Z" fill="#3B92E0"/>
<path d="M245.25 153.817V163.542H243.201V153.817H245.25Z" fill="#3B92E0"/>
<path d="M255.079 153.817V163.542H253.297L249.036 157.47V163.587H246.987V153.862H248.799L252.985 159.979H253.074V153.862L255.079 153.817Z" fill="#3B92E0"/>
<path d="M265.694 158.687C265.724 159.623 265.52 160.552 265.101 161.389C264.73 162.098 264.163 162.686 263.467 163.082C262.755 163.472 261.956 163.676 261.144 163.676C260.332 163.676 259.533 163.472 258.82 163.082C258.124 162.68 257.558 162.087 257.187 161.374C256.774 160.54 256.571 159.618 256.593 158.687C256.569 157.747 256.773 156.815 257.187 155.97C257.558 155.261 258.125 154.673 258.82 154.277C259.533 153.888 260.332 153.683 261.144 153.683C261.956 153.683 262.755 153.888 263.467 154.277C264.163 154.673 264.73 155.261 265.101 155.97C265.522 156.812 265.726 157.746 265.694 158.687ZM263.616 158.687C263.635 158.093 263.529 157.501 263.304 156.95C263.166 156.635 262.962 156.354 262.706 156.125C262.451 155.896 262.149 155.724 261.821 155.622C261.493 155.519 261.147 155.488 260.806 155.53C260.465 155.572 260.138 155.687 259.845 155.866C259.459 156.137 259.16 156.513 258.984 156.95C258.764 157.502 258.663 158.094 258.687 158.687C258.666 159.28 258.767 159.872 258.984 160.424C259.164 160.854 259.463 161.225 259.845 161.493C260.133 161.686 260.461 161.812 260.804 161.862C261.147 161.912 261.498 161.885 261.829 161.783C262.161 161.68 262.465 161.505 262.72 161.27C262.975 161.035 263.175 160.746 263.304 160.424C263.526 159.873 263.633 159.281 263.616 158.687ZM260.424 152.882L261.433 150.729H263.289L261.805 152.882H260.424Z" fill="#3B92E0"/>
<path d="M269.035 163.542L266.259 153.817H268.5L270.104 160.573H270.193L271.96 153.817H273.89L275.657 160.588H275.761L277.364 153.817H279.606L276.83 163.542H274.825L272.984 157.188H272.895L271.054 163.542H269.035Z" fill="#3B92E0"/>
<path d="M204.332 138.317L203.589 137.04L204.985 132.586C205.089 132.185 205.178 131.844 205.237 131.547C205.28 131.276 205.28 131.001 205.237 130.73C205.223 130.483 205.146 130.243 205.015 130.032C204.892 129.806 204.707 129.62 204.48 129.498C204.267 129.381 204.025 129.329 203.782 129.349C203.519 129.364 203.263 129.446 203.04 129.587C202.801 129.713 202.596 129.896 202.446 130.121C202.328 130.34 202.267 130.585 202.268 130.834C202.285 131.113 202.372 131.384 202.52 131.621L200.828 132.586C200.516 132.094 200.356 131.521 200.368 130.938C200.394 130.406 200.569 129.891 200.872 129.453C201.228 128.944 201.696 128.523 202.238 128.221C202.774 127.903 203.371 127.7 203.99 127.627C204.526 127.578 205.065 127.676 205.549 127.909C206.022 128.149 206.41 128.527 206.663 128.993C206.856 129.31 206.977 129.664 207.019 130.032C207.106 130.523 207.106 131.026 207.019 131.517C206.871 132.24 206.683 132.954 206.455 133.655L205.92 135.57L209.454 133.521L210.3 135.006L204.332 138.317Z" fill="white"/>
<path d="M215.022 132.393C214.387 132.793 213.642 132.98 212.894 132.926C212.147 132.873 211.435 132.582 210.864 132.096C210.136 131.517 209.534 130.795 209.098 129.973C208.613 129.183 208.29 128.305 208.147 127.39C208.02 126.656 208.13 125.9 208.461 125.232C208.792 124.565 209.327 124.02 209.988 123.678C210.62 123.282 211.359 123.095 212.103 123.143C212.846 123.191 213.556 123.471 214.131 123.945C214.859 124.519 215.46 125.236 215.898 126.053C216.385 126.847 216.708 127.731 216.848 128.652C216.96 129.388 216.857 130.14 216.551 130.819C216.216 131.489 215.682 132.039 215.022 132.393ZM214.175 130.908C214.415 130.767 214.611 130.562 214.739 130.315C214.868 130.068 214.925 129.79 214.903 129.513C214.846 128.642 214.559 127.802 214.071 127.078C213.77 126.534 213.396 126.034 212.958 125.593C212.651 125.292 212.273 125.073 211.859 124.955C211.509 124.884 211.146 124.942 210.835 125.118C210.592 125.257 210.394 125.462 210.262 125.709C210.131 125.956 210.072 126.235 210.092 126.514C210.16 127.371 210.44 128.198 210.909 128.919C211.211 129.466 211.591 129.966 212.037 130.404C212.343 130.718 212.728 130.943 213.151 131.057C213.497 131.136 213.861 131.089 214.175 130.923V130.908Z" fill="white"/>
<path d="M223.41 119.313C223.314 119.166 223.187 119.043 223.039 118.95C222.89 118.858 222.723 118.799 222.549 118.778C222.134 118.749 221.722 118.859 221.376 119.09C221.118 119.226 220.891 119.413 220.708 119.639C220.571 119.812 220.479 120.016 220.441 120.233C220.42 120.434 220.461 120.636 220.56 120.812C220.636 120.953 220.749 121.071 220.886 121.154C221.03 121.224 221.187 121.265 221.346 121.273C221.529 121.294 221.713 121.294 221.896 121.273L222.504 121.124L223.366 120.857C223.759 120.74 224.161 120.656 224.568 120.605C224.927 120.544 225.293 120.544 225.652 120.605C225.987 120.676 226.305 120.812 226.587 121.005C226.885 121.229 227.133 121.512 227.315 121.837C227.582 122.284 227.711 122.801 227.686 123.322C227.635 123.866 227.423 124.382 227.077 124.806C226.641 125.342 226.107 125.79 225.504 126.128C224.9 126.485 224.236 126.727 223.544 126.84C222.962 126.927 222.368 126.839 221.836 126.588C221.284 126.303 220.825 125.865 220.515 125.326L222.237 124.331C222.394 124.58 222.622 124.776 222.891 124.895C223.153 125.004 223.442 125.035 223.722 124.984C224.038 124.928 224.34 124.812 224.613 124.643C224.885 124.497 225.127 124.301 225.325 124.064C225.489 123.874 225.596 123.643 225.637 123.396C225.674 123.171 225.632 122.94 225.518 122.743C225.416 122.573 225.259 122.442 225.073 122.371C224.848 122.318 224.615 122.318 224.39 122.371C224.084 122.422 223.782 122.491 223.484 122.579L222.43 122.876C221.737 123.106 220.998 123.162 220.277 123.039C219.962 122.973 219.665 122.837 219.409 122.642C219.152 122.447 218.942 122.197 218.793 121.911C218.504 121.44 218.379 120.887 218.436 120.337C218.509 119.796 218.724 119.283 219.06 118.853C219.457 118.324 219.963 117.889 220.545 117.576C221.103 117.242 221.725 117.029 222.371 116.952C222.92 116.89 223.475 116.983 223.974 117.219C224.46 117.457 224.863 117.834 225.132 118.303L223.41 119.313Z" fill="white"/>
<path d="M229.898 123.559L225.029 115.156L228.354 113.226C228.915 112.892 229.545 112.694 230.195 112.647C230.758 112.63 231.315 112.774 231.799 113.062C232.304 113.38 232.723 113.819 233.016 114.339C233.327 114.85 233.497 115.434 233.506 116.032C233.51 116.601 233.345 117.159 233.031 117.635C232.657 118.191 232.146 118.641 231.546 118.942L229.423 120.174L228.607 118.689L230.433 117.62C230.734 117.466 230.99 117.236 231.175 116.952C231.336 116.722 231.414 116.445 231.398 116.165C231.375 115.871 231.284 115.586 231.131 115.334C230.99 115.079 230.792 114.86 230.552 114.696C230.312 114.559 230.04 114.493 229.765 114.503C229.421 114.531 229.09 114.644 228.8 114.829L227.612 115.512L231.621 122.475L229.898 123.559Z" fill="white"/>
<path d="M234.308 109.796L239.163 118.214L237.381 119.239L232.526 110.821L234.308 109.796Z" fill="white"/>
<path d="M242.815 104.882L247.67 113.3L246.185 114.191L239.46 110.999L242.518 116.284L240.737 117.323L235.882 108.905L237.441 107.999L244.122 111.192L241.152 105.906L242.815 104.882Z" fill="white"/>
<path d="M254.44 103.783C254.939 104.578 255.226 105.488 255.272 106.426C255.308 107.226 255.112 108.02 254.708 108.712C254.284 109.401 253.696 109.973 252.996 110.377C252.296 110.781 251.507 111.005 250.699 111.028C249.896 111.025 249.109 110.799 248.427 110.375C247.646 109.855 247.003 109.152 246.557 108.326C246.07 107.525 245.785 106.618 245.725 105.683C245.687 104.883 245.883 104.088 246.289 103.397C246.717 102.709 247.308 102.138 248.01 101.734C248.712 101.33 249.503 101.105 250.313 101.081C251.113 101.072 251.898 101.299 252.57 101.734C253.358 102.246 254.002 102.951 254.44 103.783ZM247.017 101.393L246.809 99.0171L248.427 98.0817L248.264 100.68L247.017 101.393ZM252.688 104.822C252.407 104.296 252.017 103.836 251.545 103.471C251.181 103.177 250.735 103.001 250.268 102.966C249.809 102.951 249.355 103.069 248.962 103.308C248.559 103.526 248.232 103.863 248.026 104.273C247.815 104.69 247.737 105.161 247.804 105.624C247.893 106.213 248.1 106.779 248.412 107.287C248.698 107.806 249.081 108.265 249.541 108.638C249.901 108.936 250.347 109.113 250.813 109.142C251.28 109.172 251.744 109.052 252.139 108.801C252.542 108.583 252.869 108.246 253.074 107.836C253.289 107.415 253.362 106.936 253.282 106.47C253.184 105.883 252.967 105.322 252.644 104.822H252.688Z" fill="white"/>
<path d="M259.77 106.322L252.495 99.2843L254.44 98.1708L259.221 103.219L257.38 96.4782L259.043 95.5132L263.972 100.502L261.983 93.8355L263.928 92.7071L266.377 102.521L264.655 103.516L259.874 98.9428L261.463 105.372L259.77 106.322Z" fill="white"/>
<path d="M193.805 110.746C193.501 111.282 193.086 111.748 192.588 112.112C192.15 112.426 191.639 112.62 191.103 112.676C190.587 112.712 190.072 112.598 189.618 112.35L190.613 110.627C190.777 110.701 190.954 110.739 191.133 110.739C191.312 110.739 191.489 110.701 191.653 110.627C192.006 110.482 192.3 110.22 192.484 109.885C192.641 109.631 192.723 109.338 192.722 109.039C192.721 108.754 192.638 108.476 192.484 108.237C192.324 107.976 192.099 107.761 191.831 107.613C191.564 107.444 191.256 107.352 190.94 107.346C190.648 107.332 190.359 107.405 190.108 107.554C189.848 107.708 189.633 107.929 189.485 108.192C189.352 108.443 189.262 108.714 189.218 108.994C189.189 109.261 189.225 109.531 189.322 109.781L188.134 111.266L183.917 108.296L186.887 103.159L188.371 103.991L186.248 107.673L188.238 109.157C188.114 108.852 188.068 108.52 188.104 108.192C188.144 107.794 188.27 107.408 188.475 107.064C188.743 106.585 189.139 106.189 189.618 105.921C190.07 105.664 190.584 105.536 191.103 105.55C191.675 105.562 192.234 105.726 192.722 106.025C193.258 106.321 193.704 106.757 194.013 107.287C194.297 107.809 194.431 108.4 194.399 108.994C194.343 109.617 194.139 110.217 193.805 110.746Z" fill="#3B92E0"/>
<path d="M194.444 95.528C194.284 95.4516 194.109 95.4119 193.931 95.4119C193.754 95.4119 193.579 95.4516 193.419 95.528C193.05 95.7116 192.748 96.008 192.558 96.3743C192.408 96.625 192.307 96.9022 192.261 97.1909C192.2 97.3993 192.2 97.6209 192.261 97.8293C192.345 98.016 192.485 98.1717 192.662 98.2747C192.795 98.3593 192.95 98.4055 193.107 98.4083C193.268 98.4043 193.425 98.3637 193.568 98.2896C193.729 98.1976 193.883 98.0934 194.028 97.9778C194.184 97.8421 194.333 97.6984 194.473 97.5472L195.097 96.8939C195.365 96.5867 195.669 96.3125 196.003 96.0774C196.293 95.8548 196.619 95.684 196.968 95.5726C197.291 95.4592 197.636 95.4186 197.977 95.4538C198.344 95.4926 198.698 95.609 199.017 95.7953C199.501 96.0603 199.891 96.4705 200.13 96.9682C200.359 97.4747 200.442 98.0355 200.368 98.5865C200.265 99.2719 200.022 99.9288 199.655 100.517C199.323 101.136 198.868 101.681 198.319 102.12C197.859 102.487 197.301 102.709 196.715 102.759C196.091 102.789 195.471 102.634 194.934 102.313L195.928 100.591C196.186 100.734 196.482 100.791 196.775 100.754C197.053 100.719 197.315 100.606 197.532 100.428C197.781 100.218 197.992 99.9669 198.155 99.6852C198.317 99.4211 198.428 99.129 198.482 98.8241C198.521 98.5743 198.495 98.3188 198.408 98.0817C198.324 97.874 198.173 97.7011 197.977 97.5918C197.81 97.4859 197.608 97.4487 197.413 97.4878C197.188 97.5341 196.979 97.6363 196.804 97.7848C196.553 97.9706 196.319 98.1793 196.107 98.4083L195.349 99.1952C194.861 99.7378 194.251 100.155 193.568 100.413C193.262 100.509 192.939 100.537 192.621 100.496C192.303 100.455 191.998 100.346 191.727 100.175C191.242 99.9079 190.857 99.4913 190.628 98.9874C190.404 98.4689 190.322 97.9 190.39 97.3394C190.462 96.6924 190.675 96.069 191.014 95.5132C191.327 94.9319 191.763 94.4254 192.291 94.0285C192.724 93.7038 193.237 93.5036 193.776 93.4494C194.295 93.4222 194.81 93.546 195.26 93.8058L194.444 95.528Z" fill="#3B92E0"/>
<path d="M202.164 95.9734L193.761 91.1185L195.676 87.8076C195.979 87.2099 196.428 86.699 196.983 86.3229C197.46 86.0166 198.019 85.8613 198.586 85.8775C199.178 85.8925 199.756 86.0613 200.264 86.3674C200.795 86.6874 201.231 87.1436 201.526 87.6888C201.811 88.1785 201.945 88.7415 201.912 89.3071C201.871 89.9701 201.667 90.6126 201.318 91.1779L200.1 93.2861L198.616 92.4696L199.744 90.6582C199.919 90.3692 200.025 90.0443 200.056 89.708C200.064 89.4265 199.992 89.1484 199.848 88.9063C199.684 88.6658 199.465 88.4675 199.21 88.3272C198.957 88.1743 198.672 88.0828 198.378 88.06C198.105 88.0619 197.838 88.1389 197.606 88.2827C197.325 88.4773 197.096 88.7371 196.938 89.0399L196.24 90.2425L203.203 94.266L202.164 95.9734Z" fill="#3B92E0"/>
<path d="M199.106 81.854L207.465 86.709L206.44 88.4906L198.022 83.6208L199.106 81.854Z" fill="#3B92E0"/>
<path d="M204.02 73.3466L212.438 78.2015L211.547 79.6862L204.124 80.2949L209.409 83.3534L208.385 85.1351L199.967 80.2801L200.872 78.7954L208.296 78.2164L203.01 75.1134L204.02 73.3466Z" fill="#3B92E0"/>
<path d="M205.876 68.2393L204.495 66.2943L205.43 64.676L206.589 67.007L205.876 68.2393ZM213.537 66.5616C214.36 66.9924 215.064 67.6197 215.586 68.3878C216.021 69.0594 216.248 69.8444 216.239 70.6445C216.23 71.4561 216.005 72.2505 215.586 72.9458C215.192 73.6557 214.619 74.2496 213.923 74.6681C213.225 75.0694 212.426 75.2602 211.622 75.2174C210.689 75.1714 209.783 74.885 208.994 74.386C208.162 73.948 207.457 73.3038 206.945 72.5152C206.51 71.8436 206.283 71.0586 206.292 70.2585C206.301 69.4469 206.526 68.6525 206.945 67.9572C207.339 67.2473 207.912 66.6534 208.608 66.235C209.302 65.8373 210.094 65.6419 210.894 65.6708C211.834 65.7486 212.741 66.0543 213.537 66.5616ZM212.498 68.3729C211.994 68.0626 211.434 67.8557 210.85 67.7642C210.384 67.6993 209.909 67.7715 209.484 67.9721C209.17 68.125 208.894 68.3466 208.677 68.6204C208.461 68.8942 208.308 69.2132 208.231 69.5538C208.154 69.8945 208.155 70.2481 208.233 70.5885C208.311 70.9289 208.464 71.2474 208.682 71.5205C209.055 71.9806 209.514 72.3638 210.033 72.6489C210.541 72.961 211.106 73.168 211.696 73.2576C212.158 73.3167 212.628 73.2393 213.047 73.0349C213.46 72.8332 213.798 72.5057 214.012 72.0995C214.251 71.7065 214.369 71.2525 214.354 70.793C214.317 70.322 214.141 69.8725 213.849 69.5013C213.476 69.0444 213.017 68.6659 212.498 68.3878V68.3729Z" fill="#3B92E0"/>
<path d="M219.416 66.1013L209.617 63.6516L210.731 61.7066L217.382 63.6961L212.423 58.7818L213.388 57.1189L220.129 58.9748L215.066 54.194L216.195 52.2491L223.217 59.5241L222.312 61.0979L215.883 59.4796L220.47 64.2455L219.416 66.1013Z" fill="#3B92E0"/>
<defs>
<linearGradient id="paint0_linear_6278_16493" x1="280.155" y1="37.9365" x2="46.4935" y2="271.584" gradientUnits="userSpaceOnUse">
<stop stop-color="#0E5DF8"/>
<stop offset="0.31" stop-color="#0F4EE0"/>
<stop offset="0.96" stop-color="#1026A3"/>
<stop offset="1" stop-color="#10249F"/>
</linearGradient>
<linearGradient id="paint1_linear_6278_16493" x1="57.4803" y1="56.8367" x2="273.831" y2="273.187" gradientUnits="userSpaceOnUse">
<stop stop-color="#FFFB90"/>
<stop offset="0.14" stop-color="#FBEA78"/>
<stop offset="0.24" stop-color="#F8DC65"/>
<stop offset="0.27" stop-color="#E6C758"/>
<stop offset="0.34" stop-color="#C5A041"/>
<stop offset="0.4" stop-color="#AD8330"/>
<stop offset="0.45" stop-color="#9E7226"/>
<stop offset="0.49" stop-color="#996C22"/>
<stop offset="0.52" stop-color="#9D7126"/>
<stop offset="0.56" stop-color="#AA8131"/>
<stop offset="0.6" stop-color="#BE9B42"/>
<stop offset="0.64" stop-color="#DABE5B"/>
<stop offset="0.69" stop-color="#FBE878"/>
<stop offset="0.77" stop-color="#FFFFAA"/>
<stop offset="0.83" stop-color="#FBE878"/>
<stop offset="1" stop-color="#A4631B"/>
</linearGradient>
<radialGradient id="paint2_radial_6278_16493" cx="0" cy="0" r="1" gradientUnits="userSpaceOnUse" gradientTransform="translate(159.36 158.732) scale(148.841)">
<stop offset="0.37" stop-color="#FDFDFD"/>
<stop offset="0.65" stop-color="#FBFBFB"/>
<stop offset="0.81" stop-color="#F2F2F2"/>
<stop offset="0.94" stop-color="#E4E4E4"/>
<stop offset="1" stop-color="#DBDBDB"/>
</radialGradient>
<linearGradient id="paint3_linear_6278_16493" x1="239.89" y1="31.3148" x2="58.0148" y2="213.19" gradientUnits="userSpaceOnUse">
<stop stop-color="#50DBFF"/>
<stop offset="0.52" stop-color="#2069FF"/>
<stop offset="0.76" stop-color="#915DC0"/>
<stop offset="1" stop-color="#FF5183"/>
</linearGradient>
<linearGradient id="paint4_linear_6278_16493" x1="305.365" y1="96.7752" x2="123.475" y2="278.666" gradientUnits="userSpaceOnUse">
<stop stop-color="#50DBFF"/>
<stop offset="0.52" stop-color="#2069FF"/>
<stop offset="0.76" stop-color="#915DC0"/>
<stop offset="1" stop-color="#FF5183"/>
</linearGradient>
<linearGradient id="paint5_linear_6278_16493" x1="312.73" y1="104.139" x2="130.839" y2="286.03" gradientUnits="userSpaceOnUse">
<stop stop-color="#50DBFF"/>
<stop offset="0.52" stop-color="#2069FF"/>
<stop offset="0.76" stop-color="#915DC0"/>
<stop offset="1" stop-color="#FF5183"/>
</linearGradient>
<linearGradient id="paint6_linear_6278_16493" x1="286.762" y1="78.1868" x2="104.887" y2="260.062" gradientUnits="userSpaceOnUse">
<stop stop-color="#50DBFF"/>
<stop offset="0.52" stop-color="#2069FF"/>
<stop offset="0.76" stop-color="#915DC0"/>
<stop offset="1" stop-color="#FF5183"/>
</linearGradient>
<linearGradient id="paint7_linear_6278_16493" x1="213.953" y1="5.37722" x2="32.0771" y2="187.253" gradientUnits="userSpaceOnUse">
<stop stop-color="#50DBFF"/>
<stop offset="0.52" stop-color="#2069FF"/>
<stop offset="0.76" stop-color="#915DC0"/>
<stop offset="1" stop-color="#FF5183"/>
</linearGradient>
<linearGradient id="paint8_linear_6278_16493" x1="221.346" y1="12.7561" x2="39.4561" y2="194.632" gradientUnits="userSpaceOnUse">
<stop stop-color="#50DBFF"/>
<stop offset="0.52" stop-color="#2069FF"/>
<stop offset="0.76" stop-color="#915DC0"/>
<stop offset="1" stop-color="#FF5183"/>
</linearGradient>
<radialGradient id="paint9_radial_6278_16493" cx="0" cy="0" r="1" gradientUnits="userSpaceOnUse" gradientTransform="translate(157.445 161.924) scale(15.5448 15.5448)">
<stop offset="0.34" stop-color="#400500"/>
<stop offset="0.37" stop-color="#4F1814"/>
<stop offset="0.47" stop-color="#7D5451"/>
<stop offset="0.57" stop-color="#A48886"/>
<stop offset="0.67" stop-color="#C5B3B2"/>
<stop offset="0.76" stop-color="#DED4D3"/>
<stop offset="0.85" stop-color="#F0ECEB"/>
<stop offset="0.93" stop-color="#FBFAFA"/>
<stop offset="1" stop-color="white"/>
</radialGradient>
<linearGradient id="paint10_linear_6278_16493" x1="179.433" y1="138.733" x2="120.328" y2="197.839" gradientUnits="userSpaceOnUse">
<stop stop-color="#0E5DF8"/>
<stop offset="0.31" stop-color="#0F4EE0"/>
<stop offset="0.96" stop-color="#1026A3"/>
<stop offset="1" stop-color="#10249F"/>
</linearGradient>
</defs>
</svg>
