<svg width="317" height="318" viewBox="0 0 317 318" fill="none" xmlns="http://www.w3.org/2000/svg">
<path d="M158.477 317.193C246.001 317.193 316.953 246.241 316.953 158.717C316.953 71.1925 246.001 0.240051 158.477 0.240051C70.9525 0.240051 0 71.1925 0 158.717C0 246.241 70.9525 317.193 158.477 317.193Z" fill="url(#paint0_linear_6709_17538)"/>
<path d="M158.477 301.515C237.342 301.515 301.275 237.582 301.275 158.717C301.275 79.8514 237.342 15.9184 158.477 15.9184C79.6114 15.9184 15.6784 79.8514 15.6784 158.717C15.6784 237.582 79.6114 301.515 158.477 301.515Z" fill="url(#paint1_linear_6709_17538)"/>
<path d="M298.172 158.717C298.175 186.346 289.985 213.355 274.637 236.33C259.29 259.304 237.474 277.212 211.949 287.788C186.425 298.363 158.337 301.133 131.238 295.746C104.139 290.358 79.2465 277.056 59.7077 257.522C40.1689 237.987 26.8616 213.097 21.4685 185.999C16.0755 158.902 18.8389 130.813 29.4094 105.286C39.9799 79.7592 57.8827 57.9399 80.8538 42.5875C103.825 27.2352 130.833 19.0393 158.462 19.0364C195.51 19.0364 231.041 33.7517 257.241 59.946C283.441 86.1403 298.164 121.669 298.172 158.717Z" fill="url(#paint2_radial_6709_17538)"/>
<path d="M56.8343 254.524L158.477 158.717L24.646 198.804C30.8885 219.631 41.9109 238.712 56.8343 254.524Z" fill="url(#paint3_linear_6709_17538)"/>
<path d="M158.477 298.412C169.304 298.413 180.095 297.163 190.635 294.685L158.477 158.717L126.407 294.685C136.917 297.163 147.679 298.413 158.477 298.412Z" fill="url(#paint4_linear_6709_17538)"/>
<path d="M292.307 198.863L158.477 158.776L260.134 254.584C275.045 238.764 286.061 219.686 292.307 198.863Z" fill="url(#paint5_linear_6709_17538)"/>
<path d="M260.134 62.9241L158.477 158.717L292.307 118.63C286.058 97.8135 275.042 78.7403 260.134 62.9241Z" fill="url(#paint6_linear_6709_17538)"/>
<path d="M24.646 118.585L158.477 158.672L56.8343 62.9241C41.9188 78.7197 30.8969 97.7793 24.646 118.585Z" fill="url(#paint7_linear_6709_17538)"/>
<path d="M158.477 19.0364C147.679 19.035 136.917 20.2855 126.407 22.763L158.551 158.717L190.71 22.763C180.146 20.2773 169.329 19.0267 158.477 19.0364Z" fill="url(#paint8_linear_6709_17538)"/>
<path opacity="0.7" d="M172.106 161.924C172.106 164.998 171.195 168.004 169.486 170.56C167.778 173.116 165.351 175.109 162.51 176.285C159.67 177.462 156.544 177.77 153.529 177.17C150.513 176.57 147.744 175.09 145.57 172.916C143.396 170.742 141.915 167.972 141.315 164.956C140.716 161.941 141.023 158.815 142.2 155.975C143.376 153.135 145.369 150.707 147.925 148.999C150.482 147.291 153.487 146.379 156.561 146.379C160.684 146.379 164.638 148.017 167.553 150.932C170.469 153.847 172.106 157.801 172.106 161.924Z" fill="url(#paint9_radial_6709_17538)"/>
<path d="M167.979 158.717C167.982 160.581 167.432 162.405 166.398 163.957C165.365 165.509 163.894 166.72 162.173 167.436C160.451 168.152 158.556 168.342 156.726 167.981C154.897 167.62 153.216 166.725 151.895 165.409C150.574 164.092 149.674 162.414 149.307 160.585C148.941 158.757 149.124 156.861 149.835 155.138C150.546 153.414 151.752 151.939 153.301 150.901C154.85 149.863 156.671 149.307 158.536 149.304C161.035 149.304 163.433 150.295 165.203 152.059C166.973 153.823 167.971 156.218 167.979 158.717Z" fill="url(#paint10_linear_6709_17538)"/>
<path d="M165.36 39.2701L155.639 38.9904L155.698 36.9424L163.46 37.1657L162.129 34.8994L163.954 34.9519L165.369 37.3989L165.36 39.2701Z" fill="white"/>
<path d="M155.24 45.1132C155.24 44.3661 155.469 43.6368 155.895 43.0229C156.343 42.4212 156.961 41.9681 157.67 41.7224C158.55 41.4122 159.482 41.2776 160.414 41.326C161.338 41.3306 162.251 41.5184 163.102 41.8786C163.786 42.1656 164.368 42.6536 164.769 43.2782C165.153 43.9181 165.339 44.6574 165.302 45.4027C165.296 46.1442 165.068 46.8668 164.649 47.4782C164.213 48.0794 163.604 48.5334 162.903 48.7796C162.035 49.0971 161.111 49.2324 160.188 49.1768C159.255 49.1716 158.332 48.9836 157.471 48.6233C156.778 48.3372 156.186 47.8493 155.774 47.2229C155.381 46.5921 155.195 45.8548 155.24 45.1132ZM156.932 45.1619C156.925 45.4417 156.997 45.7178 157.14 45.9584C157.283 46.199 157.491 46.3944 157.74 46.5219C158.515 46.9196 159.378 47.1132 160.249 47.0843C160.869 47.1162 161.491 47.0591 162.095 46.9146C162.514 46.8122 162.898 46.6032 163.212 46.308C163.463 46.0537 163.606 45.7117 163.611 45.3541C163.619 45.0759 163.549 44.801 163.409 44.5606C163.269 44.3202 163.064 44.124 162.818 43.9945C162.058 43.5995 161.211 43.4015 160.354 43.4186C159.723 43.3831 159.09 43.4451 158.477 43.6022C158.049 43.6888 157.655 43.8997 157.346 44.2084C157.093 44.4618 156.95 44.8044 156.947 45.1623L156.932 45.1619Z" fill="white"/>
<path d="M161.982 59.1207C162.158 59.1183 162.332 59.0752 162.488 58.9947C162.645 58.9142 162.782 58.7984 162.886 58.6565C163.133 58.3199 163.259 57.9105 163.247 57.4935C163.264 57.2046 163.222 56.9152 163.122 56.6433C163.051 56.4309 162.923 56.2422 162.752 56.0979C162.597 55.9757 162.406 55.9076 162.208 55.9041C162.046 55.8906 161.884 55.9274 161.744 56.0095C161.609 56.087 161.494 56.1957 161.409 56.3267C161.303 56.4773 161.213 56.6391 161.142 56.8091C161.137 57.0021 161.012 57.1916 160.947 57.4125L160.714 58.2673C160.624 58.6686 160.488 59.0583 160.309 59.429C160.153 59.7581 159.949 60.0624 159.704 60.3325C159.469 60.5825 159.185 60.7816 158.87 60.9175C158.442 61.0854 157.978 61.1447 157.521 61.0901C157.064 61.0355 156.627 60.8687 156.25 60.6045C155.805 60.2679 155.468 59.8092 155.278 59.2843C155.044 58.6348 154.943 57.945 154.98 57.2557C154.979 56.5408 155.121 55.8329 155.397 55.1734C155.625 54.6282 156.01 54.1635 156.504 53.8388C157.04 53.5154 157.66 53.3576 158.285 53.385L158.226 55.4182C157.94 55.4253 157.661 55.5152 157.425 55.6771C157.188 55.839 157.004 56.0659 156.893 56.3304C156.668 56.9253 156.649 57.5787 156.84 58.1855C156.916 58.4275 157.059 58.6428 157.253 58.8064C157.424 58.9452 157.635 59.0243 157.855 59.0317C158.056 59.0473 158.255 58.9837 158.41 58.8545C158.589 58.7078 158.727 58.5174 158.812 58.3017C158.938 58.0163 159.041 57.7213 159.119 57.4193L159.417 56.3733C159.59 55.6643 159.929 55.0069 160.408 54.4561C160.63 54.2258 160.899 54.047 161.198 53.9324C161.496 53.8178 161.816 53.7701 162.135 53.7928C162.667 53.8098 163.18 53.9906 163.605 54.3104C164.053 54.658 164.399 55.1194 164.607 55.6463C164.84 56.2551 164.948 56.905 164.923 57.5566C164.913 58.2089 164.768 58.8521 164.497 59.4456C164.259 59.9431 163.887 60.3644 163.423 60.6623C162.977 60.952 162.456 61.1025 161.925 61.0945L161.982 59.1207Z" fill="white"/>
<path d="M154.966 62.3944L164.687 62.6741L164.576 66.5178C164.575 67.1681 164.408 67.8073 164.092 68.3754C163.814 68.871 163.401 69.2766 162.9 69.5442C162.366 69.8039 161.775 69.9249 161.182 69.8958C160.585 69.8949 160 69.7345 159.487 69.4312C159.002 69.1352 158.612 68.7065 158.364 68.1957C158.095 67.5907 157.971 66.9308 158.003 66.2693L158.074 63.8206L159.721 63.868L159.66 65.9902C159.642 66.3282 159.704 66.6657 159.84 66.9757C159.962 67.227 160.158 67.4348 160.402 67.5711C160.662 67.7062 160.949 67.7807 161.242 67.7892C161.535 67.7976 161.826 67.7397 162.094 67.6198C162.335 67.4896 162.536 67.2949 162.674 67.0572C162.824 66.7494 162.9 66.4108 162.896 66.0685L162.935 64.6883L154.907 64.4573L154.966 62.3944Z" fill="white"/>
<path d="M164.378 73.3892L154.658 73.1095L154.717 71.0466L164.438 71.3263L164.378 73.3892Z" fill="white"/>
<path d="M164.096 83.199L154.375 82.9193L154.426 81.1533L160.662 77.0995L154.548 76.9236L154.607 74.8756L164.328 75.1552L164.278 76.8768L158.043 80.9008L158.04 80.9899L164.155 81.1658L164.096 83.199Z" fill="white"/>
<path d="M164.877 88.5686L167 89.6694L166.947 91.5097L164.837 89.9637L164.877 88.5686ZM158.923 93.685C157.985 93.6835 157.063 93.4476 156.239 92.9988C155.535 92.6163 154.961 92.0305 154.594 91.3177C154.225 90.597 154.044 89.7948 154.067 88.9854C154.09 88.176 154.317 87.3855 154.728 86.6873C155.145 85.9999 155.755 85.4496 156.481 85.1039C157.325 84.7083 158.254 84.5308 159.184 84.5876C160.126 84.5834 161.054 84.8143 161.883 85.2593C162.581 85.6504 163.152 86.234 163.528 86.9405C163.897 87.6612 164.079 88.4634 164.056 89.2728C164.032 90.0822 163.805 90.8726 163.395 91.5709C162.987 92.2614 162.382 92.8132 161.656 93.1547C160.803 93.5564 159.864 93.7387 158.923 93.685ZM158.982 91.6073C159.576 91.6437 160.171 91.5545 160.728 91.3456C161.169 91.1813 161.554 90.8933 161.836 90.516C162.08 90.1294 162.215 89.6845 162.228 89.2276C162.241 88.7708 162.132 88.3188 161.911 87.9188C161.651 87.5259 161.283 87.2163 160.852 87.0269C160.308 86.7863 159.719 86.6631 159.125 86.6653C158.531 86.6315 157.937 86.7206 157.379 86.927C156.944 87.0953 156.565 87.383 156.286 87.757C156.042 88.1436 155.907 88.5886 155.894 89.0454C155.881 89.5022 155.99 89.9542 156.211 90.3542C156.468 90.7436 156.83 91.0527 157.255 91.2457C157.8 91.4838 158.388 91.6069 158.982 91.6073Z" fill="white"/>
<path d="M153.974 96.8846L163.774 94.389L163.71 96.63L156.911 98.0386L156.909 98.1276L163.61 100.088L163.555 102.017L156.737 103.589L156.734 103.663L163.455 105.475L163.391 107.716L153.75 104.661L153.808 102.658L160.213 100.985L153.914 98.9623L153.974 96.8846Z" fill="white"/>
<path d="M93.7094 62.5321C93.3534 61.9865 93.1118 61.3743 92.9995 60.7325C92.9094 60.1798 92.9692 59.613 93.1725 59.0912C93.3643 58.5862 93.7185 58.1593 94.1796 57.8777L95.2734 59.6175C95.0889 59.7502 94.9507 59.9376 94.8785 60.1532C94.805 60.3842 94.7892 60.6297 94.8325 60.8682C94.8861 61.1396 94.9921 61.3978 95.1448 61.6285C95.2888 61.8734 95.4848 62.0838 95.7189 62.2448C95.9254 62.3805 96.1644 62.4583 96.4112 62.4701C96.657 62.4776 96.8993 62.4106 97.1063 62.2778C97.3132 62.1449 97.4751 61.9526 97.5706 61.726C97.6672 61.4845 97.6879 61.2193 97.6297 60.9658C97.5774 60.6404 97.4536 60.3307 97.2671 60.0589L96.791 59.2902L98.0672 58.4969L98.5433 59.2656C98.692 59.5027 98.8871 59.7072 99.1168 59.8671C99.3215 59.9981 99.5535 60.0805 99.7949 60.1078C100.036 60.1114 100.272 60.0397 100.47 59.9028C100.665 59.7897 100.823 59.6237 100.927 59.4242C101.024 59.2246 101.062 59.0013 101.035 58.781C101.006 58.5306 100.92 58.2901 100.785 58.0777C100.643 57.8573 100.459 57.6675 100.243 57.5196C100.051 57.3834 99.8278 57.3 99.5941 57.2777C99.3636 57.2578 99.1324 57.3084 98.9312 57.4227L97.8705 55.7707C98.3071 55.4887 98.8224 55.3539 99.3412 55.3858C99.8797 55.4264 100.399 55.6055 100.848 55.9058C101.355 56.2512 101.782 56.7002 102.103 57.2233C102.439 57.7293 102.655 58.3052 102.734 58.9071C102.802 59.4148 102.729 59.9313 102.526 60.4012C102.326 60.8536 101.994 61.2347 101.573 61.4937C101.361 61.6407 101.12 61.7428 100.867 61.7937C100.613 61.8446 100.352 61.8432 100.099 61.7896C99.594 61.6968 99.137 61.4312 98.8064 61.0383C99.1005 61.58 99.1886 62.2098 99.0547 62.8115C98.9068 63.3458 98.5572 63.8018 98.0796 64.0832C97.6457 64.3712 97.1283 64.5067 96.609 64.4682C96.0644 64.409 95.5445 64.2093 95.1002 63.8888C94.5468 63.5389 94.073 63.0767 93.7094 62.5321Z" fill="#0E5DF8"/>
<path d="M106.987 70.2991C107.13 70.199 107.248 70.0675 107.332 69.9148C107.416 69.7622 107.464 69.5923 107.473 69.4181C107.485 68.9979 107.359 68.5852 107.114 68.2436C106.97 67.9991 106.78 67.7846 106.554 67.6119C106.378 67.4689 106.162 67.384 105.936 67.3689C105.739 67.349 105.541 67.3988 105.377 67.5098C105.232 67.5834 105.117 67.703 105.048 67.8496C104.976 67.9945 104.937 68.1532 104.933 68.3148C104.927 68.4981 104.934 68.6815 104.955 68.8637C105 69.0629 105.057 69.2592 105.126 69.4513L105.412 70.3018C105.558 70.686 105.659 71.086 105.712 71.4935C105.787 71.8496 105.801 72.2157 105.755 72.5765C105.71 72.9175 105.586 73.2432 105.391 73.5269C105.19 73.8364 104.92 74.096 104.604 74.2861C104.144 74.5929 103.599 74.7494 103.047 74.7338C102.503 74.6924 101.982 74.5022 101.539 74.1841C100.439 73.3186 99.6718 72.0996 99.3672 70.7335C99.252 70.156 99.3165 69.5571 99.5521 69.0175C99.806 68.4482 100.228 67.9702 100.761 67.6474L101.823 69.329C101.581 69.4958 101.393 69.7307 101.285 70.004C101.189 70.2664 101.17 70.5504 101.228 70.8235C101.292 71.1409 101.415 71.4435 101.59 71.7156C101.755 71.9804 101.965 72.2136 102.212 72.4043C102.405 72.5649 102.642 72.6642 102.892 72.6895C103.114 72.7116 103.338 72.6555 103.524 72.5308C103.696 72.4312 103.827 72.2732 103.893 72.0853C103.931 71.8584 103.922 71.6261 103.866 71.4029C103.811 71.0927 103.729 70.7878 103.622 70.4913L103.284 69.4497C103.029 68.7705 102.944 68.0393 103.036 67.3198C103.093 67.0009 103.22 66.6985 103.407 66.4342C103.594 66.1699 103.838 65.9504 104.12 65.7912C104.555 65.503 105.067 65.3533 105.589 65.3618C106.132 65.4186 106.651 65.613 107.097 65.9263C108.16 66.6918 108.882 67.8413 109.111 69.1306C109.199 69.6751 109.133 70.2334 108.922 70.7428C108.703 71.2457 108.336 71.6698 107.87 71.9581L106.987 70.2991Z" fill="#0E5DF8"/>
<path d="M102.955 76.9366L111.175 71.7535L113.22 75.0012C113.587 75.5364 113.811 76.1568 113.871 76.8031C113.912 77.37 113.79 77.9369 113.519 78.4365C113.23 78.9604 112.806 79.3976 112.291 79.7034C111.794 80.0228 111.224 80.2137 110.634 80.2591C110.065 80.2889 109.5 80.1455 109.013 79.8476C108.442 79.4928 107.968 79.0007 107.635 78.4162L106.334 76.3427L107.786 75.4682L108.911 77.2514C109.077 77.5465 109.317 77.7931 109.608 77.9668C109.849 78.1034 110.126 78.1649 110.402 78.1435C110.697 78.1244 110.98 78.0259 111.223 77.8585C111.476 77.7069 111.688 77.4942 111.838 77.2399C111.976 76.9999 112.033 76.7212 111.999 76.446C111.956 76.1112 111.836 75.7908 111.65 75.5089L110.906 74.3347L104.107 78.6297L102.955 76.9366Z" fill="#0E5DF8"/>
<path d="M116.897 80.8144L108.677 85.9975L107.583 84.2576L115.788 79.0751L116.897 80.8144Z" fill="#0E5DF8"/>
<path d="M122.128 89.1218L113.878 94.306L112.929 92.8576L115.84 86.0267L110.706 89.2159L109.612 87.4909L117.859 82.2324L118.811 83.7698L115.885 90.5716L121.032 87.3226L122.128 89.1218Z" fill="#0E5DF8"/>
<path d="M125.717 93.0811L128.082 92.7797L129.143 94.4318L126.54 94.3562L125.717 93.0811ZM123.636 100.592C122.857 101.116 121.961 101.437 121.028 101.527C120.229 101.597 119.427 101.432 118.721 101.054C118.047 100.687 117.474 100.158 117.055 99.5149C116.617 98.8277 116.361 98.04 116.311 97.2263C116.272 96.4181 116.468 95.6158 116.874 94.9159C117.361 94.1182 118.033 93.4496 118.833 92.9664C119.607 92.4365 120.505 92.1145 121.44 92.0314C122.237 91.9642 123.037 92.1232 123.747 92.4902C124.455 92.8867 125.054 93.4535 125.488 94.1394C125.922 94.8253 126.179 95.6087 126.235 96.4187C126.264 97.2234 126.063 98.0198 125.657 98.7149C125.178 99.5266 124.505 100.207 123.699 100.694L123.636 100.592ZM122.526 98.8235C123.037 98.5227 123.481 98.1209 123.831 97.6428C124.095 97.2604 124.248 96.8118 124.27 96.3476C124.275 95.8888 124.144 95.4389 123.893 95.055C123.654 94.6604 123.306 94.3437 122.891 94.1436C122.457 93.9616 121.981 93.9082 121.518 93.9897C120.938 94.0972 120.385 94.3212 119.894 94.6481C119.38 94.9506 118.936 95.3579 118.589 95.8437C118.309 96.2134 118.15 96.6616 118.137 97.1257C118.123 97.5898 118.255 98.0466 118.513 98.4321C118.757 98.8275 119.11 99.1439 119.53 99.3429C119.958 99.5264 120.43 99.5801 120.888 99.4974C121.488 99.424 122.067 99.2293 122.589 98.925L122.526 98.8235Z" fill="#0E5DF8"/>
<path d="M121.372 106.105L128.103 98.5739L129.307 100.473L124.451 105.434L131.099 103.329L132.131 105.027L127.355 110.134L133.938 107.883L135.127 109.782L125.432 112.617L124.355 110.921L128.751 105.963L122.389 107.789L121.372 106.105Z" fill="#0E5DF8"/>
<path d="M49.1756 100.728L49.9426 99.4657L54.504 98.5744L55.5488 98.2977C55.8054 98.2109 56.0516 98.0962 56.2831 97.9556C56.486 97.8128 56.6566 97.629 56.7837 97.4159C56.9243 97.2005 57.0013 96.9498 57.0057 96.6926C56.9977 96.4491 56.9255 96.212 56.7963 96.0054C56.6447 95.7877 56.4515 95.6022 56.2278 95.4598C55.9938 95.3221 55.731 95.2408 55.4602 95.2221C55.2134 95.2074 54.9682 95.2701 54.7587 95.4015C54.5215 95.5402 54.3273 95.742 54.198 95.9846L52.5245 94.9868C52.8072 94.4771 53.2336 94.0619 53.7506 93.7929C54.2414 93.5385 54.7951 93.4307 55.3455 93.4824C55.9608 93.5385 56.5532 93.7437 57.0713 94.0803C57.6196 94.3884 58.0891 94.8194 58.4427 95.3395C58.75 95.7796 58.9253 96.2981 58.9482 96.8343C58.973 97.3565 58.8331 97.8732 58.5482 98.3115C58.3622 98.6343 58.1086 98.9131 57.8047 99.1286C57.4176 99.4073 56.9869 99.6197 56.5302 99.7572C55.8313 99.9823 55.1184 100.162 54.3963 100.295L52.4718 100.747L55.9052 102.878L55.0451 104.347L49.1756 100.728Z" fill="white"/>
<path d="M59.5331 107.226C58.8966 106.852 58.3894 106.293 58.0793 105.623C57.7866 104.939 57.6981 104.184 57.8246 103.45C57.988 102.532 58.3332 101.655 58.84 100.871C59.2922 100.067 59.9019 99.3615 60.6326 98.7976C61.2167 98.3351 61.9316 98.0682 62.6758 98.0347C63.4201 98.0012 64.1561 98.2029 64.7793 98.611C65.3922 98.9749 65.8951 99.4978 66.2349 100.124C66.5315 100.803 66.6252 101.552 66.5047 102.283C66.3468 103.196 66.0066 104.068 65.5044 104.847C65.0431 105.658 64.4292 106.373 63.6964 106.95C63.1043 107.405 62.3915 107.675 61.6469 107.727C60.907 107.787 60.1672 107.612 59.5331 107.226ZM60.4081 105.758C60.6412 105.91 60.9122 105.993 61.1905 105.999C61.4687 106.004 61.7428 105.931 61.9816 105.788C62.7111 105.315 63.3068 104.662 63.7114 103.892C64.0436 103.366 64.2997 102.796 64.4719 102.199C64.5997 101.784 64.6083 101.342 64.4968 100.922C64.4492 100.751 64.3684 100.591 64.259 100.452C64.1496 100.312 64.0138 100.195 63.8592 100.108C63.6361 99.9731 63.3815 99.8996 63.1209 99.8945C62.8603 99.8894 62.603 99.953 62.3748 100.079C61.6503 100.541 61.0593 101.185 60.6605 101.946C60.317 102.478 60.0554 103.059 59.8845 103.669C59.7649 104.09 59.7562 104.535 59.8593 104.96C59.9449 105.285 60.1383 105.572 60.4078 105.773L60.4081 105.758Z" fill="white"/>
<path d="M75.1053 108.256C75.1856 108.101 75.2292 107.929 75.2326 107.754C75.236 107.579 75.1992 107.406 75.1249 107.247C74.957 106.868 74.6642 106.559 74.2956 106.37C74.0491 106.22 73.7807 106.109 73.5 106.042C73.2869 105.983 73.0622 105.978 72.8469 106.03C72.6557 106.105 72.496 106.243 72.3938 106.422C72.3067 106.553 72.2574 106.707 72.2515 106.864C72.2599 107.026 72.3024 107.183 72.3762 107.327C72.4564 107.487 72.553 107.638 72.6644 107.778C72.7929 107.945 72.9338 108.101 73.0859 108.247L73.7272 108.868C74.0295 109.147 74.2976 109.462 74.5257 109.804C74.7413 110.102 74.9102 110.431 75.0265 110.779C75.1212 111.108 75.1499 111.451 75.1108 111.791C75.0627 112.156 74.9396 112.508 74.7492 112.823C74.4748 113.303 74.0571 113.684 73.5548 113.914C73.0425 114.128 72.4805 114.194 71.9325 114.105C71.2499 113.994 70.5975 113.744 70.0163 113.37C69.4101 113.016 68.8752 112.552 68.4391 112.002C68.0747 111.518 67.8671 110.934 67.8444 110.328C67.8217 109.723 67.9848 109.125 68.312 108.614L70.0146 109.642C69.8662 109.897 69.8033 110.192 69.8348 110.485C69.8646 110.764 69.9727 111.029 70.1466 111.249C70.3512 111.502 70.5982 111.718 70.8767 111.887C71.1394 112.047 71.4291 112.158 71.7316 112.215C71.973 112.288 72.2298 112.293 72.4738 112.229C72.6797 112.145 72.8539 111.997 72.9721 111.809C73.0808 111.637 73.1219 111.432 73.0872 111.232C73.0419 111.01 72.9498 110.801 72.817 110.618C72.6267 110.366 72.4179 110.128 72.1923 109.907L71.4203 109.135C70.8841 108.639 70.478 108.02 70.2377 107.33C70.1468 107.024 70.1255 106.702 70.1753 106.387C70.2251 106.072 70.3448 105.772 70.5256 105.509C70.7923 105.027 71.2126 104.649 71.7197 104.434C72.2406 104.213 72.8128 104.142 73.372 104.228C74.0144 104.324 74.6282 104.559 75.1703 104.916C75.7462 105.234 76.2447 105.674 76.6302 106.207C76.9412 106.649 77.1309 107.165 77.1802 107.703C77.1974 108.222 77.0636 108.735 76.7951 109.18L75.1053 108.256Z" fill="white"/>
<path d="M74.4502 115.98L79.468 107.658L82.7558 109.638C83.3487 109.95 83.8511 110.41 84.2148 110.973C84.5089 111.458 84.6578 112.018 84.6438 112.585C84.6099 113.182 84.4249 113.761 84.1062 114.267C83.8027 114.782 83.3758 115.212 82.8641 115.52C82.3689 115.796 81.8035 115.919 81.2386 115.875C80.578 115.814 79.9412 115.598 79.3798 115.245L77.2956 113.986L78.1409 112.518L79.9611 113.608C80.2457 113.79 80.5689 113.903 80.905 113.938C81.1814 113.949 81.4553 113.882 81.6958 113.745C81.9394 113.586 82.142 113.371 82.2872 113.118C82.445 112.869 82.542 112.586 82.5705 112.292C82.5768 112.014 82.505 111.74 82.3632 111.501C82.1656 111.224 81.9121 110.992 81.6191 110.818L80.43 110.112L76.2869 116.981L74.4502 115.98Z" fill="white"/>
<path d="M88.6413 113.197L83.6087 121.519L81.8621 120.461L86.9096 112.139L88.6413 113.197Z" fill="white"/>
<path d="M97.0514 118.276L92.0188 126.598L90.5517 125.679L90.0875 118.245L86.9265 123.485L85.1651 122.426L90.0936 114.117L91.5604 115.051L91.9949 122.484L95.0665 117.258L97.0514 118.276Z" fill="white"/>
<path d="M102.106 120.29L104.092 118.963L105.692 119.929L103.324 121.027L102.106 120.29ZM103.634 127.982C103.171 128.799 102.515 129.49 101.724 129.995C101.031 130.399 100.242 130.61 99.44 130.603C98.6287 130.579 97.8388 130.338 97.1518 129.906C96.4585 129.47 95.8918 128.86 95.5082 128.136C95.1271 127.433 94.9522 126.637 95.0035 125.839C95.1008 124.911 95.4015 124.015 95.8841 123.216C96.3668 122.417 97.0196 121.734 97.7961 121.216C98.4761 120.794 99.2653 120.582 100.065 120.607C100.874 120.647 101.661 120.887 102.354 121.305C103.048 121.722 103.628 122.305 104.043 123.001C104.428 123.702 104.608 124.499 104.562 125.298C104.471 126.235 104.153 127.136 103.635 127.923L103.634 127.982ZM101.843 126.908C102.165 126.406 102.383 125.845 102.484 125.257C102.558 124.798 102.495 124.327 102.303 123.903C102.099 123.488 101.774 123.145 101.371 122.919C100.983 122.673 100.532 122.545 100.072 122.552C99.6042 122.578 99.1554 122.745 98.7854 123.032C98.3063 123.388 97.9079 123.84 97.6161 124.361C97.2991 124.858 97.0862 125.415 96.9903 125.997C96.909 126.461 96.9723 126.939 97.1715 127.367C97.3209 127.679 97.5376 127.955 97.8062 128.174C98.0747 128.393 98.3884 128.549 98.7247 128.632C99.061 128.716 99.4115 128.723 99.7511 128.655C100.091 128.587 100.411 128.444 100.689 128.237C101.167 127.86 101.56 127.387 101.844 126.849L101.843 126.908Z" fill="white"/>
<path d="M103.981 133.81L106.621 124.046L108.544 125.212L106.425 131.823L111.435 126.961L113.154 127.93L111.167 134.648L111.241 134.65L116.12 129.681L118.039 130.995L110.644 137.875L108.927 136.832L110.625 130.45L105.771 134.929L103.981 133.81Z" fill="white"/>
<path d="M41.4528 154.786V164.511H39.4484V156.746L37.2214 158.141V156.315L39.6266 154.83L41.4528 154.786Z" fill="#8233C1"/>
<path d="M47.3025 164.644C46.6887 164.651 46.0809 164.524 45.5208 164.273C45.0209 164.049 44.5902 163.695 44.2737 163.248C43.9609 162.816 43.7898 162.297 43.7837 161.764H45.7881C45.7926 161.941 45.8379 162.115 45.9202 162.272C46.0026 162.429 46.1199 162.565 46.2632 162.669C46.5555 162.909 46.9245 163.036 47.3025 163.026C47.6024 163.029 47.8984 162.958 48.1636 162.818C48.4112 162.675 48.6123 162.464 48.7426 162.209C48.8909 161.936 48.9628 161.629 48.9505 161.318C48.9611 161.004 48.8895 160.691 48.7426 160.413C48.6008 160.162 48.3961 159.952 48.1487 159.804C47.8768 159.666 47.5776 159.59 47.2728 159.581C46.9864 159.583 46.7034 159.644 46.4413 159.759C46.1929 159.863 45.9774 160.033 45.8178 160.249L43.9916 159.908L44.4519 154.786H50.3906V156.478H46.1444L45.892 158.913C46.0994 158.651 46.3703 158.447 46.6789 158.319C47.042 158.154 47.438 158.072 47.837 158.082C48.3702 158.069 48.897 158.2 49.3621 158.461C49.8271 158.723 50.2132 159.104 50.4797 159.566C50.7548 160.077 50.8929 160.65 50.8806 161.229C50.8994 161.837 50.7465 162.439 50.4392 162.964C50.132 163.489 49.6829 163.917 49.1435 164.199C48.5732 164.489 47.9426 164.642 47.3025 164.644Z" fill="#8233C1"/>
<path d="M60.7984 157.592C60.7832 157.415 60.7319 157.244 60.6476 157.088C60.5633 156.932 60.4479 156.795 60.3085 156.686C59.9603 156.461 59.5497 156.352 59.1356 156.374C58.8476 156.366 58.5605 156.411 58.2893 156.508C58.0756 156.586 57.8897 156.726 57.7548 156.909C57.637 157.068 57.5745 157.261 57.5766 157.458C57.5634 157.619 57.5996 157.779 57.6805 157.918C57.7674 158.052 57.8843 158.164 58.022 158.245C58.1739 158.35 58.3386 158.435 58.512 158.497L59.1059 158.661L59.9818 158.869C60.3843 158.959 60.7771 159.089 61.1547 159.255C61.4862 159.405 61.7958 159.6 62.0753 159.834C62.3276 160.065 62.5341 160.342 62.684 160.65C62.8255 160.994 62.8962 161.363 62.8918 161.734C62.8942 162.262 62.7391 162.779 62.4464 163.219C62.1228 163.673 61.674 164.024 61.1547 164.228C60.5074 164.482 59.8157 164.603 59.1207 164.585C58.4213 164.598 57.7259 164.477 57.0718 164.228C56.5257 164.013 56.0556 163.641 55.7207 163.159C55.3821 162.633 55.2065 162.018 55.216 161.393H57.2648C57.2647 161.689 57.3641 161.976 57.5469 162.209C57.7186 162.433 57.9504 162.603 58.215 162.699C58.5195 162.81 58.8413 162.865 59.1652 162.863C59.4738 162.871 59.7813 162.821 60.0709 162.714C60.3063 162.631 60.5126 162.481 60.6648 162.283C60.8092 162.114 60.8882 161.898 60.8875 161.675C60.8899 161.47 60.8217 161.271 60.6945 161.111C60.5374 160.945 60.3444 160.818 60.1303 160.739C59.8431 160.617 59.5448 160.522 59.2395 160.457L58.1705 160.19C57.4605 160.04 56.798 159.719 56.2404 159.255C56.0026 159.037 55.8156 158.77 55.6924 158.473C55.5693 158.175 55.513 157.854 55.5277 157.532C55.5213 156.999 55.688 156.478 56.0028 156.048C56.3374 155.591 56.7886 155.232 57.3094 155.008C57.9113 154.758 58.5577 154.631 59.2098 154.637C59.8575 154.626 60.5001 154.753 61.0954 155.008C61.605 155.23 62.0422 155.59 62.3573 156.048C62.6553 156.486 62.8156 157.003 62.8176 157.532L60.7984 157.592Z" fill="#8233C1"/>
<path d="M64.2726 164.511V154.786H68.1031C68.7578 154.768 69.4064 154.916 69.9887 155.216C70.4928 155.473 70.907 155.877 71.1764 156.374C71.4629 156.897 71.6063 157.486 71.5921 158.082C71.6084 158.678 71.4649 159.267 71.1764 159.789C70.8906 160.284 70.4678 160.687 69.959 160.947C69.3677 161.235 68.7161 161.378 68.0585 161.363H65.6088V159.715H67.6577C67.9964 159.727 68.3328 159.655 68.6376 159.507C68.8917 159.387 69.0963 159.182 69.2166 158.928C69.3441 158.664 69.4104 158.375 69.4104 158.082C69.4104 157.789 69.3441 157.499 69.2166 157.236C69.0907 156.989 68.8872 156.791 68.6376 156.671C68.3315 156.528 67.9951 156.462 67.6577 156.478H66.2621V164.525L64.2726 164.511Z" fill="#8233C1"/>
<path d="M74.9773 154.786V164.511H72.9284V154.786H74.9773Z" fill="#8233C1"/>
<path d="M84.806 154.786V164.511H83.0243L78.8078 158.394H78.7335V164.511H76.6847V154.786H78.4812L82.6828 160.932V154.815L84.806 154.786Z" fill="#8233C1"/>
<path d="M95.4364 159.656C95.4719 160.613 95.2624 161.563 94.8277 162.417C94.4611 163.129 93.8932 163.718 93.1945 164.11C92.4911 164.515 91.6902 164.72 90.8784 164.704C90.0624 164.717 89.2575 164.512 88.5474 164.11C87.8584 163.686 87.3066 163.073 86.9588 162.343C86.5391 161.511 86.3349 160.587 86.3649 159.656C86.3337 158.715 86.5378 157.781 86.9588 156.939C87.3242 156.23 87.8861 155.643 88.5771 155.246C89.2872 154.844 90.0921 154.639 90.9081 154.652C91.7199 154.635 92.5208 154.841 93.2242 155.246C93.9229 155.638 94.4908 156.226 94.8574 156.939C95.2733 157.782 95.4723 158.716 95.4364 159.656ZM93.343 159.656C93.3607 159.063 93.2598 158.472 93.0461 157.918C92.8692 157.482 92.5702 157.106 92.1849 156.835C91.7936 156.591 91.3394 156.467 90.8784 156.478C90.4222 156.467 89.9728 156.591 89.5867 156.835C89.1972 157.101 88.8971 157.479 88.7256 157.918C88.5007 158.469 88.3945 159.061 88.4138 159.656C88.3971 160.25 88.5033 160.841 88.7256 161.393C88.9012 161.826 89.2007 162.198 89.5867 162.462C89.9728 162.705 90.4222 162.829 90.8784 162.818C91.3394 162.829 91.7936 162.705 92.1849 162.462C92.5669 162.193 92.8654 161.823 93.0461 161.393C93.2557 160.838 93.3565 160.248 93.343 159.656ZM90.1509 153.85L91.1605 151.698H93.0312L91.5465 153.85H90.1509Z" fill="#8233C1"/>
<path d="M98.8364 164.511L96.0451 154.786H98.2276L99.846 161.541L101.628 154.786H103.617L105.384 161.556H105.473L107.091 154.786H109.333L106.542 164.511H104.552L102.697 158.156L100.841 164.511H98.8364Z" fill="#8233C1"/>
<path d="M61.8943 222.981C61.3427 223.326 60.7234 223.549 60.0783 223.634C59.5252 223.724 58.9578 223.656 58.4418 223.437C57.9414 223.234 57.5229 222.87 57.2522 222.402L59.0173 221.349C59.1457 221.537 59.3297 221.679 59.5435 221.757C59.7727 221.836 60.0178 221.857 60.2573 221.82C60.5298 221.772 60.7905 221.672 61.0247 221.525C61.2729 221.387 61.4878 221.196 61.6543 220.966C61.7948 220.763 61.8782 220.525 61.8958 220.279C61.9091 220.033 61.8478 219.79 61.7199 219.58C61.592 219.37 61.4035 219.203 61.1792 219.102C60.9401 219 60.6754 218.973 60.4207 219.025C60.0941 219.07 59.7815 219.187 59.5055 219.367L58.7258 219.825L57.9627 218.53L58.7424 218.072C58.9869 217.928 59.1968 217.732 59.3569 217.498C59.4963 217.298 59.5844 217.068 59.6135 216.826C59.6198 216.592 59.5595 216.361 59.4395 216.16C59.3257 215.962 59.1585 215.8 58.9569 215.693C58.7597 215.591 58.5374 215.548 58.3165 215.569C58.0654 215.593 57.823 215.673 57.6074 215.803C57.3838 215.94 57.1897 216.12 57.0368 216.332C56.8961 216.52 56.8075 216.742 56.7797 216.975C56.7539 217.207 56.8045 217.44 56.924 217.641L55.2326 218.663C54.9629 218.219 54.8403 217.701 54.8824 217.183C54.9425 216.647 55.1332 216.135 55.4377 215.69C55.7906 215.187 56.2505 214.769 56.7843 214.465C57.2981 214.142 57.8788 213.939 58.4825 213.874C58.9917 213.819 59.5063 213.903 59.9713 214.118C60.4222 214.322 60.7967 214.665 61.0411 215.095C61.1839 215.311 61.2807 215.554 61.3257 215.809C61.3706 216.063 61.3626 216.325 61.3023 216.576C61.1976 217.079 60.9213 217.529 60.5207 217.851C61.0692 217.57 61.701 217.496 62.2993 217.644C62.83 217.805 63.2776 218.165 63.5478 218.649C63.8255 219.089 63.9487 219.61 63.898 220.128C63.828 220.672 63.616 221.187 63.2833 221.623C62.9237 222.171 62.4499 222.634 61.8943 222.981Z" fill="white"/>
<path d="M69.972 209.919C69.8737 209.774 69.7449 209.653 69.5947 209.563C69.4445 209.473 69.2765 209.417 69.1024 209.399C68.6887 209.388 68.2816 209.503 67.9346 209.729C67.6823 209.873 67.4587 210.063 67.2753 210.289C67.1265 210.461 67.0364 210.675 67.0178 210.902C66.9933 211.098 67.0385 211.297 67.1456 211.464C67.2158 211.61 67.3326 211.728 67.4776 211.8C67.6192 211.877 67.7786 211.916 67.9397 211.912C68.1225 211.93 68.3068 211.927 68.489 211.903C68.6892 211.863 68.8867 211.81 69.0804 211.745L69.9374 211.479C70.3265 211.345 70.7278 211.249 71.1356 211.193C71.4997 211.141 71.8686 211.136 72.2341 211.175C72.5812 211.248 72.909 211.393 73.1963 211.6C73.4836 211.808 73.7239 212.074 73.9016 212.381C74.1953 212.844 74.3388 213.386 74.3124 213.934C74.2582 214.476 74.0558 214.993 73.7274 215.428C72.8362 216.507 71.5995 217.245 70.2266 217.518C69.6466 217.619 69.0494 217.541 68.5154 217.293C67.9523 217.025 67.4843 216.592 67.1741 216.052L68.8803 215.03C69.0413 215.276 69.2718 215.469 69.5425 215.584C69.8025 215.685 70.086 215.712 70.3604 215.66C70.6798 215.598 70.9851 215.477 71.2605 215.304C71.5315 215.155 71.7705 214.955 71.9638 214.713C72.1267 214.523 72.2312 214.289 72.2649 214.04C72.2923 213.818 72.2415 213.593 72.1211 213.404C72.0302 213.226 71.8737 213.09 71.6845 213.025C71.4585 212.982 71.2261 212.986 71.0016 213.036C70.6918 213.086 70.3854 213.155 70.0843 213.244L69.0353 213.572C68.3501 213.811 67.6157 213.874 66.8999 213.755C66.5823 213.696 66.2821 213.566 66.0219 213.375C65.7617 213.184 65.5482 212.936 65.3975 212.65C65.1195 212.208 64.9819 211.693 65.0027 211.171C65.0594 210.605 65.266 210.063 65.6013 209.603C65.9941 209.077 66.493 208.639 67.0658 208.317C67.613 207.963 68.2344 207.74 68.8818 207.665C69.4282 207.59 69.9848 207.668 70.4891 207.892C70.9867 208.122 71.402 208.499 71.6793 208.971L69.972 209.919Z" fill="white"/>
<path d="M76.5122 214.077L71.5238 205.737L74.8186 203.769C75.3632 203.416 75.9882 203.207 76.6353 203.161C77.2031 203.133 77.767 203.268 78.2601 203.551C78.7769 203.853 79.2041 204.287 79.4977 204.808C79.8053 205.313 79.9828 205.887 80.0143 206.478C80.0271 207.047 79.8706 207.608 79.5648 208.089C79.1924 208.648 78.6904 209.11 78.1013 209.434L75.9979 210.685L75.1577 209.213L76.9669 208.13C77.2628 207.967 77.514 207.733 77.6985 207.45C77.8407 207.212 77.9087 206.937 77.8938 206.66C77.8839 206.365 77.7919 206.079 77.6282 205.833C77.4826 205.576 77.2749 205.36 77.0242 205.204C76.7875 205.06 76.5103 204.996 76.2344 205.023C75.897 205.052 75.5722 205.164 75.2893 205.35L74.0979 206.067L78.3218 213.023L76.5122 214.077Z" fill="white"/>
<path d="M80.7167 200.23L85.6754 208.57L83.9103 209.623L78.9219 201.283L80.7167 200.23Z" fill="white"/>
<path d="M89.1447 195.181L94.1331 203.521L92.6628 204.435L85.843 201.381L88.9855 206.632L87.2204 207.685L82.2172 199.345L83.7763 198.414L90.5077 201.515L87.3652 196.264L89.1447 195.181Z" fill="white"/>
<path d="M100.751 193.897C101.256 194.687 101.556 195.591 101.624 196.526C101.675 197.326 101.492 198.124 101.097 198.822C100.7 199.527 100.119 200.111 99.4158 200.511C98.7225 200.944 97.9276 201.187 97.1107 201.216C96.3102 201.226 95.5236 201.007 94.8436 200.584C94.0576 200.079 93.4049 199.391 92.9407 198.58C92.4372 197.789 92.1372 196.886 92.0673 195.951C92.0188 195.153 92.1965 194.358 92.5801 193.656C92.9932 192.957 93.5739 192.372 94.2698 191.954C94.9658 191.536 95.755 191.298 96.566 191.261C97.3712 191.251 98.1626 191.47 98.848 191.893C99.6406 192.391 100.295 193.08 100.751 193.897ZM98.9563 194.965C98.6675 194.447 98.2763 193.994 97.8066 193.632C97.4341 193.352 96.9872 193.189 96.5221 193.163C96.0629 193.141 95.6084 193.263 95.2209 193.51C94.8208 193.739 94.4961 194.08 94.2862 194.49C94.0924 194.919 94.0278 195.394 94.1001 195.859C94.194 196.442 94.4049 196.999 94.7202 197.498C95.0153 198.015 95.4113 198.468 95.8847 198.83C96.2551 199.116 96.7025 199.285 97.1695 199.315C97.63 199.331 98.0843 199.204 98.4704 198.952C98.8738 198.728 99.1997 198.386 99.4051 197.972C99.5986 197.549 99.6633 197.078 99.5914 196.618C99.4925 196.03 99.2765 195.468 98.9563 194.965ZM93.2459 191.641L93.0003 189.269L94.6035 188.308L94.4667 190.909L93.2459 191.641Z" fill="white"/>
<path d="M106.106 196.351L98.7348 189.445L100.662 188.286L105.507 193.257L103.559 186.562L105.207 185.57L110.2 190.465L108.104 183.831L110.031 182.687L112.637 192.446L110.916 193.468L106.15 188.881L107.826 195.284L106.106 196.351Z" fill="white"/>
<path d="M100.567 267.896L99.3071 267.124L98.3727 262.514C98.2779 262.111 98.1818 261.767 98.0995 261.468C98.0135 261.212 97.8996 260.965 97.7598 260.733C97.6177 260.53 97.4344 260.358 97.2218 260.231C97.0069 260.089 96.7564 260.012 96.4992 260.006C96.2557 260.013 96.0184 260.085 95.8114 260.213C95.5931 260.364 95.407 260.557 95.2638 260.78C95.1233 261.013 95.0409 261.276 95.0236 261.547C95.0081 261.794 95.07 262.039 95.2006 262.249C95.3446 262.482 95.5444 262.675 95.7818 262.812L94.7784 264.482C94.2698 264.197 93.856 263.77 93.5887 263.252C93.3359 262.76 93.23 262.206 93.2835 261.656C93.3484 261.042 93.555 260.452 93.8872 259.932C94.2017 259.388 94.6334 258.921 95.151 258.565C95.5931 258.261 96.1116 258.088 96.6474 258.064C97.1697 258.041 97.6859 258.183 98.1233 258.469C98.4455 258.656 98.7234 258.911 98.9379 259.215C99.2153 259.603 99.4263 260.035 99.5623 260.492C99.785 261.192 99.9622 261.905 100.093 262.628L100.539 264.554L102.668 261.068L104.133 261.948L100.567 267.896Z" fill="#C628B3"/>
<path d="M107.099 257.56C106.73 258.2 106.167 258.707 105.492 259.008C104.81 259.311 104.052 259.402 103.318 259.271C102.4 259.104 101.524 258.756 100.742 258.247C99.939 257.792 99.2358 257.18 98.6743 256.447C98.2138 255.862 97.9493 255.146 97.9182 254.401C97.8872 253.657 98.0913 252.922 98.5016 252.3C98.8879 251.679 99.4392 251.177 100.094 250.851C100.771 250.55 101.523 250.458 102.253 250.588C103.166 250.749 104.037 251.092 104.814 251.597C105.627 252.057 106.34 252.674 106.911 253.412C107.364 254.006 107.632 254.72 107.681 255.464C107.711 256.207 107.508 256.94 107.099 257.56ZM105.634 256.68C105.787 256.448 105.871 256.177 105.878 255.899C105.884 255.62 105.812 255.346 105.67 255.107C105.199 254.376 104.548 253.778 103.779 253.371C103.254 253.037 102.685 252.779 102.089 252.604C101.674 252.475 101.232 252.465 100.812 252.575C100.641 252.622 100.481 252.703 100.341 252.811C100.201 252.92 100.083 253.056 99.9956 253.21C99.8602 253.433 99.7857 253.687 99.7798 253.948C99.7739 254.208 99.8366 254.466 99.9618 254.694C100.422 255.42 101.063 256.014 101.823 256.415C102.354 256.76 102.934 257.024 103.543 257.197C103.964 257.318 104.409 257.328 104.835 257.226C105.155 257.139 105.436 256.946 105.634 256.68Z" fill="#C628B3"/>
<path d="M108.18 242.051C108.024 241.974 107.852 241.932 107.678 241.928C107.504 241.924 107.331 241.958 107.171 242.028C106.794 242.205 106.485 242.5 106.29 242.869C106.14 243.115 106.028 243.383 105.961 243.663C105.9 243.876 105.895 244.101 105.946 244.316C106.02 244.508 106.158 244.668 106.336 244.771C106.468 244.858 106.621 244.908 106.778 244.915C106.94 244.907 107.098 244.865 107.242 244.791C107.402 244.712 107.553 244.616 107.694 244.505C107.86 244.375 108.012 244.23 108.164 244.085L108.787 243.446C109.071 243.148 109.386 242.881 109.726 242.65C110.024 242.436 110.354 242.268 110.703 242.153C111.03 242.052 111.375 242.024 111.714 242.072C112.165 242.136 112.594 242.309 112.963 242.577C113.332 242.844 113.631 243.197 113.833 243.605C114.048 244.123 114.112 244.69 114.018 245.243C113.905 245.925 113.653 246.577 113.277 247.157C112.925 247.765 112.459 248.299 111.904 248.729C111.419 249.092 110.834 249.298 110.228 249.318C109.622 249.339 109.025 249.174 108.516 248.845L109.549 247.146C109.803 247.295 110.099 247.359 110.392 247.329C110.671 247.3 110.936 247.192 111.156 247.019C111.41 246.816 111.627 246.569 111.796 246.291C111.96 246.025 112.073 245.73 112.128 245.423C112.202 245.187 112.207 244.935 112.145 244.695C112.06 244.489 111.914 244.315 111.725 244.196C111.554 244.086 111.349 244.045 111.149 244.079C110.927 244.123 110.717 244.215 110.534 244.347C110.281 244.536 110.043 244.744 109.822 244.969L109.047 245.739C108.549 246.273 107.928 246.677 107.238 246.915C106.932 247.005 106.609 247.025 106.295 246.974C105.98 246.923 105.68 246.803 105.418 246.621C104.937 246.353 104.56 245.931 104.346 245.423C104.129 244.901 104.06 244.329 104.146 243.77C104.236 243.121 104.462 242.499 104.812 241.944C105.131 241.369 105.573 240.872 106.107 240.489C106.55 240.179 107.066 239.991 107.605 239.944C108.124 239.928 108.637 240.064 109.081 240.334L108.18 242.051Z" fill="#C628B3"/>
<path d="M115.903 242.672L107.598 237.627L109.603 234.346C109.919 233.775 110.381 233.298 110.942 232.966C111.424 232.676 111.978 232.529 112.541 232.542C113.138 232.578 113.716 232.764 114.221 233.085C114.734 233.39 115.164 233.818 115.47 234.331C115.744 234.827 115.865 235.393 115.819 235.958C115.756 236.618 115.538 237.254 115.183 237.814L113.917 239.894L112.452 239.044L113.548 237.228C113.731 236.944 113.845 236.621 113.881 236.285C113.893 236.009 113.827 235.734 113.691 235.493C113.532 235.249 113.318 235.046 113.066 234.9C112.817 234.741 112.534 234.643 112.241 234.614C111.963 234.607 111.689 234.678 111.449 234.819C111.171 235.015 110.938 235.268 110.764 235.56L110.054 236.747L116.909 240.913L115.903 242.672Z" fill="#C628B3"/>
<path d="M113.168 228.472L121.473 233.532L120.409 235.275L112.103 230.23L113.168 228.472Z" fill="#C628B3"/>
<path d="M118.275 220.079L126.58 225.139L125.656 226.603L118.22 227.043L123.449 230.221L122.385 231.979L114.08 226.918L115.019 225.455L122.454 225.045L117.239 221.882L118.275 220.079Z" fill="#C628B3"/>
<path d="M127.944 213.527C128.759 213.993 129.447 214.651 129.949 215.444C130.361 216.134 130.569 216.927 130.551 217.73C130.523 218.541 130.28 219.33 129.845 220.016C129.429 220.717 128.838 221.297 128.129 221.699C127.425 222.078 126.628 222.25 125.83 222.196C124.895 222.122 123.994 221.816 123.207 221.305C122.399 220.835 121.716 220.178 121.216 219.388C120.797 218.707 120.587 217.917 120.615 217.117C120.642 216.306 120.886 215.517 121.32 214.832C121.73 214.131 122.317 213.55 123.022 213.148C123.722 212.757 124.521 212.58 125.32 212.636C126.254 212.717 127.154 213.023 127.944 213.527ZM126.863 215.314C126.363 214.991 125.802 214.771 125.215 214.668C124.755 214.593 124.284 214.654 123.859 214.845C123.444 215.048 123.1 215.371 122.873 215.773C122.614 216.16 122.485 216.618 122.504 217.083C122.522 217.548 122.688 217.995 122.977 218.359C123.331 218.84 123.783 219.24 124.302 219.533C124.798 219.852 125.354 220.066 125.936 220.164C126.4 220.24 126.876 220.178 127.306 219.988C127.721 219.791 128.065 219.473 128.292 219.075C128.544 218.683 128.669 218.223 128.65 217.758C128.631 217.292 128.47 216.844 128.188 216.473C127.83 216.001 127.379 215.607 126.863 215.314ZM120.246 215.03L118.925 213.039L119.897 211.443L120.987 213.799L120.246 215.03Z" fill="#C628B3"/>
<path d="M133.832 213.201L124.077 210.528L125.249 208.61L131.853 210.75L127.008 205.724L128.01 204.084L134.707 206.093L134.709 206.018L129.756 201.123L130.928 199.205L137.784 206.623L136.735 208.337L130.358 206.617L130.357 206.691L134.881 211.487L133.832 213.201Z" fill="#C628B3"/>
<path d="M164.079 275.133C164.083 275.752 163.953 276.364 163.7 276.928C163.466 277.422 163.111 277.849 162.669 278.171C162.231 278.471 161.714 278.634 161.183 278.639L161.192 276.65C161.368 276.643 161.541 276.597 161.698 276.515C161.855 276.434 161.992 276.319 162.099 276.179C162.338 275.88 162.466 275.508 162.461 275.126C162.466 274.826 162.395 274.53 162.257 274.264C162.105 274.024 161.897 273.824 161.651 273.682C161.376 273.54 161.07 273.467 160.761 273.47C160.445 273.464 160.132 273.539 159.854 273.689C159.599 273.826 159.388 274.03 159.243 274.28C159.103 274.546 159.026 274.84 159.016 275.14C159.015 275.427 159.075 275.71 159.19 275.972C159.293 276.221 159.461 276.438 159.677 276.598L159.328 278.423L154.208 277.939L154.235 272.001L155.912 272.008L155.893 276.254L158.327 276.518C158.07 276.312 157.867 276.046 157.736 275.743C157.58 275.377 157.501 274.982 157.504 274.584C157.496 274.031 157.642 273.486 157.927 273.012C158.215 272.539 158.626 272.152 159.116 271.893C159.606 271.633 160.157 271.512 160.71 271.54C161.325 271.522 161.932 271.679 162.46 271.993C162.966 272.306 163.38 272.749 163.657 273.276C163.941 273.853 164.086 274.49 164.079 275.133Z" fill="white"/>
<path d="M157.103 261.62C156.925 261.628 156.751 261.676 156.593 261.76C156.436 261.844 156.3 261.962 156.195 262.106C155.968 262.448 155.857 262.853 155.878 263.263C155.869 263.556 155.913 263.848 156.008 264.125C156.089 264.332 156.227 264.513 156.406 264.646C156.563 264.769 156.755 264.838 156.954 264.842C157.116 264.851 157.277 264.81 157.415 264.725C157.549 264.644 157.661 264.533 157.743 264.4C157.849 264.243 157.934 264.074 157.998 263.896C158.064 263.702 158.119 263.504 158.164 263.303L158.391 262.428C158.471 262.029 158.598 261.641 158.767 261.272C158.916 260.939 159.112 260.63 159.35 260.354C159.588 260.086 159.882 259.873 160.211 259.731C160.54 259.589 160.896 259.521 161.255 259.531C161.783 259.531 162.299 259.689 162.737 259.983C163.184 260.316 163.531 260.764 163.741 261.279C163.99 261.928 164.108 262.62 164.088 263.315C164.101 264.015 163.976 264.71 163.722 265.362C163.51 265.91 163.135 266.38 162.647 266.709C162.121 267.05 161.505 267.228 160.878 267.22L160.887 265.216C161.181 265.206 161.466 265.109 161.705 264.937C161.929 264.767 162.1 264.536 162.198 264.272C162.309 263.967 162.366 263.646 162.366 263.322C162.376 263.009 162.327 262.696 162.221 262.401C162.136 262.167 161.988 261.961 161.794 261.805C161.623 261.664 161.407 261.589 161.186 261.594C160.98 261.584 160.778 261.653 160.621 261.785C160.456 261.937 160.329 262.124 160.247 262.333C160.13 262.627 160.035 262.929 159.961 263.237L159.689 264.29C159.53 265.002 159.207 265.666 158.745 266.231C158.53 266.467 158.264 266.652 157.968 266.771C157.672 266.891 157.353 266.942 157.034 266.921C156.502 266.929 155.982 266.765 155.552 266.454C155.095 266.111 154.739 265.654 154.518 265.128C154.269 264.525 154.145 263.878 154.156 263.225C154.15 262.578 154.279 261.936 154.535 261.342C154.766 260.837 155.126 260.403 155.58 260.084C156.023 259.795 156.539 259.637 157.067 259.631L157.103 261.62Z" fill="white"/>
<path d="M164.022 258.163L154.298 258.119L154.315 254.288C154.301 253.633 154.452 252.985 154.754 252.404C155.018 251.905 155.422 251.494 155.918 251.222C156.444 250.945 157.032 250.805 157.627 250.814C158.224 250.806 158.813 250.957 159.332 251.252C159.829 251.53 160.231 251.951 160.485 252.46C160.771 253.058 160.911 253.715 160.892 254.377L160.881 256.812L159.233 256.805L159.242 254.696C159.256 254.358 159.186 254.021 159.039 253.716C158.911 253.467 158.71 253.264 158.463 253.134C158.199 253.005 157.91 252.938 157.617 252.936C157.324 252.935 157.035 253 156.77 253.126C156.531 253.262 156.335 253.462 156.203 253.703C156.056 254.013 155.983 254.353 155.991 254.697L155.985 256.077L164.032 256.114L164.022 258.163Z" fill="white"/>
<path d="M154.346 247.37L164.071 247.414L164.062 249.463L154.337 249.418L154.346 247.37Z" fill="white"/>
<path d="M154.391 237.586L164.116 237.63L164.107 239.411L157.971 243.615L164.088 243.643L164.079 245.706L154.354 245.662L154.362 243.851L160.498 239.692L160.499 239.603L154.382 239.575L154.391 237.586Z" fill="white"/>
<path d="M159.309 226.992C160.245 226.966 161.173 227.175 162.008 227.598C162.716 227.972 163.301 228.542 163.693 229.239C164.091 229.946 164.292 230.747 164.277 231.558C164.293 232.375 164.084 233.18 163.672 233.886C163.267 234.58 162.672 235.144 161.958 235.511C161.121 235.92 160.198 236.12 159.268 236.093C158.327 236.113 157.396 235.905 156.553 235.487C155.846 235.113 155.261 234.543 154.868 233.846C154.463 233.136 154.262 232.329 154.285 231.512C154.277 230.701 154.486 229.903 154.889 229.199C155.288 228.505 155.878 227.941 156.589 227.574C157.433 227.156 158.368 226.957 159.309 226.992ZM159.299 229.071C158.705 229.049 158.113 229.152 157.561 229.374C157.246 229.511 156.964 229.714 156.733 229.968C156.503 230.223 156.33 230.524 156.226 230.852C156.122 231.179 156.089 231.525 156.129 231.866C156.17 232.207 156.283 232.535 156.461 232.829C156.731 233.215 157.106 233.516 157.541 233.695C158.655 234.115 159.883 234.121 161.001 233.711C161.438 233.536 161.816 233.238 162.088 232.854C162.285 232.567 162.414 232.239 162.466 231.894C162.519 231.55 162.492 231.198 162.39 230.865C162.287 230.532 162.111 230.226 161.874 229.971C161.636 229.716 161.345 229.517 161.02 229.39C160.475 229.164 159.889 229.055 159.299 229.071ZM153.48 232.236L151.332 231.217L151.34 229.361L153.486 230.856L153.48 232.236Z" fill="white"/>
<path d="M164.179 223.659L154.442 226.391L154.452 224.149L161.215 222.576L161.215 222.487L154.468 220.645L154.477 218.715L161.255 216.979L161.255 216.89L154.492 215.256L154.503 213.014L164.215 215.835L164.205 217.839L157.843 219.666L164.189 221.536L164.179 223.659Z" fill="white"/>
<path d="M220.716 265.497L228.659 259.898L229.84 261.579L223.494 266.049L225.913 267.066L224.429 268.125L221.795 267.039L220.716 265.497Z" fill="#0E5DF8"/>
<path d="M225.298 254.763C225.752 255.363 226.007 256.091 226.025 256.843C226.026 257.59 225.807 258.32 225.396 258.943C224.872 259.715 224.203 260.379 223.427 260.897C222.685 261.451 221.84 261.852 220.941 262.077C220.219 262.245 219.464 262.2 218.767 261.947C218.113 261.662 217.553 261.196 217.154 260.604C216.704 260.013 216.451 259.296 216.432 258.554C216.412 257.812 216.627 257.082 217.045 256.469C217.554 255.695 218.214 255.032 218.985 254.518C219.732 253.963 220.582 253.561 221.486 253.336C222.206 253.133 222.972 253.166 223.672 253.429C224.372 253.692 224.969 254.173 225.376 254.8L225.298 254.763ZM223.898 255.755C223.737 255.526 223.515 255.347 223.258 255.239C223 255.13 222.717 255.097 222.441 255.142C221.587 255.292 220.785 255.652 220.106 256.19C219.585 256.536 219.121 256.96 218.73 257.449C218.447 257.775 218.261 258.174 218.194 258.601C218.166 258.777 218.175 258.957 218.219 259.129C218.263 259.302 218.341 259.464 218.45 259.606C218.61 259.83 218.83 260.004 219.085 260.11C219.339 260.216 219.618 260.249 219.891 260.205C220.74 260.074 221.54 259.723 222.213 259.188C222.727 258.833 223.19 258.41 223.589 257.93C223.874 257.597 224.063 257.193 224.139 256.762C224.198 256.409 224.117 256.047 223.913 255.754L223.898 255.755Z" fill="#0E5DF8"/>
<path d="M211.511 247.596C211.374 247.708 211.262 247.848 211.184 248.007C211.106 248.166 211.063 248.34 211.058 248.517C211.081 248.93 211.226 249.327 211.475 249.657C211.645 249.891 211.85 250.099 212.083 250.272C212.264 250.395 212.478 250.464 212.697 250.469C212.9 250.48 213.1 250.419 213.263 250.299C213.403 250.218 213.512 250.092 213.573 249.942C213.638 249.8 213.665 249.644 213.651 249.488C213.656 249.304 213.64 249.121 213.601 248.941C213.547 248.739 213.479 248.541 213.398 248.348L213.069 247.514C212.906 247.136 212.78 246.743 212.693 246.34C212.616 245.986 212.583 245.623 212.595 245.261C212.634 244.918 212.747 244.587 212.924 244.292C213.11 243.972 213.365 243.699 213.671 243.493C214.114 243.171 214.642 242.988 215.189 242.967C215.734 242.98 216.264 243.144 216.723 243.438C217.3 243.826 217.796 244.323 218.183 244.901C218.593 245.464 218.893 246.099 219.069 246.773C219.212 247.349 219.178 247.954 218.974 248.511C218.743 249.085 218.347 249.578 217.836 249.927L216.69 248.317C216.916 248.138 217.085 247.897 217.177 247.624C217.268 247.351 217.278 247.057 217.206 246.779C217.12 246.465 216.977 246.169 216.784 245.908C216.615 245.649 216.397 245.425 216.142 245.251C215.932 245.117 215.695 245.032 215.449 245.001C215.225 244.99 215.004 245.058 214.825 245.192C214.739 245.244 214.664 245.314 214.605 245.396C214.545 245.478 214.503 245.572 214.481 245.67C214.446 245.894 214.467 246.122 214.542 246.336C214.606 246.643 214.698 246.944 214.817 247.235L215.224 248.256C215.507 248.929 215.625 249.659 215.567 250.387C215.532 250.708 215.425 251.017 215.254 251.291C215.083 251.565 214.851 251.796 214.578 251.968C214.137 252.303 213.598 252.483 213.044 252.48C212.5 252.451 211.971 252.283 211.509 251.994C210.955 251.642 210.481 251.177 210.118 250.63C209.722 250.112 209.452 249.509 209.331 248.868C209.215 248.329 209.252 247.768 209.437 247.248C209.629 246.735 209.973 246.292 210.424 245.98L211.511 247.596Z" fill="#0E5DF8"/>
<path d="M215.167 240.763L207.224 246.362L205.016 243.238C204.623 242.716 204.367 242.104 204.272 241.457C204.202 240.893 204.294 240.321 204.539 239.808C204.801 239.278 205.197 238.826 205.687 238.496C206.169 238.142 206.733 237.916 207.327 237.839C207.894 237.789 208.463 237.903 208.967 238.167C209.551 238.498 210.049 238.964 210.417 239.526L211.821 241.515L210.418 242.478L209.201 240.74C209.008 240.464 208.758 240.233 208.469 240.061C208.22 239.937 207.941 239.89 207.666 239.926C207.372 239.958 207.094 240.071 206.861 240.252C206.616 240.417 206.416 240.64 206.279 240.902C206.154 241.15 206.107 241.429 206.143 241.704C206.21 242.037 206.351 242.35 206.555 242.621L207.359 243.755L213.914 239.118L215.167 240.763Z" fill="#0E5DF8"/>
<path d="M201.045 237.622L208.987 232.008L210.169 233.689L202.226 239.288L201.045 237.622Z" fill="#0E5DF8"/>
<path d="M195.372 229.522L203.314 223.908L204.336 225.306L201.782 232.292L206.783 228.765L207.965 230.446L200.022 236.045L198.985 234.649L201.571 227.689L196.571 231.216L195.372 229.522Z" fill="#0E5DF8"/>
<path d="M193.184 218.107C193.938 217.55 194.815 217.184 195.741 217.039C196.535 216.936 197.342 217.059 198.069 217.394C198.793 217.757 199.415 218.294 199.881 218.957C200.347 219.619 200.643 220.386 200.741 221.19C200.822 221.986 200.667 222.789 200.295 223.497C199.857 224.329 199.213 225.034 198.424 225.546C197.683 226.115 196.808 226.482 195.883 226.613C195.09 226.73 194.281 226.612 193.556 226.273C192.821 225.92 192.191 225.382 191.729 224.71C191.249 224.056 190.952 223.285 190.869 222.478C190.806 221.678 190.959 220.876 191.314 220.156C191.76 219.331 192.403 218.627 193.184 218.107ZM194.384 219.817C193.889 220.144 193.466 220.568 193.141 221.063C192.887 221.46 192.758 221.923 192.77 222.394C192.796 222.85 192.949 223.291 193.213 223.664C193.476 224.038 193.839 224.331 194.26 224.509C194.7 224.678 195.181 224.707 195.639 224.592C196.213 224.455 196.753 224.203 197.226 223.851C197.724 223.523 198.148 223.093 198.468 222.59C198.728 222.201 198.863 221.741 198.855 221.273C198.836 220.812 198.676 220.369 198.396 220.003C198.142 219.617 197.777 219.318 197.349 219.144C196.912 218.983 196.438 218.954 195.984 219.06C195.421 219.207 194.893 219.462 194.428 219.813L194.384 219.817ZM191.482 225.761L189.15 226.183L188.071 224.656L190.66 224.599L191.482 225.761Z" fill="#0E5DF8"/>
<path d="M195.275 212.58L188.94 220.447L187.64 218.613L192.234 213.408L185.687 215.839L184.59 214.269L189.097 208.924L182.639 211.51L181.339 209.675L190.89 206.345L192.038 207.985L187.918 213.161L194.163 211.011L195.275 212.58Z" fill="#0E5DF8"/>
<path d="M259.968 219.995L264.465 211.381L266.289 212.344L262.7 219.226L265.321 219.012L264.482 220.623L261.639 220.861L259.968 219.995Z" fill="white"/>
<path d="M259.341 208.609C259.892 208.887 260.376 209.283 260.757 209.768C261.087 210.194 261.307 210.695 261.398 211.227C261.451 211.743 261.354 212.263 261.119 212.725L259.356 211.803C259.426 211.638 259.458 211.459 259.451 211.279C259.443 211.1 259.396 210.924 259.313 210.765C259.155 210.421 258.887 210.14 258.551 209.965C258.287 209.829 257.993 209.759 257.696 209.763C257.406 209.773 257.126 209.867 256.89 210.034C256.632 210.207 256.426 210.447 256.295 210.728C256.148 211.001 256.069 211.305 256.064 211.615C256.072 211.917 256.162 212.211 256.325 212.466C256.487 212.721 256.716 212.927 256.987 213.062C257.236 213.202 257.514 213.281 257.799 213.295C258.063 213.319 258.327 213.272 258.566 213.159L260.1 214.283L257.31 218.621L252.038 215.87L252.806 214.352L256.574 216.319L257.974 214.269C257.673 214.421 257.335 214.481 257 214.443C256.605 214.418 256.221 214.307 255.872 214.119C255.379 213.87 254.963 213.492 254.667 213.025C254.397 212.582 254.248 212.076 254.234 211.558C254.237 210.957 254.386 210.365 254.669 209.835C254.953 209.306 255.361 208.853 255.86 208.517C256.369 208.21 256.955 208.051 257.55 208.06C258.182 208.097 258.797 208.285 259.341 208.609Z" fill="white"/>
<path d="M244.125 208.624C244.055 208.784 244.023 208.958 244.03 209.133C244.038 209.308 244.085 209.478 244.167 209.632C244.373 209.994 244.686 210.282 245.064 210.457C245.317 210.596 245.593 210.69 245.878 210.735C246.1 210.756 246.323 210.721 246.528 210.633C246.707 210.542 246.852 210.395 246.941 210.214C247.033 210.083 247.074 209.923 247.056 209.764C247.045 209.604 246.998 209.448 246.918 209.309C246.824 209.148 246.713 208.998 246.587 208.862C246.449 208.708 246.299 208.566 246.138 208.435L245.46 207.854C245.152 207.583 244.866 207.286 244.605 206.969C244.376 206.685 244.193 206.366 244.06 206.026C243.941 205.705 243.886 205.364 243.899 205.022C243.924 204.652 244.03 204.292 244.212 203.969C244.451 203.475 244.839 203.069 245.322 202.808C245.82 202.563 246.377 202.462 246.93 202.517C247.622 202.585 248.294 202.795 248.902 203.133C249.531 203.44 250.09 203.871 250.546 204.401C250.931 204.845 251.177 205.393 251.251 205.977C251.307 206.598 251.184 207.222 250.895 207.775L249.133 206.853C249.259 206.588 249.303 206.291 249.26 206.001C249.204 205.725 249.075 205.469 248.888 205.259C248.674 205.011 248.413 204.81 248.12 204.667C247.85 204.518 247.553 204.424 247.246 204.391C247.006 204.332 246.754 204.343 246.519 204.422C246.309 204.51 246.137 204.67 246.033 204.873C245.942 205.053 245.914 205.258 245.954 205.456C246.018 205.675 246.128 205.878 246.276 206.052C246.478 206.29 246.701 206.509 246.942 206.707L247.761 207.446C248.322 207.903 248.76 208.492 249.037 209.161C249.148 209.461 249.192 209.783 249.164 210.103C249.137 210.423 249.038 210.733 248.876 211.01C248.634 211.509 248.233 211.912 247.736 212.157C247.227 212.403 246.662 212.509 246.099 212.464C245.45 212.419 244.818 212.233 244.249 211.918C243.656 211.634 243.132 211.225 242.712 210.719C242.375 210.297 242.154 209.794 242.071 209.26C242.019 208.717 242.125 208.171 242.377 207.687L244.125 208.624Z" fill="white"/>
<path d="M244.245 200.877L239.747 209.476L236.344 207.702C235.732 207.43 235.201 207.001 234.806 206.459C234.48 206 234.302 205.453 234.294 204.891C234.292 204.292 234.441 203.703 234.728 203.178C234.995 202.644 235.395 202.187 235.89 201.852C236.367 201.545 236.924 201.387 237.491 201.398C238.15 201.417 238.794 201.594 239.37 201.914L241.543 203.041L240.774 204.559L238.905 203.583C238.61 203.418 238.281 203.325 237.943 203.311C237.666 203.317 237.397 203.401 237.166 203.552C236.928 203.726 236.734 203.953 236.599 204.214C236.46 204.473 236.386 204.762 236.382 205.056C236.379 205.336 236.469 205.609 236.637 205.833C236.844 206.104 237.113 206.322 237.422 206.468L238.637 207.101L242.422 199.928L244.245 200.877Z" fill="white"/>
<path d="M230.252 204.526L234.749 195.911L236.572 196.86L232.075 205.474L230.252 204.526Z" fill="white"/>
<path d="M221.546 199.973L226.043 191.358L227.564 192.186L228.469 199.578L228.543 199.575L231.377 194.165L233.185 195.115L228.688 203.729L227.166 202.887L226.276 195.494L223.443 200.918L221.546 199.973Z" fill="white"/>
<path d="M214.38 190.704C214.792 189.86 215.404 189.13 216.163 188.578C216.824 188.119 217.602 187.86 218.406 187.83C219.213 187.824 220.009 188.017 220.724 188.391C221.44 188.766 222.052 189.31 222.508 189.976C222.941 190.656 223.17 191.445 223.168 192.251C223.123 193.183 222.876 194.094 222.443 194.92C222.011 195.747 221.404 196.469 220.665 197.038C220.012 197.5 219.237 197.76 218.437 197.785C217.627 197.798 216.826 197.609 216.107 197.235C215.388 196.86 214.774 196.312 214.32 195.64C213.885 194.966 213.656 194.181 213.661 193.379C213.674 192.441 213.922 191.522 214.38 190.704ZM216.219 191.667C215.93 192.187 215.752 192.761 215.695 193.353C215.644 193.817 215.736 194.285 215.96 194.694C216.178 195.098 216.52 195.422 216.935 195.619C217.34 195.853 217.808 195.953 218.273 195.904C218.739 195.855 219.176 195.66 219.524 195.347C219.972 194.959 220.336 194.483 220.594 193.95C220.883 193.434 221.067 192.865 221.133 192.277C221.179 191.809 221.087 191.338 220.868 190.922C220.628 190.531 220.286 190.212 219.88 189.999C219.473 189.786 219.017 189.686 218.559 189.711C218.094 189.768 217.658 189.962 217.304 190.269C216.859 190.673 216.501 191.163 216.25 191.71L216.219 191.667ZM216.363 198.288L214.477 199.734L212.821 198.868L215.102 197.628L216.363 198.288Z" fill="white"/>
<path d="M213.676 184.893L211.639 194.786L209.649 193.755L211.343 187.027L206.641 192.188L204.939 191.293L206.496 184.481L201.932 189.74L199.956 188.694L206.915 181.373L208.692 182.294L207.39 188.783L211.974 183.999L213.676 184.893Z" fill="white"/>
<path d="M275.307 152.035C275.955 152.014 276.599 152.135 277.196 152.389C277.716 152.596 278.171 152.941 278.511 153.386C278.825 153.817 279.001 154.333 279.015 154.867L276.951 154.885C276.94 154.657 276.855 154.439 276.708 154.264C276.55 154.082 276.35 153.941 276.125 153.854C275.863 153.757 275.586 153.709 275.307 153.712C275.025 153.709 274.745 153.772 274.492 153.898C274.263 153.993 274.064 154.149 273.917 154.349C273.788 154.553 273.723 154.792 273.73 155.033C273.731 155.282 273.806 155.524 273.945 155.729C274.11 155.934 274.327 156.091 274.572 156.184C274.874 156.307 275.199 156.364 275.524 156.353L276.385 156.346L276.399 157.83L275.493 157.838C275.207 157.832 274.923 157.89 274.663 158.009C274.442 158.104 274.253 158.261 274.118 158.46C274.021 158.601 273.955 158.761 273.927 158.93C273.898 159.099 273.907 159.272 273.952 159.437C273.997 159.602 274.078 159.756 274.189 159.886C274.3 160.017 274.438 160.121 274.594 160.193C274.815 160.304 275.061 160.357 275.308 160.349C275.573 160.352 275.836 160.299 276.079 160.194C276.299 160.104 276.488 159.953 276.624 159.758C276.77 159.577 276.847 159.35 276.841 159.118L278.816 159.1C278.82 159.632 278.659 160.152 278.354 160.589C278.031 161.027 277.599 161.374 277.101 161.595C276.544 161.851 275.937 161.983 275.323 161.982C274.714 161.996 274.11 161.875 273.553 161.627C273.078 161.419 272.669 161.083 272.371 160.658C272.088 160.25 271.938 159.764 271.943 159.266C271.921 158.767 272.098 158.28 272.435 157.911C272.784 157.529 273.254 157.278 273.765 157.201C273.145 157.162 272.559 156.904 272.11 156.474C271.74 156.071 271.539 155.541 271.547 154.994C271.531 154.46 271.693 153.936 272.009 153.505C272.356 153.062 272.806 152.711 273.321 152.483C273.945 152.199 274.621 152.046 275.307 152.035Z" fill="#3B92E0"/>
<path d="M261.727 159.211C261.738 159.387 261.786 159.559 261.87 159.715C261.953 159.871 262.069 160.006 262.211 160.112C262.561 160.333 262.973 160.438 263.386 160.413C263.679 160.418 263.97 160.37 264.246 160.272C264.452 160.187 264.631 160.047 264.762 159.866C264.861 159.716 264.913 159.54 264.911 159.36C264.91 159.18 264.854 159.005 264.753 158.857C264.67 158.724 264.557 158.613 264.423 158.533C264.265 158.43 264.095 158.347 263.916 158.285L263.321 158.128L262.443 157.928C262.044 157.841 261.655 157.715 261.281 157.552C260.947 157.408 260.635 157.216 260.356 156.982C260.084 156.747 259.868 156.456 259.721 156.129C259.574 155.802 259.501 155.447 259.507 155.089C259.499 154.558 259.655 154.038 259.954 153.6C260.273 153.148 260.712 152.794 261.221 152.579C261.867 152.32 262.557 152.193 263.252 152.204C263.951 152.182 264.649 152.297 265.304 152.542C265.855 152.747 266.33 153.115 266.665 153.598C267.013 154.12 267.2 154.733 267.201 155.36L265.211 155.378C265.197 155.084 265.097 154.801 264.922 154.564C264.748 154.343 264.515 154.175 264.249 154.081C263.944 153.973 263.621 153.92 263.297 153.926C262.984 153.92 262.672 153.973 262.378 154.083C262.146 154.172 261.942 154.322 261.788 154.519C261.65 154.691 261.578 154.908 261.586 155.129C261.579 155.335 261.65 155.536 261.784 155.692C261.938 155.854 262.127 155.979 262.337 156.058C262.633 156.171 262.936 156.262 263.245 156.332L264.302 156.589C265.016 156.738 265.685 157.052 266.255 157.507C266.494 157.718 266.683 157.981 266.806 158.276C266.93 158.57 266.985 158.889 266.968 159.208C266.984 159.739 266.827 160.262 266.522 160.697C266.186 161.158 265.733 161.52 265.21 161.748C264.611 162.006 263.965 162.138 263.313 162.136C262.665 162.151 262.022 162.031 261.424 161.782C260.912 161.566 260.472 161.21 260.153 160.755C259.857 160.316 259.693 159.803 259.679 159.274L261.727 159.211Z" fill="#3B92E0"/>
<path d="M258.175 152.324L258.264 162.049L254.433 162.084C253.779 162.107 253.129 161.965 252.544 161.67C252.041 161.414 251.624 161.015 251.346 160.523C251.062 160 250.913 159.415 250.915 158.82C250.898 158.222 251.041 157.632 251.33 157.108C251.607 156.613 252.021 156.207 252.522 155.939C253.115 155.645 253.77 155.496 254.433 155.506L256.868 155.484L256.883 157.132L254.775 157.151C254.436 157.143 254.1 157.217 253.797 157.368C253.55 157.5 253.35 157.703 253.223 157.952C253.098 158.217 253.034 158.507 253.037 158.8C253.039 159.093 253.108 159.382 253.238 159.645C253.378 159.882 253.58 160.075 253.822 160.204C254.135 160.347 254.476 160.415 254.819 160.402L256.2 160.39L256.126 152.343L258.175 152.324Z" fill="#3B92E0"/>
<path d="M247.56 162.146L247.471 152.422L249.52 152.403L249.608 162.128L247.56 162.146Z" fill="#3B92E0"/>
<path d="M237.731 162.236L237.643 152.512L239.424 152.495L243.74 158.529L243.685 152.412L245.733 152.393L245.822 162.118L244.011 162.134L239.768 156.056L239.679 156.056L239.735 162.173L237.731 162.236Z" fill="#3B92E0"/>
<path d="M227.072 157.463C227.033 156.527 227.229 155.597 227.641 154.756C228.005 154.043 228.567 153.451 229.259 153.048C229.967 152.652 230.765 152.44 231.577 152.433C232.389 152.426 233.19 152.623 233.906 153.006C234.605 153.401 235.177 153.989 235.554 154.698C235.974 155.529 236.187 156.449 236.173 157.38C236.205 158.32 236.01 159.254 235.603 160.102C235.239 160.815 234.678 161.408 233.986 161.81C233.277 162.206 232.48 162.418 231.668 162.425C230.856 162.433 230.055 162.236 229.339 161.852C228.64 161.463 228.068 160.88 227.69 160.175C227.262 159.336 227.049 158.404 227.072 157.463ZM229.15 157.444C229.136 158.039 229.248 158.63 229.478 159.178C229.619 159.492 229.825 159.771 230.083 159.998C230.341 160.225 230.644 160.394 230.973 160.493C231.302 160.593 231.648 160.621 231.988 160.576C232.329 160.53 232.656 160.413 232.947 160.231C233.33 159.956 233.625 159.577 233.798 159.139C234.012 158.585 234.108 157.992 234.079 157.399C234.095 156.806 233.988 156.216 233.766 155.665C233.582 155.236 233.28 154.869 232.896 154.604C232.606 154.414 232.277 154.29 231.933 154.243C231.589 154.196 231.239 154.227 230.909 154.332C230.578 154.438 230.275 154.616 230.022 154.853C229.769 155.09 229.572 155.381 229.446 155.704C229.229 156.258 229.128 156.85 229.15 157.444ZM232.395 163.22L231.405 165.382L229.549 165.399L231.014 163.233L232.395 163.22Z" fill="#3B92E0"/>
<path d="M223.687 152.639L226.552 162.338L224.31 162.358L222.645 155.618L222.556 155.619L220.851 162.39L218.921 162.407L217.093 155.654L216.989 155.655L215.447 162.439L213.205 162.46L215.893 152.71L217.897 152.692L219.796 159.029L219.885 159.028L221.668 152.657L223.687 152.639Z" fill="#3B92E0"/>
<path d="M262.43 90.2044L263.237 91.4413L262.073 95.9614C261.99 96.3671 261.918 96.7127 261.874 97.0123C261.846 97.2847 261.86 97.5599 261.916 97.8278C261.944 98.0743 262.033 98.3099 262.175 98.5132C262.309 98.733 262.504 98.9089 262.736 99.0194C262.955 99.1255 263.2 99.1646 263.441 99.1317C263.703 99.1031 263.954 99.0083 264.17 98.8562C264.403 98.7183 264.597 98.5243 264.735 98.2918C264.842 98.0671 264.891 97.8193 264.877 97.5709C264.845 97.2929 264.744 97.0273 264.584 96.7981L266.224 95.7471C266.561 96.2226 266.751 96.7867 266.769 97.3692C266.77 97.9022 266.622 98.4248 266.342 98.8779C266.012 99.4046 265.568 99.8495 265.041 100.179C264.522 100.525 263.936 100.757 263.322 100.862C262.79 100.939 262.246 100.869 261.751 100.661C261.266 100.446 260.859 100.088 260.583 99.6361C260.374 99.33 260.234 98.9821 260.173 98.6166C260.061 98.1306 260.035 97.6287 260.097 97.1338C260.207 96.4045 260.358 95.6819 260.55 94.9696L260.985 93.0293L257.562 95.2577L256.64 93.8186L262.43 90.2044Z" fill="white"/>
<path d="M252.06 96.6717C252.672 96.2397 253.407 96.0147 254.157 96.0295C254.906 96.0443 255.631 96.2981 256.227 96.7539C256.984 97.2943 257.622 97.9851 258.101 98.7831C258.625 99.5467 258.993 100.407 259.183 101.314C259.348 102.041 259.277 102.801 258.981 103.484C258.685 104.168 258.179 104.74 257.535 105.116C256.926 105.544 256.197 105.769 255.452 105.759C254.707 105.75 253.984 105.506 253.385 105.062C252.628 104.527 251.991 103.841 251.512 103.048C250.984 102.28 250.616 101.415 250.429 100.502C250.279 99.773 250.343 99.0159 250.614 98.3222C250.913 97.6358 251.419 97.0591 252.06 96.6717ZM252.981 98.1108C252.749 98.264 252.565 98.4795 252.449 98.7325C252.333 98.9856 252.291 99.2661 252.327 99.542C252.428 100.409 252.758 101.233 253.283 101.931C253.611 102.458 254.011 102.938 254.471 103.356C254.794 103.641 255.182 103.841 255.601 103.937C255.955 103.989 256.315 103.913 256.616 103.721C256.851 103.57 257.039 103.355 257.157 103.102C257.276 102.848 257.32 102.567 257.285 102.289C257.174 101.436 256.851 100.625 256.346 99.9292C256.016 99.3986 255.61 98.9188 255.143 98.5047C254.821 98.2069 254.425 98.0013 253.997 97.9097C253.647 97.8481 253.286 97.9142 252.981 98.0959L252.981 98.1108Z" fill="white"/>
<path d="M244.357 110.167C244.46 110.308 244.593 110.425 244.746 110.51C244.9 110.594 245.07 110.644 245.244 110.656C245.66 110.664 246.066 110.533 246.399 110.285C246.65 110.136 246.867 109.937 247.038 109.701C247.167 109.522 247.248 109.313 247.275 109.095C247.285 108.893 247.233 108.693 247.126 108.522C247.042 108.386 246.924 108.274 246.782 108.198C246.635 108.135 246.477 108.103 246.317 108.103C246.133 108.091 245.949 108.101 245.768 108.132L245.168 108.311L244.322 108.623C243.935 108.759 243.537 108.864 243.134 108.937C242.778 109.015 242.413 109.034 242.051 108.993C241.713 108.939 241.389 108.819 241.096 108.641C240.787 108.433 240.525 108.163 240.327 107.848C240.037 107.415 239.881 106.905 239.88 106.384C239.903 105.838 240.088 105.311 240.411 104.87C240.82 104.313 241.33 103.837 241.915 103.469C242.499 103.081 243.15 102.805 243.835 102.656C244.411 102.54 245.009 102.597 245.553 102.821C246.12 103.077 246.6 103.491 246.938 104.013L245.269 105.095C245.1 104.855 244.862 104.67 244.588 104.565C244.32 104.47 244.03 104.454 243.753 104.519C243.44 104.592 243.145 104.723 242.881 104.906C242.616 105.066 242.385 105.274 242.199 105.521C242.046 105.719 241.95 105.955 241.922 106.204C241.897 106.431 241.951 106.659 242.074 106.851C242.186 107.015 242.349 107.137 242.538 107.198C242.765 107.24 242.999 107.228 243.22 107.163C243.523 107.097 243.822 107.012 244.114 106.909L245.152 106.558C245.832 106.292 246.568 106.198 247.293 106.284C247.612 106.334 247.915 106.455 248.181 106.636C248.448 106.818 248.671 107.056 248.834 107.334C249.147 107.79 249.3 108.336 249.271 108.887C249.227 109.432 249.038 109.955 248.725 110.402C248.356 110.95 247.873 111.411 247.308 111.754C246.768 112.117 246.157 112.361 245.516 112.471C244.971 112.561 244.412 112.497 243.901 112.287C243.404 112.075 242.982 111.719 242.689 111.264L244.357 110.167Z" fill="white"/>
<path d="M237.658 106.261L242.955 114.402L239.733 116.501C239.19 116.863 238.571 117.093 237.924 117.174C237.363 117.22 236.8 117.104 236.301 116.842C235.78 116.55 235.34 116.134 235.02 115.629C234.683 115.136 234.484 114.561 234.443 113.964C234.41 113.396 234.546 112.83 234.835 112.338C235.18 111.764 235.667 111.288 236.25 110.957L238.307 109.617L239.199 111.058L237.431 112.219C237.138 112.389 236.894 112.632 236.724 112.925C236.575 113.163 236.511 113.443 236.542 113.722C236.58 114.015 236.686 114.295 236.852 114.539C237.005 114.786 237.214 114.995 237.463 115.146C237.709 115.27 237.984 115.323 238.259 115.299C238.6 115.252 238.925 115.123 239.205 114.923L240.356 114.179L235.994 107.432L237.658 106.261Z" fill="white"/>
<path d="M233.964 120.233L228.682 112.076L230.408 110.961L235.691 119.118L233.964 120.233Z" fill="white"/>
<path d="M225.721 125.58L220.439 117.423L221.876 116.457L228.757 119.298L225.43 114.177L227.156 113.047L232.438 121.204L230.928 122.189L224.091 119.345L227.329 124.471L225.721 125.58Z" fill="white"/>
<path d="M214.168 127.276C213.629 126.508 213.296 125.614 213.202 124.68C213.124 123.882 213.279 123.079 213.647 122.367C214.035 121.658 214.593 121.056 215.271 120.616C215.949 120.176 216.726 119.912 217.531 119.847C218.334 119.809 219.131 119.995 219.834 120.383C220.641 120.862 221.319 121.531 221.807 122.332C222.334 123.107 222.666 123.998 222.774 124.929C222.853 125.727 222.698 126.53 222.328 127.241C221.937 127.95 221.376 128.551 220.696 128.991C220.015 129.431 219.237 129.696 218.43 129.762C217.631 129.812 216.835 129.626 216.142 129.226C215.328 128.755 214.649 128.084 214.168 127.276ZM221.705 129.281L222.035 131.642L220.467 132.66L220.497 130.057L221.705 129.281ZM215.864 126.148C216.173 126.659 216.586 127.098 217.076 127.438C217.455 127.713 217.909 127.866 218.377 127.876C218.837 127.869 219.284 127.727 219.664 127.468C220.056 127.229 220.364 126.876 220.549 126.456C220.738 126.029 220.792 125.554 220.701 125.095C220.581 124.511 220.346 123.957 220.008 123.466C219.696 122.962 219.29 122.524 218.811 122.175C218.436 121.896 217.982 121.742 217.514 121.737C217.047 121.732 216.589 121.875 216.208 122.146C215.817 122.385 215.508 122.738 215.324 123.158C215.131 123.589 215.083 124.072 215.186 124.533C215.315 125.114 215.561 125.663 215.909 126.146L215.864 126.148Z" fill="white"/>
<path d="M208.715 125.015L216.343 131.668L214.458 132.881L209.423 128.086L211.609 134.723L209.998 135.772L204.819 131.044L207.149 137.599L205.265 138.826L202.312 129.152L203.981 128.07L208.991 132.39L207.073 126.052L208.715 125.015Z" fill="white"/>
<path d="M213.214 54.4627C213.534 53.935 213.961 53.481 214.469 53.1306C214.915 52.829 215.431 52.6486 215.968 52.6071C216.485 52.5858 216.997 52.7132 217.443 52.9742L216.402 54.6686C216.241 54.5904 216.065 54.5474 215.886 54.5425C215.706 54.5376 215.528 54.571 215.363 54.6403C215.006 54.776 214.705 55.0298 214.512 55.3596C214.348 55.6094 214.257 55.9003 214.251 56.1991C214.244 56.4835 214.319 56.7639 214.467 57.007C214.62 57.2722 214.839 57.4932 215.103 57.6482C215.365 57.8245 215.67 57.9254 215.986 57.9397C216.277 57.9616 216.568 57.8972 216.823 57.7546C217.087 57.6075 217.308 57.3932 217.463 57.1335C217.603 56.8866 217.701 56.6182 217.752 56.3393C217.788 56.0734 217.76 55.8028 217.67 55.5499L218.898 54.0982L223.032 57.1816L219.923 62.2357L218.462 61.364L220.685 57.7413L218.736 56.2028C218.852 56.5117 218.889 56.8445 218.844 57.1712C218.793 57.5687 218.656 57.9504 218.442 58.289C218.161 58.7609 217.754 59.1457 217.268 59.4005C216.809 59.6449 216.292 59.7591 215.774 59.731C215.202 59.7036 214.648 59.5244 214.169 59.2119C213.641 58.9008 213.206 58.4528 212.912 57.9151C212.643 57.3849 212.525 56.7906 212.573 56.1978C212.646 55.5768 212.866 54.9821 213.214 54.4627Z" fill="#3B92E0"/>
<path d="M212.161 69.6577C212.318 69.7385 212.492 69.783 212.669 69.7878C212.847 69.7926 213.023 69.7578 213.185 69.6857C213.559 69.5123 213.869 69.2242 214.068 68.8633C214.226 68.6168 214.334 68.3424 214.388 68.0551C214.455 67.8485 214.461 67.6269 214.405 67.4169C214.326 67.228 214.19 67.0685 214.017 66.9607C213.885 66.8726 213.733 66.8221 213.575 66.815C213.414 66.8146 213.256 66.8509 213.112 66.9211C212.948 67.0086 212.791 67.1086 212.643 67.2202C212.483 67.3516 212.331 67.4912 212.186 67.6385L211.545 68.2745C211.268 68.5743 210.957 68.84 210.617 69.066C210.321 69.2806 209.99 69.4424 209.639 69.5443C209.312 69.6488 208.966 69.6799 208.626 69.6354C208.261 69.5866 207.91 69.4606 207.597 69.2657C207.119 68.9875 206.741 68.5669 206.516 68.0628C206.3 67.5502 206.233 66.9874 206.322 66.4386C206.444 65.7563 206.704 65.1062 207.087 64.5287C207.437 63.9186 207.906 63.3857 208.467 62.9623C208.936 62.6081 209.5 62.4012 210.087 62.3679C210.713 62.3548 211.328 62.5266 211.856 62.8618L210.815 64.5562C210.561 64.4059 210.266 64.3406 209.973 64.3699C209.694 64.3974 209.429 64.5035 209.207 64.6757C208.952 64.8782 208.735 65.1235 208.564 65.4007C208.395 65.6603 208.276 65.9493 208.214 66.2526C208.168 66.5012 208.187 66.7573 208.268 66.9967C208.345 67.2066 208.492 67.3836 208.685 67.4983C208.849 67.6086 209.05 67.6513 209.246 67.6176C209.472 67.5774 209.684 67.481 209.862 67.3373C210.119 67.1585 210.358 66.9562 210.577 66.7331L211.355 65.9672C211.858 65.4381 212.48 65.0374 213.17 64.7988C213.478 64.7111 213.801 64.6914 214.118 64.741C214.435 64.7907 214.737 64.9086 215.003 65.0866C215.481 65.3669 215.854 65.7939 216.069 66.3039C216.279 66.8283 216.346 67.3992 216.262 67.9578C216.172 68.6025 215.942 69.2199 215.588 69.7662C215.259 70.3388 214.81 70.8332 214.272 71.2155C213.83 71.5283 213.311 71.7144 212.772 71.7538C212.252 71.7669 211.74 71.6291 211.297 71.357L212.161 69.6577Z" fill="#3B92E0"/>
<path d="M204.455 69.0016L212.723 74.0843L210.718 77.3416C210.399 77.9308 209.936 78.4293 209.371 78.7901C208.885 79.0833 208.323 79.2232 207.756 79.1915C207.165 79.1603 206.591 78.9758 206.092 78.6559C205.57 78.3216 205.147 77.8536 204.867 77.3006C204.595 76.8032 204.477 76.2369 204.525 75.6723C204.585 75.0108 204.806 74.374 205.17 73.8185L206.445 71.7443L207.907 72.6011L206.729 74.381C206.547 74.6651 206.431 74.987 206.391 75.3223C206.376 75.6035 206.44 75.8834 206.577 76.1294C206.735 76.3742 206.948 76.5785 207.2 76.7257C207.448 76.8854 207.73 76.9847 208.024 77.0155C208.296 77.0211 208.566 76.9514 208.801 76.814C209.087 76.6272 209.324 76.3737 209.49 76.0753L210.22 74.8922L203.37 70.68L204.455 69.0016Z" fill="#3B92E0"/>
<path d="M207.127 83.1993L198.904 78.1178L199.976 76.3648L208.258 81.4627L207.127 83.1993Z" fill="#3B92E0"/>
<path d="M201.982 91.5693L193.699 86.4863L194.63 85.0265L202.068 84.6207L196.868 81.419L197.941 79.666L206.223 84.7491L205.277 86.2085L197.841 86.5846L203.039 89.8308L201.982 91.5693Z" fill="#3B92E0"/>
<path d="M199.987 96.624L201.314 98.6059L200.335 100.198L199.241 97.8363L199.987 96.624ZM192.283 98.0918C191.472 97.6387 190.786 96.9924 190.285 96.2104C189.869 95.5271 189.663 94.7362 189.694 93.9366C189.725 93.1256 189.972 92.3376 190.41 91.654C190.823 90.9552 191.412 90.3771 192.119 89.9778C192.828 89.5957 193.632 89.4268 194.434 89.4916C195.366 89.563 196.263 89.8741 197.038 90.3945C197.858 90.855 198.546 91.5182 199.035 92.3204C199.452 93.0037 199.658 93.7946 199.627 94.5942C199.596 95.4052 199.349 96.1932 198.911 96.8768C198.498 97.5756 197.908 98.1536 197.202 98.5529C196.496 98.9315 195.699 99.1052 194.901 99.0545C193.963 98.951 193.065 98.6206 192.283 98.0918ZM193.372 96.3095C193.866 96.6335 194.421 96.8556 195.002 96.963C195.466 97.0407 195.943 96.9814 196.374 96.7926C196.692 96.6482 196.973 96.4343 197.197 96.1665C197.421 95.8988 197.583 95.584 197.669 95.2456C197.755 94.9072 197.764 94.5537 197.696 94.2113C197.627 93.8689 197.482 93.5463 197.272 93.2674C196.912 92.7973 196.463 92.4017 195.952 92.1025C195.453 91.7766 194.893 91.5542 194.306 91.4486C193.846 91.3769 193.374 91.4414 192.95 91.6343C192.532 91.8247 192.185 92.1428 191.96 92.543C191.71 92.9293 191.579 93.38 191.583 93.8397C191.607 94.3115 191.77 94.7656 192.052 95.1447C192.412 95.6116 192.86 96.0025 193.372 96.2947L193.372 96.3095Z" fill="#3B92E0"/>
<path d="M186.393 98.3913L196.122 101.108L194.956 103.022L188.361 100.851L193.184 105.899L192.174 107.535L185.486 105.496L190.417 110.413L189.236 112.326L182.414 104.862L183.363 103.314L189.745 105.107L185.289 100.218L186.393 98.3913Z" fill="#3B92E0"/>
<defs>
<linearGradient id="paint0_linear_6709_17538" x1="279.272" y1="37.9365" x2="45.6099" y2="271.584" gradientUnits="userSpaceOnUse">
<stop stop-color="#0E5DF8"/>
<stop offset="0.31" stop-color="#0F4EE0"/>
<stop offset="0.96" stop-color="#1026A3"/>
<stop offset="1" stop-color="#10249F"/>
</linearGradient>
<linearGradient id="paint1_linear_6709_17538" x1="56.5967" y1="56.8367" x2="272.947" y2="273.187" gradientUnits="userSpaceOnUse">
<stop stop-color="#FFFB90"/>
<stop offset="0.14" stop-color="#FBEA78"/>
<stop offset="0.24" stop-color="#F8DC65"/>
<stop offset="0.27" stop-color="#E6C758"/>
<stop offset="0.34" stop-color="#C5A041"/>
<stop offset="0.4" stop-color="#AD8330"/>
<stop offset="0.45" stop-color="#9E7226"/>
<stop offset="0.49" stop-color="#996C22"/>
<stop offset="0.52" stop-color="#9D7126"/>
<stop offset="0.56" stop-color="#AA8131"/>
<stop offset="0.6" stop-color="#BE9B42"/>
<stop offset="0.64" stop-color="#DABE5B"/>
<stop offset="0.69" stop-color="#FBE878"/>
<stop offset="0.77" stop-color="#FFFFAA"/>
<stop offset="0.83" stop-color="#FBE878"/>
<stop offset="1" stop-color="#A4631B"/>
</linearGradient>
<radialGradient id="paint2_radial_6709_17538" cx="0" cy="0" r="1" gradientUnits="userSpaceOnUse" gradientTransform="translate(158.477 158.732) scale(148.841)">
<stop offset="0.37" stop-color="#FDFDFD"/>
<stop offset="0.65" stop-color="#FBFBFB"/>
<stop offset="0.81" stop-color="#F2F2F2"/>
<stop offset="0.94" stop-color="#E4E4E4"/>
<stop offset="1" stop-color="#DBDBDB"/>
</radialGradient>
<linearGradient id="paint3_linear_6709_17538" x1="239.007" y1="31.3148" x2="57.1313" y2="213.19" gradientUnits="userSpaceOnUse">
<stop stop-color="#50DBFF"/>
<stop offset="0.52" stop-color="#2069FF"/>
<stop offset="0.76" stop-color="#915DC0"/>
<stop offset="1" stop-color="#FF5183"/>
</linearGradient>
<linearGradient id="paint4_linear_6709_17538" x1="304.482" y1="96.7752" x2="122.592" y2="278.666" gradientUnits="userSpaceOnUse">
<stop stop-color="#50DBFF"/>
<stop offset="0.52" stop-color="#2069FF"/>
<stop offset="0.76" stop-color="#915DC0"/>
<stop offset="1" stop-color="#FF5183"/>
</linearGradient>
<linearGradient id="paint5_linear_6709_17538" x1="311.846" y1="104.139" x2="129.956" y2="286.03" gradientUnits="userSpaceOnUse">
<stop stop-color="#50DBFF"/>
<stop offset="0.52" stop-color="#2069FF"/>
<stop offset="0.76" stop-color="#915DC0"/>
<stop offset="1" stop-color="#FF5183"/>
</linearGradient>
<linearGradient id="paint6_linear_6709_17538" x1="285.879" y1="78.1868" x2="104.003" y2="260.062" gradientUnits="userSpaceOnUse">
<stop stop-color="#50DBFF"/>
<stop offset="0.52" stop-color="#2069FF"/>
<stop offset="0.76" stop-color="#915DC0"/>
<stop offset="1" stop-color="#FF5183"/>
</linearGradient>
<linearGradient id="paint7_linear_6709_17538" x1="213.069" y1="5.37722" x2="31.1936" y2="187.253" gradientUnits="userSpaceOnUse">
<stop stop-color="#50DBFF"/>
<stop offset="0.52" stop-color="#2069FF"/>
<stop offset="0.76" stop-color="#915DC0"/>
<stop offset="1" stop-color="#FF5183"/>
</linearGradient>
<linearGradient id="paint8_linear_6709_17538" x1="220.463" y1="12.7561" x2="38.5725" y2="194.632" gradientUnits="userSpaceOnUse">
<stop stop-color="#50DBFF"/>
<stop offset="0.52" stop-color="#2069FF"/>
<stop offset="0.76" stop-color="#915DC0"/>
<stop offset="1" stop-color="#FF5183"/>
</linearGradient>
<radialGradient id="paint9_radial_6709_17538" cx="0" cy="0" r="1" gradientUnits="userSpaceOnUse" gradientTransform="translate(156.561 161.924) scale(15.5448 15.5448)">
<stop offset="0.34" stop-color="#400500"/>
<stop offset="0.37" stop-color="#4F1814"/>
<stop offset="0.47" stop-color="#7D5451"/>
<stop offset="0.57" stop-color="#A48886"/>
<stop offset="0.67" stop-color="#C5B3B2"/>
<stop offset="0.76" stop-color="#DED4D3"/>
<stop offset="0.85" stop-color="#F0ECEB"/>
<stop offset="0.93" stop-color="#FBFAFA"/>
<stop offset="1" stop-color="white"/>
</radialGradient>
<linearGradient id="paint10_linear_6709_17538" x1="178.55" y1="138.733" x2="119.444" y2="197.839" gradientUnits="userSpaceOnUse">
<stop stop-color="#0E5DF8"/>
<stop offset="0.31" stop-color="#0F4EE0"/>
<stop offset="0.96" stop-color="#1026A3"/>
<stop offset="1" stop-color="#10249F"/>
</linearGradient>
</defs>
</svg>
